{
.formatVersion = 3;
classes = (
{
code = "space C Cacute Ccaron Ccedilla Cdotaccent J uni013B uni0145 Scedilla uni0162 c cacute ccaron ccedilla ccircumflex cdotaccent i ij uni0237 uni006A0301 jcircumflex uni013C uni0146 scedilla t tcaron uni021B uni1E6D uni1E6F u uacute ubreve ucircumflex udieresis uni1EE5 ugrave uni1EE7 uhorn uni1EE9 uni1EF1 uni1EEB uni1EED uni1EEF uhungarumlaut umacron uogonek uring utilde fi fl pi two three four five six seven eight nine zero.ss01 one.ss01 two.tf three.tf four.tf five.tf six.tf seven.tf eight.tf nine.tf zero.ss01.tf one.ss01.tf onehalf onequarter space.tf period comma colon semicolon numbersign period.tf comma.tf colon.tf semicolon.tf numbersign.tf florin florin.tf cent currency dollar sterling yen Euro.ss01 cent.tf currency.tf dollar.tf sterling.tf yen.tf Euro.ss01.tf uni00B5 ijacute";
name = aalt;
},
{
code = "space.tf C.ss01 Cacute.ss01 Ccaron.ss01 Ccedilla.ss01 Cdotaccent.ss01 uni004A0301 uni013B.loclMAH uni0145.loclMAH uni0218 uni021A c.ss01 cacute.ss01 ccaron.ss01 ccedilla.ss01 ccircumflex.ss01 cdotaccent.ss01 i.loclTRK ij.ss01 uni0237.ss01 uni006A0301.ss01 jcircumflex.ss01 uni013C.loclMAH uni0146.loclMAH uni0219 t.ss01 tcaron.ss01 uni021B.ss01 uni1E6D.ss01 uni1E6F.ss01 u.ss01 uacute.ss01 ubreve.ss01 ucircumflex.ss01 udieresis.ss01 uni1EE5.ss01 ugrave.ss01 uni1EE7.ss01 uhorn.ss01 uni1EE9.ss01 uni1EF1.ss01 uni1EEB.ss01 uni1EED.ss01 uni1EEF.ss01 uhungarumlaut.ss01 umacron.ss01 uogonek.ss01 uring.ss01 utilde.ss01 fi.ss02 fl.ss02 pi.ss01 two.tf three.tf four.tf five.tf six.tf seven.tf eight.tf nine.tf zero.ss01.tf one.ss01.tf two three four five six seven eight nine zero.ss01 one.ss01 onehalf.ss01 onequarter.ss01 space period.tf comma.tf colon.tf semicolon.tf numbersign.tf period comma colon semicolon numbersign florin.tf florin cent.tf currency.tf dollar.tf sterling.tf yen.tf Euro.ss01.tf cent currency dollar sterling yen Euro.ss01 uni00B5.ss01 ijacute.ss01";
name = aalt2;
},
{

glyphs = (
{
glyphname = A;
layers = (
{
hints = (
{
horizontal = 1;
place = (21,-20);
target = down;
type = TopGhost;
},
{
horizontal = 1;
place = (154,79);
type = Stem;
},
{
horizontal = 1;
place = (679,-20);
target = down;
type = TopGhost;
},
{
place = (-725,697);
type = Stem;
}
);
layerId = "DFBB8FEE-91F3-4D9C-B726-DCD68A66B18F";
shapes = (
{
closed = 1;
nodes = (
(61,1,l),
(122,0,l),
(166,136,l),
(164,150,l),
(473,150,l),
(469,135,l),
(514,0,l),
(596,0,l),
(335,700,l),
(297,700,l)
);
},
{
closed = 1;
nodes = (
(194,200,l),
(195,226,l),
(180,226,l),
(194,226,l),
(240,361,o),
(307,492,o),
(322,636,c),
(331,636,l),
(314,636,l),
(327,579,o),
(341,522,o),
(359,466,cs),
(364,451,o),
(368,436,o),
(371,421,cs),
(386,353,o),
(408,288,o),
(440,226,c),
(456,226,l),
(440,226,l),
(441,200,l)
);
}
);
width = 614;
}
);
leftKerningGroup = A2;
rightKerningGroup = A;
unicode = 65;
},
{
glyphname = Aacute;
layers = (
{
hints = (
{
horizontal = 1;
place = (21,-20);
target = down;
type = TopGhost;
},
{
horizontal = 1;
place = (154,79);
type = Stem;
},
{
horizontal = 1;
place = (679,-20);
target = down;
type = TopGhost;
},
{
horizontal = 1;
place = (767,132);
type = Stem;
},
{
place = (-24,697);
type = Stem;
}
);
layerId = "DFBB8FEE-91F3-4D9C-B726-DCD68A66B18F";
shapes = (
{
closed = 1;
nodes = (
(290,839,l),
(362,839,l),
(408,946,l),
(314,946,l)
);
},
{
closed = 1;
nodes = (
(12,0,l),
(126,0,l),
(169,136,l),
(167,150,l),
(164,150,l),
(465,150,l),
(462,135,l),
(506,0,l),
(618,0,l),
(374,698,l),
(257,698,l)
);
},
{
closed = 1;
nodes = (
(197,196,l),
(198,226,l),
(179,226,l),
(197,226,l),
(243,361,o),
(290,496,o),
(323,636,c),
(329,636,l),
(309,636,l),
(316,610,o),
(327,583,o),
(327,555,cs),
(327,517,o),
(412,273,o),
(432,226,c),
(452,226,l),
(432,226,l),
(434,196,l)
);
}
);
width = 613;
}
);
leftKerningGroup = A2;
rightKerningGroup = A;
unicode = 193;
},
{
glyphname = Abreve;
layers = (
{
hints = (
{
horizontal = 1;
place = (21,-20);
target = down;
type = TopGhost;
},
{
horizontal = 1;
place = (154,79);
type = Stem;
},
{
horizontal = 1;
place = (679,-20);
target = down;
type = TopGhost;
},
{
horizontal = 1;
place = (758,41);
type = Stem;
},
{
horizontal = 1;
place = (758,97);
type = Stem;
},
{
place = (29,112);
type = Stem;
},
{
place = (329,112);
type = Stem;
}
);
layerId = "DFBB8FEE-91F3-4D9C-B726-DCD68A66B18F";
shapes = (
{
closed = 1;
nodes = (
(175,896,l),
(179,840,o),
(272,830,o),
(315,830,cs),
(359,830,o),
(450,840,o),
(456,896,c),
(371,896,l),
(366,869,o),
(348,833,o),
(316,833,cs),
(283,833,o),
(264,868,o),
(259,896,c)
);
},
{
closed = 1;
nodes = (
(12,0,l),
(126,0,l),
(169,136,l),
(167,150,l),
(164,150,l),
(465,150,l),
(462,135,l),
(506,0,l),
(618,0,l),
(374,698,l),
(257,698,l)
);
},
{
closed = 1;
nodes = (
(197,196,l),
(198,226,l),
(179,226,l),
(197,226,l),
(243,361,o),
(290,496,o),
(323,636,c),
(329,636,l),
(309,636,l),
(316,610,o),
(327,583,o),
(327,555,cs),
(327,517,o),
(412,273,o),
(432,226,c),
(452,226,l),
(432,226,l),
(434,196,l)
);
}
);
width = 613;
}
);
leftKerningGroup = A2;
rightKerningGroup = A;
unicode = 258;
},
{
glyphname = uni1EAE;
layers = (
{
hints = (
{
horizontal = 1;
place = (21,-20);
target = down;
type = TopGhost;
},
{
horizontal = 1;
place = (154,79);
type = Stem;
},
{
horizontal = 1;
place = (679,-20);
target = down;
type = TopGhost;
},
{
horizontal = 1;
place = (758,41);
type = Stem;
},
{
horizontal = 1;
place = (758,97);
type = Stem;
},
{
horizontal = 1;
place = (927,132);
type = Stem;
},
{
place = (29,112);
type = Stem;
},
{
place = (329,112);
type = Stem;
}
);
layerId = "DFBB8FEE-91F3-4D9C-B726-DCD68A66B18F";
shapes = (
{
closed = 1;
nodes = (
(290,1020,l),
(362,1020,l),
(407,1125,l),
(314,1125,l)
);
},
{
closed = 1;
nodes = (
(175,896,l),
(179,840,o),
(272,830,o),
(315,830,cs),
(359,830,o),
(450,840,o),
(456,896,c),
(371,896,l),
(366,869,o),
(348,833,o),
(316,833,cs),
(283,833,o),
(264,868,o),
(259,896,c)
);
},
{
closed = 1;
nodes = (
(12,0,l),
(126,0,l),
(169,136,l),
(167,150,l),
(164,150,l),
(465,150,l),
(462,135,l),
(506,0,l),
(618,0,l),
(374,698,l),
(257,698,l)
);
},
{
closed = 1;
nodes = (
(197,196,l),
(198,226,l),
(179,226,l),
(197,226,l),
(243,361,o),
(290,496,o),
(323,636,c),
(329,636,l),
(309,636,l),
(316,610,o),
(327,583,o),
(327,555,cs),
(327,517,o),
(412,273,o),
(432,226,c),
(452,226,l),
(432,226,l),
(434,196,l)
);
}
);
width = 613;
}
);
leftKerningGroup = A2;
rightKerningGroup = A;
unicode = 7854;
},
{
glyphname = uni1EB6;
layers = (
{
hints = (
{
horizontal = 1;
place = (-192,117);
type = Stem;
},
{
horizontal = 1;
place = (21,-20);
target = down;
type = TopGhost;
},
{
horizontal = 1;
place = (154,79);
type = Stem;
},
{
horizontal = 1;
place = (679,-20);
target = down;
type = TopGhost;
},
{
horizontal = 1;
place = (758,41);
type = Stem;
},
{
horizontal = 1;
place = (758,97);
type = Stem;
},
{
place = (29,112);
type = Stem;
},
{
place = (49,167);
type = Stem;
},
{
place = (329,112);
type = Stem;
}
);
layerId = "DFBB8FEE-91F3-4D9C-B726-DCD68A66B18F";
shapes = (
{
closed = 1;
nodes = (
(253,-228,o),
(297,-239,o),
(323,-239,cs),
(349,-239,o),
(390,-228,o),
(390,-196,cs),
(390,-163,o),
(348,-150,o),
(321,-150,cs),
(295,-150,o),
(253,-163,o),
(253,-195,cs)
);
},
{
closed = 1;
nodes = (
(175,896,l),
(179,840,o),
(272,830,o),
(315,830,cs),
(359,830,o),
(450,840,o),
(456,896,c),
(371,896,l),
(366,869,o),
(348,833,o),
(316,833,cs),
(283,833,o),
(264,868,o),
(259,896,c)
);
},
{
closed = 1;
nodes = (
(12,0,l),
(126,0,l),
(169,136,l),
(167,150,l),
(164,150,l),
(465,150,l),
(462,135,l),
(506,0,l),
(618,0,l),
(374,698,l),
(257,698,l)
);
},
{
closed = 1;
nodes = (
(197,196,l),
(198,226,l),
(179,226,l),
(197,226,l),
(243,361,o),
(290,496,o),
(323,636,c),
(329,636,l),
(309,636,l),
(316,610,o),
(327,583,o),
(327,555,cs),
(327,517,o),
(412,273,o),
(432,226,c),
(452,226,l),
(432,226,l),
(434,196,l)
);
}
);
width = 613;
}
);
leftKerningGroup = A2;
rightKerningGroup = A;
unicode = 7862;
},
{
glyphname = uni1EB0;
layers = (
{
hints = (
{
horizontal = 1;
place = (21,-20);
target = down;
type = TopGhost;
},
{
horizontal = 1;
place = (154,79);
type = Stem;
},
{
horizontal = 1;
place = (679,-20);
target = down;
type = TopGhost;
},
{
horizontal = 1;
place = (758,41);
type = Stem;
},
{
horizontal = 1;
place = (758,97);
type = Stem;
},
{
horizontal = 1;
place = (927,132);
type = Stem;
},
{
place = (29,112);
type = Stem;
},
{
place = (329,112);
type = Stem;
}
);
layerId = "DFBB8FEE-91F3-4D9C-B726-DCD68A66B18F";
shapes = (
{
closed = 1;
nodes = (
(175,896,l),
(179,840,o),
(272,830,o),
(315,830,cs),
(359,830,o),
(450,840,o),
(456,896,c),
(371,896,l),
(366,869,o),
(348,833,o),
(316,833,cs),
(283,833,o),
(264,868,o),
(259,896,c)
);
},
{
closed = 1;
nodes = (
(273,1020,l),
(346,1020,l),
(328,1125,l),
(219,1125,l)
);
},
{
closed = 1;
nodes = (
(12,0,l),
(126,0,l),
(169,136,l),
(167,150,l),
(164,150,l),
(465,150,l),
(462,135,l),
(506,0,l),
(618,0,l),
(374,698,l),
(257,698,l)
);
},
{
closed = 1;
nodes = (
(197,196,l),
(198,226,l),
(179,226,l),
(197,226,l),
(243,361,o),
(290,496,o),
(323,636,c),
(329,636,l),
(309,636,l),
(316,610,o),
(327,583,o),
(327,555,cs),
(327,517,o),
(412,273,o),
(432,226,c),
(452,226,l),
(432,226,l),
(434,196,l)
);
}
);
width = 613;
}
);
leftKerningGroup = A2;
rightKerningGroup = A;
unicode = 7856;
},
{
glyphname = uni1EB2;
layers = (
{
hints = (
{
horizontal = 1;
place = (21,-20);
target = down;
type = TopGhost;
},
{
horizontal = 1;
place = (154,79);
type = Stem;
},
{
horizontal = 1;
place = (679,-20);
target = down;
type = TopGhost;
},
{
horizontal = 1;
place = (758,41);
type = Stem;
},
{
horizontal = 1;
place = (758,97);
type = Stem;
},
{
horizontal = 1;
place = (918,33);
type = Stem;
},
{
horizontal = 1;
place = (1020,66);
type = Stem;
},
{
horizontal = 1;
place = (1050,36);
type = Stem;
},
{
place = (29,112);
type = Stem;
},
{
place = (88,89);
type = Stem;
},
{
place = (210,92);
type = Stem;
},
{
place = (329,112);
type = Stem;
}
);
layerId = "DFBB8FEE-91F3-4D9C-B726-DCD68A66B18F";
shapes = (
{
closed = 1;
nodes = (
(175,896,l),
(179,840,o),
(272,830,o),
(315,830,cs),
(359,830,o),
(450,840,o),
(456,896,c),
(371,896,l),
(366,869,o),
(348,833,o),
(316,833,cs),
(283,833,o),
(264,868,o),
(259,896,c)
);
},
{
closed = 1;
nodes = (
(295,1011,l),
(276,1011,l),
(290,1011,o),
(303,1009,o),
(317,1009,cs),
(362,1009,o),
(411,1030,o),
(411,1082,cs),
(411,1139,o),
(352,1156,o),
(305,1156,cs),
(280,1156,o),
(228,1151,o),
(218,1124,c),
(278,1124,l),
(282,1138,o),
(293,1158,o),
(310,1158,cs),
(339,1158,o),
(347,1102,o),
(347,1081,cs),
(347,1058,o),
(339,1004,o),
(308,1004,cs),
(297,1004,o),
(286,1009,o),
(275,1008,c),
(294,1008,l)
);
},
{
closed = 1;
nodes = (
(12,0,l),
(126,0,l),
(169,136,l),
(167,150,l),
(164,150,l),
(465,150,l),
(462,135,l),
(506,0,l),
(618,0,l),
(374,698,l),
(257,698,l)
);
},
{
closed = 1;
nodes = (
(197,196,l),
(198,226,l),
(179,226,l),
(197,226,l),
(243,361,o),
(290,496,o),
(323,636,c),
(329,636,l),
(309,636,l),
(316,610,o),
(327,583,o),
(327,555,cs),
(327,517,o),
(412,273,o),
(432,226,c),
(452,226,l),
(432,226,l),
(434,196,l)
);
}
);
width = 613;
}
);
leftKerningGroup = A2;
rightKerningGroup = A;
unicode = 7858;
},
{
glyphname = uni1EB4;
layers = (
{
hints = (
{
horizontal = 1;
place = (21,-20);
target = down;
type = TopGhost;
},
{
horizontal = 1;
place = (154,79);
type = Stem;
},
{
horizontal = 1;
place = (679,-20);
target = down;
type = TopGhost;
},
{
horizontal = 1;
place = (758,41);
type = Stem;
},
{
horizontal = 1;
place = (758,97);
type = Stem;
},
{
horizontal = 1;
place = (918,50);
type = Stem;
},
{
horizontal = 1;
place = (918,101);
type = Stem;
},
{
horizontal = 1;
place = (982,48);
type = Stem;
},
{
place = (103,91);
type = Stem;
},
{
place = (92,49);
type = Stem;
},
{
place = (29,112);
type = Stem;
},
{
place = (329,112);
type = Stem;
},
{
place = (384,92);
type = Stem;
}
);
layerId = "DFBB8FEE-91F3-4D9C-B726-DCD68A66B18F";
shapes = (
{
closed = 1;
nodes = (
(175,896,l),
(179,840,o),
(272,830,o),
(315,830,cs),
(359,830,o),
(450,840,o),
(456,896,c),
(371,896,l),
(366,869,o),
(348,833,o),
(316,833,cs),
(283,833,o),
(264,868,o),
(259,896,c)
);
},
{
closed = 1;
nodes = (
(197,1025,l),
(202,1049,o),
(218,1082,o),
(247,1082,cs),
(286,1082,o),
(312,1009,o),
(402,1009,cs),
(446,1009,o),
(498,1029,o),
(497,1081,c),
(446,1081,l),
(450,1095,l),
(430,1095,l),
(437,1095,l),
(433,1086,o),
(430,1076,o),
(430,1066,c),
(450,1066,l),
(430,1066,l),
(425,1054,o),
(409,1023,o),
(394,1023,cs),
(382,1023,o),
(368,1036,o),
(357,1041,c),
(350,1041,l),
(368,1041,l),
(347,1046,l),
(334,1037,l),
(363,1037,l),
(363,1039,l),
(357,1045,o),
(351,1051,o),
(344,1054,c),
(348,1054,l),
(349,1053,l),
(343,1053,o),
(338,1056,o),
(334,1060,c),
(332,1060,l),
(337,1060,l),
(329,1066,l),
(312,1066,l),
(326,1066,l),
(326,1065,l),
(330,1065,l),
(313,1087,o),
(270,1093,o),
(243,1093,cs),
(200,1093,o),
(140,1076,o),
(134,1025,c)
);
},
{
closed = 1;
nodes = (
(12,0,l),
(126,0,l),
(169,136,l),
(167,150,l),
(164,150,l),
(465,150,l),
(462,135,l),
(506,0,l),
(618,0,l),
(374,698,l),
(257,698,l)
);
},
{
closed = 1;
nodes = (
(197,196,l),
(198,226,l),
(179,226,l),
(197,226,l),
(243,361,o),
(290,496,o),
(323,636,c),
(329,636,l),
(309,636,l),
(316,610,o),
(327,583,o),
(327,555,cs),
(327,517,o),
(412,273,o),
(432,226,c),
(452,226,l),
(432,226,l),
(434,196,l)
);
}
);
width = 613;
}
);
leftKerningGroup = A2;
rightKerningGroup = A;
unicode = 7860;
},
{
glyphname = Acircumflex;
layers = (
{
hints = (
{
horizontal = 1;
place = (21,-20);
target = down;
type = TopGhost;
},
{
horizontal = 1;
place = (154,79);
type = Stem;
},
{
horizontal = 1;
place = (679,-20);
target = down;
type = TopGhost;
},
{
horizontal = 1;
place = (767,132);
type = Stem;
},
{
place = (-24,697);
type = Stem;
}
);
layerId = "DFBB8FEE-91F3-4D9C-B726-DCD68A66B18F";
shapes = (
{
closed = 1;
nodes = (
(208,839,l),
(282,839,l),
(322,943,l),
(327,943,l),
(308,943,l),
(348,839,l),
(422,839,l),
(370,946,l),
(263,946,l)
);
},
{
closed = 1;
nodes = (
(12,0,l),
(126,0,l),
(169,136,l),
(167,150,l),
(164,150,l),
(465,150,l),
(462,135,l),
(506,0,l),
(618,0,l),
(374,698,l),
(257,698,l)
);
},
{
closed = 1;
nodes = (
(197,196,l),
(198,226,l),
(179,226,l),
(197,226,l),
(243,361,o),
(290,496,o),
(323,636,c),
(329,636,l),
(309,636,l),
(316,610,o),
(327,583,o),
(327,555,cs),
(327,517,o),
(412,273,o),
(432,226,c),
(452,226,l),
(432,226,l),
(434,196,l)
);
}
);
width = 613;
}
);
leftKerningGroup = A2;
rightKerningGroup = A;
unicode = 194;
},
{
glyphname = uni1EA4;
layers = (
{
hints = (
{
horizontal = 1;
place = (21,-20);
target = down;
type = TopGhost;
},
{
horizontal = 1;
place = (154,79);
type = Stem;
},
{
horizontal = 1;
place = (679,-20);
target = down;
type = TopGhost;
},
{
horizontal = 1;
place = (767,132);
type = Stem;
},
{
horizontal = 1;
place = (869,30);
type = Stem;
},
{
horizontal = 1;
place = (869,132);
type = Stem;
},
{
place = (-24,697);
type = Stem;
}
);
layerId = "DFBB8FEE-91F3-4D9C-B726-DCD68A66B18F";
shapes = (
{
closed = 1;
nodes = (
(441,954,l),
(509,954,l),
(556,1060,l),
(463,1060,l)
);
},
{
closed = 1;
nodes = (
(208,839,l),
(282,839,l),
(322,943,l),
(327,943,l),
(308,943,l),
(348,839,l),
(422,839,l),
(370,946,l),
(263,946,l)
);
},
{
closed = 1;
nodes = (
(12,0,l),
(126,0,l),
(169,136,l),
(167,150,l),
(164,150,l),
(465,150,l),
(462,135,l),
(506,0,l),
(618,0,l),
(374,698,l),
(257,698,l)
);
},
{
closed = 1;
nodes = (
(197,196,l),
(198,226,l),
(179,226,l),
(197,226,l),
(243,361,o),
(290,496,o),
(323,636,c),
(329,636,l),
(309,636,l),
(316,610,o),
(327,583,o),
(327,555,cs),
(327,517,o),
(412,273,o),
(432,226,c),
(452,226,l),
(432,226,l),
(434,196,l)
);
}
);
width = 613;
}
);
leftKerningGroup = A2;
rightKerningGroup = A;
unicode = 7844;
},
{
glyphname = uni1EAC;
layers = (
{
hints = (
{
horizontal = 1;
place = (-192,117);
type = Stem;
},
{
horizontal = 1;
place = (21,-20);
target = down;
type = TopGhost;
},
{
horizontal = 1;
place = (154,79);
type = Stem;
},
{
horizontal = 1;
place = (679,-20);
target = down;
type = TopGhost;
},
{
horizontal = 1;
place = (767,132);
type = Stem;
},
{
place = (49,167);
type = Stem;
}
);
layerId = "DFBB8FEE-91F3-4D9C-B726-DCD68A66B18F";
shapes = (
{
closed = 1;
nodes = (
(253,-228,o),
(297,-239,o),
(323,-239,cs),
(349,-239,o),
(390,-228,o),
(390,-196,cs),
(390,-163,o),
(348,-150,o),
(321,-150,cs),
(295,-150,o),
(253,-163,o),
(253,-195,cs)
);
},
{
closed = 1;
nodes = (
(208,839,l),
(282,839,l),
(322,943,l),
(327,943,l),
(308,943,l),
(348,839,l),
(422,839,l),
(370,946,l),
(263,946,l)
);
},
{
closed = 1;
nodes = (
(12,0,l),
(126,0,l),
(169,136,l),
(167,150,l),
(164,150,l),
(465,150,l),
(462,135,l),
(506,0,l),
(618,0,l),
(374,698,l),
(257,698,l)
);
},
{
closed = 1;
nodes = (
(197,196,l),
(198,226,l),
(179,226,l),
(197,226,l),
(243,361,o),
(290,496,o),
(323,636,c),
(329,636,l),
(309,636,l),
(316,610,o),
(327,583,o),
(327,555,cs),
(327,517,o),
(412,273,o),
(432,226,c),
(452,226,l),
(432,226,l),
(434,196,l)
);
}
);
width = 613;
}
);
leftKerningGroup = A2;
rightKerningGroup = A;
unicode = 7852;
},
{
glyphname = uni1EA6;
layers = (
{
hints = (
{
horizontal = 1;
place = (21,-20);
target = down;
type = TopGhost;
},
{
horizontal = 1;
place = (154,79);
type = Stem;
},
{
horizontal = 1;
place = (679,-20);
target = down;
type = TopGhost;
},
{
horizontal = 1;
place = (767,132);
type = Stem;
},
{
horizontal = 1;
place = (869,30);
type = Stem;
},
{
horizontal = 1;
place = (869,132);
type = Stem;
},
{
place = (-24,697);
type = Stem;
}
);
layerId = "DFBB8FEE-91F3-4D9C-B726-DCD68A66B18F";
shapes = (
{
closed = 1;
nodes = (
(208,839,l),
(282,839,l),
(322,943,l),
(327,943,l),
(308,943,l),
(348,839,l),
(422,839,l),
(370,946,l),
(263,946,l)
);
},
{
closed = 1;
nodes = (
(122,954,l),
(197,954,l),
(180,1060,l),
(70,1060,l)
);
},
{
closed = 1;
nodes = (
(12,0,l),
(126,0,l),
(169,136,l),
(167,150,l),
(164,150,l),
(465,150,l),
(462,135,l),
(506,0,l),
(618,0,l),
(374,698,l),
(257,698,l)
);
},
{
closed = 1;
nodes = (
(197,196,l),
(198,226,l),
(179,226,l),
(197,226,l),
(243,361,o),
(290,496,o),
(323,636,c),
(329,636,l),
(309,636,l),
(316,610,o),
(327,583,o),
(327,555,cs),
(327,517,o),
(412,273,o),
(432,226,c),
(452,226,l),
(432,226,l),
(434,196,l)
);
}
);
width = 613;
}
);
leftKerningGroup = A2;
rightKerningGroup = A;
unicode = 7846;
},
{
glyphname = uni1EA8;
layers = (
{
hints = (
{
horizontal = 1;
place = (21,-20);
target = down;
type = TopGhost;
},
{
horizontal = 1;
place = (154,79);
type = Stem;
},
{
horizontal = 1;
place = (679,-20);
target = down;
type = TopGhost;
},
{
horizontal = 1;
place = (767,132);
type = Stem;
},
{
horizontal = 1;
place = (950,33);
type = Stem;
},
{
horizontal = 1;
place = (1052,66);
type = Stem;
},
{
horizontal = 1;
place = (1082,36);
type = Stem;
},
{
place = (88,89);
type = Stem;
},
{
place = (210,92);
type = Stem;
}
);
layerId = "DFBB8FEE-91F3-4D9C-B726-DCD68A66B18F";
shapes = (
{
closed = 1;
nodes = (
(295,1048,l),
(276,1048,l),
(291,1048,l),
(298,1045,o),
(306,1045,o),
(314,1045,cs),
(360,1045,o),
(411,1064,o),
(411,1118,cs),
(411,1175,o),
(352,1192,o),
(305,1192,cs),
(280,1192,o),
(228,1187,o),
(218,1160,c),
(278,1160,l),
(282,1174,o),
(293,1194,o),
(310,1194,cs),
(339,1194,o),
(347,1138,o),
(347,1117,cs),
(347,1094,o),
(339,1040,o),
(308,1040,cs),
(297,1040,o),
(286,1045,o),
(275,1044,c),
(294,1044,l)
);
},
{
closed = 1;
nodes = (
(208,839,l),
(282,839,l),
(322,943,l),
(327,943,l),
(308,943,l),
(348,839,l),
(422,839,l),
(370,946,l),
(263,946,l)
);
},
{
closed = 1;
nodes = (
(12,0,l),
(126,0,l),
(169,136,l),
(167,150,l),
(164,150,l),
(465,150,l),
(462,135,l),
(506,0,l),
(618,0,l),
(374,698,l),
(257,698,l)
);
},
{
closed = 1;
nodes = (
(197,196,l),
(198,226,l),
(179,226,l),
(197,226,l),
(243,361,o),
(290,496,o),
(323,636,c),
(329,636,l),
(309,636,l),
(316,610,o),
(327,583,o),
(327,555,cs),
(327,517,o),
(412,273,o),
(432,226,c),
(452,226,l),
(432,226,l),
(434,196,l)
);
}
);
width = 613;
}
);
leftKerningGroup = A2;
rightKerningGroup = A;
unicode = 7848;
},
{
glyphname = uni1EAA;
layers = (
{
hints = (
{
horizontal = 1;
place = (21,-20);
target = down;
type = TopGhost;
},
{
horizontal = 1;
place = (154,79);
type = Stem;
},
{
horizontal = 1;
place = (679,-20);
target = down;
type = TopGhost;
},
{
horizontal = 1;
place = (767,132);
type = Stem;
},
{
horizontal = 1;
place = (950,50);
type = Stem;
},
{
horizontal = 1;
place = (950,101);
type = Stem;
},
{
horizontal = 1;
place = (1014,48);
type = Stem;
},
{
place = (103,91);
type = Stem;
},
{
place = (384,92);
type = Stem;
}
);
layerId = "DFBB8FEE-91F3-4D9C-B726-DCD68A66B18F";
shapes = (
{
closed = 1;
nodes = (
(197,1061,l),
(202,1084,o),
(218,1118,o),
(246,1118,cs),
(265,1118,o),
(283,1104,o),
(297,1094,c),
(293,1094,l),
(298,1089,l),
(299,1089,l),
(304,1086,l),
(316,1086,l),
(301,1086,l),
(300,1085,l),
(307,1080,l),
(319,1052,o),
(369,1045,o),
(396,1045,cs),
(443,1045,o),
(497,1061,o),
(497,1117,c),
(432,1117,l),
(432,1112,o),
(433,1106,o),
(430,1101,c),
(430,1100,l),
(450,1100,l),
(430,1100,l),
(425,1088,o),
(409,1059,o),
(394,1059,cs),
(382,1059,o),
(368,1072,o),
(357,1077,c),
(350,1077,l),
(360,1078,l),
(350,1084,l),
(352,1084,l),
(349,1084,l),
(351,1082,l),
(354,1082,l),
(341,1093,l),
(336,1102,o),
(326,1104,o),
(317,1103,c),
(329,1103,l),
(312,1123,o),
(270,1128,o),
(245,1128,cs),
(202,1128,o),
(140,1112,o),
(134,1061,c)
);
},
{
closed = 1;
nodes = (
(208,839,l),
(282,839,l),
(322,943,l),
(327,943,l),
(308,943,l),
(348,839,l),
(422,839,l),
(370,946,l),
(263,946,l)
);
},
{
closed = 1;
nodes = (
(12,0,l),
(126,0,l),
(169,136,l),
(167,150,l),
(164,150,l),
(465,150,l),
(462,135,l),
(506,0,l),
(618,0,l),
(374,698,l),
(257,698,l)
);
},
{
closed = 1;
nodes = (
(197,196,l),
(198,226,l),
(179,226,l),
(197,226,l),
(243,361,o),
(290,496,o),
(323,636,c),
(329,636,l),
(309,636,l),
(316,610,o),
(327,583,o),
(327,555,cs),
(327,517,o),
(412,273,o),
(432,226,c),
(452,226,l),
(432,226,l),
(434,196,l)
);
}
);
width = 613;
}
);
leftKerningGroup = A2;
rightKerningGroup = A;
unicode = 7850;
},
{
glyphname = Adieresis;
layers = (
{
hints = (
{
horizontal = 1;
place = (21,-20);
target = down;
type = TopGhost;
},
{
horizontal = 1;
place = (154,79);
type = Stem;
},
{
horizontal = 1;
place = (679,-20);
target = down;
type = TopGhost;
},
{
horizontal = 1;
place = (764,117);
type = Stem;
},
{
place = (-51,167);
type = Stem;
},
{
place = (304,167);
type = Stem;
}
);
layerId = "DFBB8FEE-91F3-4D9C-B726-DCD68A66B18F";
shapes = (
{
closed = 1;
nodes = (
(350,849,o),
(393,836,o),
(419,836,cs),
(445,836,o),
(486,849,o),
(486,881,cs),
(486,913,o),
(444,925,o),
(418,925,cs),
(392,925,o),
(350,913,o),
(350,881,cs)
);
},
{
closed = 1;
nodes = (
(144,848,o),
(188,836,o),
(214,836,cs),
(240,836,o),
(281,848,o),
(281,880,cs),
(281,913,o),
(240,925,o),
(213,925,cs),
(187,925,o),
(144,913,o),
(144,881,cs)
);
},
{
closed = 1;
nodes = (
(12,0,l),
(126,0,l),
(169,136,l),
(167,150,l),
(164,150,l),
(465,150,l),
(462,135,l),
(506,0,l),
(618,0,l),
(374,698,l),
(257,698,l)
);
},
{
closed = 1;
nodes = (
(197,196,l),
(198,226,l),
(179,226,l),
(197,226,l),
(243,361,o),
(290,496,o),
(323,636,c),
(329,636,l),
(309,636,l),
(316,610,o),
(327,583,o),
(327,555,cs),
(327,517,o),
(412,273,o),
(432,226,c),
(452,226,l),
(432,226,l),
(434,196,l)
);
}
);
width = 613;
}
);
leftKerningGroup = A2;
rightKerningGroup = A;
unicode = 196;
},
{
glyphname = uni1EA0;
layers = (
{
hints = (
{
horizontal = 1;
place = (-192,117);
type = Stem;
},
{
horizontal = 1;
place = (21,-20);
target = down;
type = TopGhost;
},
{
horizontal = 1;
place = (154,79);
type = Stem;
},
{
horizontal = 1;
place = (679,-20);
target = down;
type = TopGhost;
},
{
place = (49,167);
type = Stem;
}
);
layerId = "DFBB8FEE-91F3-4D9C-B726-DCD68A66B18F";
shapes = (
{
closed = 1;
nodes = (
(253,-228,o),
(297,-239,o),
(323,-239,cs),
(349,-239,o),
(390,-228,o),
(390,-196,cs),
(390,-163,o),
(348,-150,o),
(321,-150,cs),
(295,-150,o),
(253,-163,o),
(253,-195,cs)
);
},
{
closed = 1;
nodes = (
(12,0,l),
(126,0,l),
(169,136,l),
(167,150,l),
(164,150,l),
(465,150,l),
(462,135,l),
(506,0,l),
(618,0,l),
(374,698,l),
(257,698,l)
);
},
{
closed = 1;
nodes = (
(197,196,l),
(198,226,l),
(179,226,l),
(197,226,l),
(243,361,o),
(290,496,o),
(323,636,c),
(329,636,l),
(309,636,l),
(316,610,o),
(327,583,o),
(327,555,cs),
(327,517,o),
(412,273,o),
(432,226,c),
(452,226,l),
(432,226,l),
(434,196,l)
);
}
);
width = 613;
}
);
leftKerningGroup = A2;
rightKerningGroup = A;
unicode = 7840;
},
{
glyphname = Agrave;
layers = (
{
hints = (
{
horizontal = 1;
place = (21,-20);
target = down;
type = TopGhost;
},
{
horizontal = 1;
place = (154,79);
type = Stem;
},
{
horizontal = 1;
place = (679,-20);
target = down;
type = TopGhost;
},
{
horizontal = 1;
place = (767,132);
type = Stem;
},
{
place = (-24,697);
type = Stem;
}
);
layerId = "DFBB8FEE-91F3-4D9C-B726-DCD68A66B18F";
shapes = (
{
closed = 1;
nodes = (
(273,839,l),
(346,839,l),
(328,946,l),
(219,946,l)
);
},
{
closed = 1;
nodes = (
(12,0,l),
(126,0,l),
(169,136,l),
(167,150,l),
(164,150,l),
(465,150,l),
(462,135,l),
(506,0,l),
(618,0,l),
(374,698,l),
(257,698,l)
);
},
{
closed = 1;
nodes = (
(197,196,l),
(198,226,l),
(179,226,l),
(197,226,l),
(243,361,o),
(290,496,o),
(323,636,c),
(329,636,l),
(309,636,l),
(316,610,o),
(327,583,o),
(327,555,cs),
(327,517,o),
(412,273,o),
(432,226,c),
(452,226,l),
(432,226,l),
(434,196,l)
);
}
);
width = 613;
}
);
leftKerningGroup = A2;
rightKerningGroup = A;
unicode = 192;
},
{
glyphname = uni1EA2;
layers = (
{
hints = (
{
horizontal = 1;
place = (21,-20);
target = down;
type = TopGhost;
},
{
horizontal = 1;
place = (154,79);
type = Stem;
},
{
horizontal = 1;
place = (679,-20);
target = down;
type = TopGhost;
},
{
horizontal = 1;
place = (758,33);
type = Stem;
},
{
horizontal = 1;
place = (860,66);
type = Stem;
},
{
horizontal = 1;
place = (890,36);
type = Stem;
},
{
place = (88,89);
type = Stem;
},
{
place = (210,92);
type = Stem;
}
);
layerId = "DFBB8FEE-91F3-4D9C-B726-DCD68A66B18F";
shapes = (
{
closed = 1;
nodes = (
(295,832,l),
(276,832,l),
(290,832,o),
(303,830,o),
(317,830,cs),
(362,830,o),
(411,850,o),
(411,902,cs),
(411,960,o),
(351,976,o),
(304,976,cs),
(279,976,o),
(228,971,o),
(218,944,c),
(278,944,l),
(282,958,o),
(293,977,o),
(310,977,cs),
(340,977,o),
(347,923,o),
(347,901,cs),
(347,878,o),
(339,824,o),
(308,824,cs),
(301,824,o),
(295,826,o),
(289,829,c),
(275,829,l),
(294,829,l)
);
},
{
closed = 1;
nodes = (
(12,0,l),
(126,0,l),
(169,136,l),
(167,150,l),
(164,150,l),
(465,150,l),
(462,135,l),
(506,0,l),
(618,0,l),
(374,698,l),
(257,698,l)
);
},
{
closed = 1;
nodes = (
(197,196,l),
(198,226,l),
(179,226,l),
(197,226,l),
(243,361,o),
(290,496,o),
(323,636,c),
(329,636,l),
(309,636,l),
(316,610,o),
(327,583,o),
(327,555,cs),
(327,517,o),
(412,273,o),
(432,226,c),
(452,226,l),
(432,226,l),
(434,196,l)
);
}
);
width = 613;
}
);
leftKerningGroup = A2;
rightKerningGroup = A;
unicode = 7842;
},
{
glyphname = Amacron;
layers = (
{
hints = (
{
horizontal = 1;
place = (21,-20);
target = down;
type = TopGhost;
},
{
horizontal = 1;
place = (154,79);
type = Stem;
},
{
horizontal = 1;
place = (679,-20);
target = down;
type = TopGhost;
},
{
horizontal = 1;
place = (799,48);
type = Stem;
},
{
place = (-24,697);
type = Stem;
},
{
place = (-164,311);
type = Stem;
}
);
layerId = "DFBB8FEE-91F3-4D9C-B726-DCD68A66B18F";
shapes = (
{
closed = 1;
nodes = (
(177,875,l),
(454,875,l),
(454,887,l),
(177,887,l)
);
},
{
closed = 1;
nodes = (
(12,0,l),
(126,0,l),
(169,136,l),
(167,150,l),
(164,150,l),
(465,150,l),
(462,135,l),
(506,0,l),
(618,0,l),
(374,698,l),
(257,698,l)
);
},
{
closed = 1;
nodes = (
(197,196,l),
(198,226,l),
(179,226,l),
(197,226,l),
(243,361,o),
(290,496,o),
(323,636,c),
(329,636,l),
(309,636,l),
(316,610,o),
(327,583,o),
(327,555,cs),
(327,517,o),
(412,273,o),
(432,226,c),
(452,226,l),
(432,226,l),
(434,196,l)
);
}
);
width = 613;
}
);
leftKerningGroup = A2;
rightKerningGroup = A;
unicode = 256;
},
{
glyphname = Aogonek;
layers = (
{
hints = (
{
horizontal = 1;
place = (-192,52);
type = Stem;
},
{
horizontal = 1;
place = (-181,-20);
target = down;
type = TopGhost;
},
{
horizontal = 1;
place = (21,-20);
target = down;
type = TopGhost;
},
{
horizontal = 1;
place = (154,79);
type = Stem;
},
{
horizontal = 1;
place = (679,-20);
target = down;
type = TopGhost;
},
{
place = (391,99);
type = Stem;
}
);
layerId = "DFBB8FEE-91F3-4D9C-B726-DCD68A66B18F";
shapes = (
{
closed = 1;
nodes = (
(12,0,l),
(126,0,l),
(169,136,l),
(167,150,l),
(164,150,l),
(465,150,l),
(462,135,l),
(518,-46,l),
(537,-46,l),
(518,-46,l),
(518,-71,l),
(537,-71,l),
(521,-71,l),
(489,-99,o),
(444,-129,o),
(444,-176,cs),
(444,-227,o),
(510,-239,o),
(549,-239,cs),
(567,-239,o),
(586,-238,o),
(603,-232,c),
(599,-223,l),
(543,-223,o),
(515,-187,o),
(515,-133,cs),
(515,-103,o),
(523,-71,o),
(545,-50,c),
(534,-50,l),
(545,-50,l),
(567,-37,o),
(585,-18,o),
(603,-1,c),
(603,0,l),
(618,0,l),
(374,698,l),
(257,698,l)
);
},
{
closed = 1;
nodes = (
(197,196,l),
(198,226,l),
(179,226,l),
(197,226,l),
(243,361,o),
(290,496,o),
(323,636,c),
(329,636,l),
(309,636,l),
(316,610,o),
(327,583,o),
(327,555,cs),
(327,517,o),
(412,273,o),
(432,226,c),
(452,226,l),
(432,226,l),
(434,196,l)
);
}
);
width = 613;
}
);
leftKerningGroup = A2;
rightKerningGroup = A;
unicode = 260;
},
{
glyphname = Aring;
layers = (
{
hints = (
{
horizontal = 1;
place = (21,-20);
target = down;
type = TopGhost;
},
{
horizontal = 1;
place = (154,79);
type = Stem;
},
{
horizontal = 1;
place = (679,-20);
target = down;
type = TopGhost;
},
{
horizontal = 1;
place = (758,25);
type = Stem;
},
{
horizontal = 1;
place = (900,26);
type = Stem;
},
{
place = (114,74);
type = Stem;
},
{
place = (314,76);
type = Stem;
}
);
layerId = "DFBB8FEE-91F3-4D9C-B726-DCD68A66B18F";
shapes = (
{
closed = 1;
nodes = (
(222,856,o),
(274,830,o),
(315,830,cs),
(356,830,o),
(409,857,o),
(409,903,cs),
(409,949,o),
(356,976,o),
(315,976,cs),
(274,976,o),
(222,950,o),
(222,903,cs)
);
},
{
closed = 1;
nodes = (
(280,815,o),
(268,876,o),
(268,903,cs),
(268,930,o),
(280,989,o),
(315,989,cs),
(349,989,o),
(361,929,o),
(361,903,cs),
(361,877,o),
(349,815,o),
(315,815,cs)
);
},
{
closed = 1;
nodes = (
(12,0,l),
(126,0,l),
(169,136,l),
(167,150,l),
(164,150,l),
(465,150,l),
(462,135,l),
(506,0,l),
(618,0,l),
(374,698,l),
(257,698,l)
);
},
{
closed = 1;
nodes = (
(197,196,l),
(198,226,l),
(179,226,l),
(197,226,l),
(243,361,o),
(290,496,o),
(323,636,c),
(329,636,l),
(309,636,l),
(316,610,o),
(327,583,o),
(327,555,cs),
(327,517,o),
(412,273,o),
(432,226,c),
(452,226,l),
(432,226,l),
(434,196,l)
);
}
);
width = 613;
}
);
leftKerningGroup = A2;
rightKerningGroup = A;
unicode = 197;
},
{
glyphname = Atilde;
layers = (
{
hints = (
{
horizontal = 1;
place = (21,-20);
target = down;
type = TopGhost;
},
{
horizontal = 1;
place = (154,79);
type = Stem;
},
{
horizontal = 1;
place = (679,-20);
target = down;
type = TopGhost;
},
{
horizontal = 1;
place = (758,50);
type = Stem;
},
{
horizontal = 1;
place = (758,101);
type = Stem;
},
{
horizontal = 1;
place = (822,48);
type = Stem;
},
{
place = (103,91);
type = Stem;
},
{
place = (384,92);
type = Stem;
}
);
layerId = "DFBB8FEE-91F3-4D9C-B726-DCD68A66B18F";
shapes = (
{
closed = 1;
nodes = (
(197,846,l),
(202,871,o),
(219,901,o),
(248,901,cs),
(258,901,o),
(269,898,o),
(275,890,c),
(286,888,o),
(292,878,o),
(301,872,c),
(304,872,l),
(303,873,l),
(301,873,l),
(306,870,l),
(316,870,l),
(301,870,l),
(300,869,l),
(303,868,o),
(306,865,o),
(309,863,cs),
(338,841,o),
(361,830,o),
(398,830,cs),
(444,830,o),
(497,846,o),
(497,901,c),
(432,901,l),
(432,896,o),
(433,890,o),
(430,885,c),
(450,885,l),
(429,885,l),
(424,874,o),
(408,843,o),
(394,843,cs),
(381,843,o),
(369,852,o),
(359,860,c),
(342,860,l),
(362,860,l),
(362,866,l),
(334,866,l),
(339,864,o),
(344,864,o),
(350,864,cs),
(360,864,l),
(356,872,l),
(335,872,l),
(338,872,l),
(336,872,l),
(348,872,l),
(340,879,l),
(341,879,l),
(326,887,l),
(317,887,l),
(329,887,l),
(307,909,o),
(273,913,o),
(243,913,cs),
(200,913,o),
(141,896,o),
(134,846,c)
);
},
{
closed = 1;
nodes = (
(12,0,l),
(126,0,l),
(169,136,l),
(167,150,l),
(164,150,l),
(465,150,l),
(462,135,l),
(506,0,l),
(618,0,l),
(374,698,l),
(257,698,l)
);
},
{
closed = 1;
nodes = (
(197,196,l),
(198,226,l),
(179,226,l),
(197,226,l),
(243,361,o),
(290,496,o),
(323,636,c),
(329,636,l),
(309,636,l),
(316,610,o),
(327,583,o),
(327,555,cs),
(327,517,o),
(412,273,o),
(432,226,c),
(452,226,l),
(432,226,l),
(434,196,l)
);
}
);
width = 613;
}
);
leftKerningGroup = A2;
rightKerningGroup = A;
unicode = 195;
},
{
glyphname = AE;
layers = (
{
hints = (
{
horizontal = 1;
place = (21,84);
type = Stem;
},
{
horizontal = 1;
place = (160,68);
type = Stem;
},
{
horizontal = 1;
place = (316,80);
type = Stem;
},
{
horizontal = 1;
place = (593,86);
type = Stem;
},
{
horizontal = 1;
place = (595,84);
type = Stem;
},
{
place = (444,145);
type = Stem;
}
);
layerId = "DFBB8FEE-91F3-4D9C-B726-DCD68A66B18F";
shapes = (
{
closed = 1;
nodes = (
(9,0,l),
(120,0,l),
(199,149,l),
(198,156,l),
(507,156,l),
(507,149,o),
(506,141,o),
(506,134,cs),
(506,0,l),
(882,0,l),
(882,52,l),
(617,52,l),
(617,332,l),
(875,332,l),
(875,380,l),
(617,380,l),
(617,387,o),
(618,395,o),
(618,402,cs),
(618,623,ls),
(618,631,o),
(617,638,o),
(617,646,c),
(596,646,l),
(880,646,l),
(880,698,l),
(416,698,l)
);
},
{
closed = 1;
nodes = (
(236,190,l),
(237,225,l),
(218,225,l),
(236,225,l),
(385,482,l),
(379,482,l),
(379,481,l),
(365,481,l),
(384,481,l),
(431,559,l),
(431,562,l),
(431,564,l),
(427,561,o),
(426,556,o),
(423,553,c),
(428,553,l),
(431,559,l),
(426,559,l),
(425,555,l),
(428,555,l),
(427,555,l),
(430,555,l),
(462,619,l),
(443,619,l),
(463,619,l),
(466,627,o),
(467,636,o),
(465,644,c),
(507,644,l),
(507,190,l)
);
}
);
width = 910;
}
);
leftKerningGroup = AE;
rightKerningGroup = E;
unicode = 198;
},
{
glyphname = uni01E2;
layers = (
{
hints = (
{
horizontal = 1;
place = (21,84);
type = Stem;
},
{
horizontal = 1;
place = (160,68);
type = Stem;
},
{
horizontal = 1;
place = (316,80);
type = Stem;
},
{
horizontal = 1;
place = (593,86);
type = Stem;
},
{
horizontal = 1;
place = (595,84);
type = Stem;
},
{
horizontal = 1;
place = (799,48);
type = Stem;
},
{
place = (61,311);
type = Stem;
},
{
place = (444,145);
type = Stem;
}
);
layerId = "DFBB8FEE-91F3-4D9C-B726-DCD68A66B18F";
shapes = (
{
closed = 1;
nodes = (
(425,875,l),
(700,875,l),
(700,887,l),
(425,887,l)
);
},
{
closed = 1;
nodes = (
(9,0,l),
(120,0,l),
(199,149,l),
(198,156,l),
(507,156,l),
(507,149,o),
(506,141,o),
(506,134,cs),
(506,0,l),
(882,0,l),
(882,52,l),
(617,52,l),
(617,332,l),
(875,332,l),
(875,380,l),
(617,380,l),
(617,387,o),
(618,395,o),
(618,402,cs),
(618,623,ls),
(618,631,o),
(617,638,o),
(617,646,c),
(596,646,l),
(880,646,l),
(880,698,l),
(416,698,l)
);
},
{
closed = 1;
nodes = (
(236,190,l),
(237,225,l),
(218,225,l),
(236,225,l),
(385,482,l),
(379,482,l),
(379,481,l),
(365,481,l),
(384,481,l),
(431,559,l),
(431,562,l),
(431,564,l),
(427,561,o),
(426,556,o),
(423,553,c),
(428,553,l),
(431,559,l),
(426,559,l),
(425,555,l),
(428,555,l),
(427,555,l),
(430,555,l),
(462,619,l),
(443,619,l),
(463,619,l),
(466,627,o),
(467,636,o),
(465,644,c),
(507,644,l),
(507,190,l)
);
}
);
width = 910;
}
);
leftKerningGroup = AE;
rightKerningGroup = E;
unicode = 482;
},
{
glyphname = B;
layers = (
{
hints = (
{
horizontal = 1;
place = (21,84);
type = Stem;
},
{
horizontal = 1;
place = (318,72);
type = Stem;
},
{
horizontal = 1;
place = (596,83);
type = Stem;
},
{
place = (45,145);
type = Stem;
},
{
place = (335,147);
type = Stem;
},
{
place = (223,147);
type = Stem;
}
);
layerId = "DFBB8FEE-91F3-4D9C-B726-DCD68A66B18F";
shapes = (
{
closed = 1;
nodes = (
(319,357,l),
(341,368,o),
(366,376,o),
(386,390,cs),
(427,419,o),
(448,487,o),
(448,535,cs),
(448,632,o),
(378,697,o),
(282,698,cs),
(117,700,l),
(121,0,l),
(307,0,ls),
(410,0,o),
(472,96,o),
(472,191,cs),
(472,248,o),
(454,305,o),
(397,328,cs),
(372,338,o),
(344,338,o),
(320,350,c)
);
},
{
closed = 1;
nodes = (
(176,373,l),
(177,381,o),
(178,388,o),
(178,396,cs),
(178,624,ls),
(178,632,o),
(177,639,o),
(176,647,c),
(156,647,l),
(268,647,ls),
(352,647,o),
(381,579,o),
(381,505,cs),
(381,428,o),
(352,373,o),
(268,373,cs)
);
},
{
closed = 1;
nodes = (
(176,52,l),
(180,77,o),
(181,103,o),
(181,128,cs),
(181,258,ls),
(181,283,o),
(180,309,o),
(176,334,c),
(293,334,ls),
(378,334,o),
(419,270,o),
(419,191,cs),
(419,111,o),
(378,52,o),
(293,52,cs)
);
}
);
width = 554;
}
);
leftKerningGroup = B;
unicode = 66;
},
{
glyphname = C;
layers = (
{
hints = (
{
horizontal = 1;
place = (8,88);
type = Stem;
},
{
horizontal = 1;
place = (604,88);
type = Stem;
},
{
place = (-126,150);
type = Stem;
}
);
layerId = "DFBB8FEE-91F3-4D9C-B726-DCD68A66B18F";
shapes = (
{
closed = 1;
nodes = (
(543,122,l),
(503,68,o),
(436,35,o),
(369,35,cs),
(208,35,o),
(138,211,o),
(138,348,cs),
(138,482,o),
(207,663,o),
(366,663,cs),
(433,663,o),
(499,631,o),
(540,578,c),
(597,639,l),
(553,697,o),
(474,713,o),
(405,713,cs),
(201,713,o),
(68,548,o),
(68,352,cs),
(68,156,o),
(202,-15,o),
(407,-15,cs),
(478,-15,o),
(558,4,o),
(606,60,c)
);
}
);
width = 624;
}
);
leftKerningGroup = C2;
rightKerningGroup = C;
unicode = 67;
},
{
glyphname = Cacute;
layers = (
{
hints = (
{
horizontal = 1;
place = (8,88);
type = Stem;
},
{
horizontal = 1;
place = (604,88);
type = Stem;
},
{
horizontal = 1;
place = (767,132);
type = Stem;
},
{
place = (-126,150);
type = Stem;
}
);
layerId = "DFBB8FEE-91F3-4D9C-B726-DCD68A66B18F";
shapes = (
{
closed = 1;
nodes = (
(360,839,l),
(431,839,l),
(476,946,l),
(384,946,l)
);
},
{
closed = 1;
nodes = (
(543,122,l),
(505,72,o),
(443,42,o),
(380,42,cs),
(226,42,o),
(163,219,o),
(163,348,cs),
(163,476,o),
(225,656,o),
(379,656,cs),
(441,656,o),
(501,625,o),
(540,578,c),
(597,639,l),
(551,699,o),
(466,713,o),
(395,713,cs),
(188,713,o),
(42,556,o),
(42,352,cs),
(42,148,o),
(189,-15,o),
(397,-15,cs),
(471,-15,o),
(553,4,o),
(606,60,c)
);
}
);
width = 624;
}
);
leftKerningGroup = C2;
rightKerningGroup = C;
unicode = 262;
},
{
glyphname = Ccaron;
layers = (
{
hints = (
{
horizontal = 1;
place = (8,88);
type = Stem;
},
{
horizontal = 1;
place = (604,88);
type = Stem;
},
{
horizontal = 1;
place = (767,132);
type = Stem;
},
{
place = (-126,150);
type = Stem;
}
);
layerId = "DFBB8FEE-91F3-4D9C-B726-DCD68A66B18F";
shapes = (
{
closed = 1;
nodes = (
(330,839,l),
(440,839,l),
(492,946,l),
(419,946,l),
(379,842,l),
(374,842,l),
(392,842,l),
(351,946,l),
(276,946,l)
);
},
{
closed = 1;
nodes = (
(543,122,l),
(505,72,o),
(443,42,o),
(380,42,cs),
(226,42,o),
(163,219,o),
(163,348,cs),
(163,476,o),
(225,656,o),
(379,656,cs),
(441,656,o),
(501,625,o),
(540,578,c),
(597,639,l),
(551,699,o),
(466,713,o),
(395,713,cs),
(188,713,o),
(42,556,o),
(42,352,cs),
(42,148,o),
(189,-15,o),
(397,-15,cs),
(471,-15,o),
(553,4,o),
(606,60,c)
);
}
);
width = 624;
}
);
leftKerningGroup = C2;
rightKerningGroup = C;
unicode = 268;
},
{
glyphname = Ccedilla;
layers = (
{
hints = (
{
horizontal = 1;
place = (-192,31);
type = Stem;
},
{
horizontal = 1;
place = (8,88);
type = Stem;
},
{
horizontal = 1;
place = (604,88);
type = Stem;
},
{
place = (-126,150);
type = Stem;
},
{
place = (266,84);
type = Stem;
}
);
layerId = "DFBB8FEE-91F3-4D9C-B726-DCD68A66B18F";
shapes = (
{
closed = 1;
nodes = (
(307,-237,l),
(319,-239,o),
(330,-239,o),
(342,-239,cs),
(377,-239,o),
(453,-233,o),
(453,-184,cs),
(453,-149,o),
(422,-140,o),
(394,-132,c),
(393,-132,l),
(397,-132,l),
(389,-129,o),
(381,-129,o),
(373,-129,c),
(392,-129,l),
(393,-98,l),
(374,-98,l),
(393,-98,l),
(422,-25,l),
(421,-14,l),
(401,-14,l),
(469,-14,o),
(559,8,o),
(606,60,c),
(543,122,l),
(505,72,o),
(443,42,o),
(380,42,cs),
(226,42,o),
(163,219,o),
(163,348,cs),
(163,476,o),
(225,656,o),
(379,656,cs),
(440,656,o),
(502,625,o),
(540,578,c),
(597,639,l),
(554,696,o),
(462,713,o),
(395,713,cs),
(188,713,o),
(42,556,o),
(42,352,cs),
(42,137,o),
(195,-21,o),
(412,-16,c),
(394,-16,l),
(391,-47,l),
(411,-47,l),
(391,-47,l),
(371,-101,l),
(395,-113,o),
(397,-144,o),
(397,-168,cs),
(397,-190,o),
(390,-247,o),
(359,-247,cs),
(350,-247,o),
(340,-242,o),
(333,-237,c)
);
}
);
width = 624;
}
);
leftKerningGroup = C2;
rightKerningGroup = C;
unicode = 199;
},
{
glyphname = Ccircumflex;
layers = (
{
hints = (
{
horizontal = 1;
place = (8,88);
type = Stem;
},
{
horizontal = 1;
place = (604,88);
type = Stem;
},
{
horizontal = 1;
place = (767,132);
type = Stem;
},
{
place = (-126,150);
type = Stem;
}
);
layerId = "DFBB8FEE-91F3-4D9C-B726-DCD68A66B18F";
shapes = (
{
closed = 1;
nodes = (
(276,839,l),
(351,839,l),
(392,943,l),
(397,943,l),
(379,943,l),
(419,839,l),
(492,839,l),
(440,946,l),
(330,946,l)
);
},
{
closed = 1;
nodes = (
(543,122,l),
(505,72,o),
(443,42,o),
(380,42,cs),
(226,42,o),
(163,219,o),
(163,348,cs),
(163,476,o),
(225,656,o),
(379,656,cs),
(441,656,o),
(501,625,o),
(540,578,c),
(597,639,l),
(551,699,o),
(466,713,o),
(395,713,cs),
(188,713,o),
(42,556,o),
(42,352,cs),
(42,148,o),
(189,-15,o),
(397,-15,cs),
(471,-15,o),
(553,4,o),
(606,60,c)
);
}
);
width = 624;
}
);
leftKerningGroup = C2;
rightKerningGroup = C;
unicode = 264;
},
{
glyphname = Cdotaccent;
layers = (
{
hints = (
{
horizontal = 1;
place = (8,88);
type = Stem;
},
{
horizontal = 1;
place = (604,88);
type = Stem;
},
{
horizontal = 1;
place = (764,117);
type = Stem;
},
{
place = (-126,150);
type = Stem;
},
{
place = (276,167);
type = Stem;
}
);
layerId = "DFBB8FEE-91F3-4D9C-B726-DCD68A66B18F";
shapes = (
{
closed = 1;
nodes = (
(318,848,o),
(360,836,o),
(387,836,cs),
(413,836,o),
(453,848,o),
(453,880,cs),
(453,912,o),
(412,925,o),
(386,925,cs),
(360,925,o),
(318,913,o),
(318,881,cs)
);
},
{
closed = 1;
nodes = (
(543,122,l),
(505,72,o),
(443,42,o),
(380,42,cs),
(226,42,o),
(163,219,o),
(163,348,cs),
(163,476,o),
(225,656,o),
(379,656,cs),
(441,656,o),
(501,625,o),
(540,578,c),
(597,639,l),
(551,699,o),
(466,713,o),
(395,713,cs),
(188,713,o),
(42,556,o),
(42,352,cs),
(42,148,o),
(189,-15,o),
(397,-15,cs),
(471,-15,o),
(553,4,o),
(606,60,c)
);
}
);
width = 624;
}
);
leftKerningGroup = C2;
rightKerningGroup = C;
unicode = 266;
},
{
glyphname = D;
layers = (
{
hints = (
{
horizontal = 1;
place = (21,84);
type = Stem;
},
{
horizontal = 1;
place = (595,84);
type = Stem;
},
{
place = (45,145);
type = Stem;
},
{
place = (306,150);
type = Stem;
}
);
layerId = "DFBB8FEE-91F3-4D9C-B726-DCD68A66B18F";
shapes = (
{
closed = 1;
nodes = (
(176,50,l),
(156,73,l),
(156,623,l),
(176,646,l),
(156,646,l),
(288,646,ls),
(467,646,o),
(538,507,o),
(538,346,cs),
(538,183,o),
(467,50,o),
(287,50,cs)
);
},
{
closed = 1;
nodes = (
(86,0,l),
(299,0,ls),
(511,0,o),
(608,150,o),
(608,348,cs),
(608,545,o),
(510,696,o),
(299,696,cs),
(86,696,l)
);
}
);
width = 657;
}
);
leftKerningGroup = B;
rightKerningGroup = D;
unicode = 68;
},
{
glyphname = Eth;
layers = (
{
hints = (
{
horizontal = 1;
place = (21,84);
type = Stem;
},
{
horizontal = 1;
place = (312,76);
type = Stem;
},
{
horizontal = 1;
place = (595,84);
type = Stem;
},
{
place = (90,145);
type = Stem;
},
{
place = (351,150);
type = Stem;
}
);
layerId = "DFBB8FEE-91F3-4D9C-B726-DCD68A66B18F";
shapes = (
{
closed = 1;
nodes = (
(114,0,l),
(346,0,ls),
(563,0,o),
(683,136,o),
(683,349,cs),
(683,562,o),
(563,698,o),
(346,698,cs),
(114,698,l),
(114,393,ls),
(114,385,o),
(115,378,o),
(115,370,c),
(135,370,l),
(23,370,l),
(23,328,l),
(115,328,l),
(115,320,o),
(114,313,o),
(114,305,cs)
);
},
{
closed = 1;
nodes = (
(228,52,l),
(230,144,o),
(230,236,o),
(228,328,c),
(370,328,l),
(370,370,l),
(228,370,l),
(228,378,o),
(229,385,o),
(229,393,cs),
(229,623,ls),
(229,631,o),
(228,638,o),
(228,646,c),
(225,646,l),
(329,646,ls),
(504,646,o),
(563,499,o),
(563,347,cs),
(563,194,o),
(504,52,o),
(329,52,cs)
);
}
);
width = 706;
}
);
leftKerningGroup = Eth;
rightKerningGroup = D;
unicode = 208;
},
{
glyphname = Dcaron;
layers = (
{
hints = (
{
horizontal = 1;
place = (21,84);
type = Stem;
},
{
horizontal = 1;
place = (595,84);
type = Stem;
},
{
horizontal = 1;
place = (767,132);
type = Stem;
},
{
place = (45,145);
type = Stem;
},
{
place = (306,150);
type = Stem;
}
);
layerId = "DFBB8FEE-91F3-4D9C-B726-DCD68A66B18F";
shapes = (
{
closed = 1;
nodes = (
(268,839,l),
(375,839,l),
(428,946,l),
(355,946,l),
(315,842,l),
(309,842,l),
(328,842,l),
(288,946,l),
(215,946,l)
);
},
{
closed = 1;
nodes = (
(64,0,l),
(296,0,ls),
(513,0,o),
(633,136,o),
(633,349,cs),
(633,562,o),
(513,698,o),
(296,698,cs),
(64,698,l)
);
},
{
closed = 1;
nodes = (
(176,52,l),
(177,60,o),
(178,67,o),
(178,75,cs),
(178,623,ls),
(178,631,o),
(177,638,o),
(176,646,c),
(156,646,l),
(279,646,ls),
(453,646,o),
(513,498,o),
(513,347,cs),
(513,194,o),
(453,52,o),
(279,52,cs)
);
}
);
width = 657;
}
);
leftKerningGroup = B;
rightKerningGroup = D;
unicode = 270;
},
{
glyphname = Dcroat;
layers = (
{
hints = (
{
horizontal = 1;
place = (21,84);
type = Stem;
},
{
horizontal = 1;
place = (312,76);
type = Stem;
},
{
horizontal = 1;
place = (595,84);
type = Stem;
},
{
place = (90,145);
type = Stem;
},
{
place = (351,150);
type = Stem;
}
);
layerId = "DFBB8FEE-91F3-4D9C-B726-DCD68A66B18F";
shapes = (
{
closed = 1;
nodes = (
(114,0,l),
(346,0,ls),
(563,0,o),
(683,136,o),
(683,349,cs),
(683,562,o),
(563,698,o),
(346,698,cs),
(114,698,l),
(114,393,ls),
(114,385,o),
(115,378,o),
(115,370,c),
(135,370,l),
(23,370,l),
(23,328,l),
(115,328,l),
(115,320,o),
(114,313,o),
(114,305,cs)
);
},
{
closed = 1;
nodes = (
(228,52,l),
(230,144,o),
(230,236,o),
(228,328,c),
(370,328,l),
(370,370,l),
(228,370,l),
(228,378,o),
(229,385,o),
(229,393,cs),
(229,623,ls),
(229,631,o),
(228,638,o),
(228,646,c),
(225,646,l),
(329,646,ls),
(504,646,o),
(563,499,o),
(563,347,cs),
(563,194,o),
(504,52,o),
(329,52,cs)
);
}
);
width = 706;
}
);
leftKerningGroup = Eth;
rightKerningGroup = D;
unicode = 272;
},
{
glyphname = uni1E0C;
layers = (
{
hints = (
{
horizontal = 1;
place = (-192,117);
type = Stem;
},
{
horizontal = 1;
place = (21,84);
type = Stem;
},
{
horizontal = 1;
place = (595,84);
type = Stem;
},
{
place = (45,145);
type = Stem;
},
{
place = (36,167);
type = Stem;
},
{
place = (306,150);
type = Stem;
}
);
layerId = "DFBB8FEE-91F3-4D9C-B726-DCD68A66B18F";
shapes = (
{
closed = 1;
nodes = (
(237,-228,o),
(280,-239,o),
(306,-239,cs),
(332,-239,o),
(373,-228,o),
(373,-196,cs),
(373,-164,o),
(330,-150,o),
(304,-150,cs),
(278,-150,o),
(237,-163,o),
(237,-195,cs)
);
},
{
closed = 1;
nodes = (
(64,0,l),
(296,0,ls),
(513,0,o),
(633,136,o),
(633,349,cs),
(633,562,o),
(513,698,o),
(296,698,cs),
(64,698,l)
);
},
{
closed = 1;
nodes = (
(176,52,l),
(177,60,o),
(178,67,o),
(178,75,cs),
(178,623,ls),
(178,631,o),
(177,638,o),
(176,646,c),
(156,646,l),
(279,646,ls),
(453,646,o),
(513,498,o),
(513,347,cs),
(513,194,o),
(453,52,o),
(279,52,cs)
);
}
);
width = 657;
}
);
leftKerningGroup = B;
rightKerningGroup = D;
unicode = 7692;
},
{
glyphname = E;
layers = (
{
hints = (
{
horizontal = 1;
place = (21,84);
type = Stem;
},
{
horizontal = 1;
place = (316,80);
type = Stem;
},
{
horizontal = 1;
place = (595,84);
type = Stem;
},
{
place = (45,145);
type = Stem;
}
);
layerId = "DFBB8FEE-91F3-4D9C-B726-DCD68A66B18F";
shapes = (
{
closed = 1;
nodes = (
(86,0,l),
(442,0,l),
(442,50,l),
(176,50,l),
(156,73,l),
(156,310,l),
(176,332,l),
(434,332,l),
(434,382,l),
(176,382,l),
(156,404,l),
(156,623,l),
(176,646,l),
(156,646,l),
(440,646,l),
(440,696,l),
(86,696,l)
);
}
);
width = 485;
}
);
leftKerningGroup = B;
rightKerningGroup = E;
unicode = 69;
},
{
glyphname = Eacute;
layers = (
{
hints = (
{
horizontal = 1;
place = (21,84);
type = Stem;
},
{
horizontal = 1;
place = (316,80);
type = Stem;
},
{
horizontal = 1;
place = (595,84);
type = Stem;
},
{
horizontal = 1;
place = (767,132);
type = Stem;
},
{
place = (45,145);
type = Stem;
}
);
layerId = "DFBB8FEE-91F3-4D9C-B726-DCD68A66B18F";
shapes = (
{
closed = 1;
nodes = (
(231,839,l),
(301,839,l),
(348,946,l),
(255,946,l)
);
},
{
closed = 1;
nodes = (
(64,0,l),
(442,0,l),
(442,52,l),
(176,52,l),
(180,77,o),
(181,102,o),
(181,127,cs),
(181,257,ls),
(181,282,o),
(180,307,o),
(176,332,c),
(434,332,l),
(434,380,l),
(176,380,l),
(177,387,o),
(178,395,o),
(178,402,cs),
(178,623,ls),
(178,631,o),
(177,638,o),
(176,646,c),
(156,646,l),
(440,646,l),
(440,698,l),
(64,698,l)
);
}
);
width = 485;
}
);
leftKerningGroup = B;
rightKerningGroup = E;
unicode = 201;
},
{
glyphname = Ecaron;
layers = (
{
hints = (
{
horizontal = 1;
place = (21,84);
type = Stem;
},
{
horizontal = 1;
place = (316,80);
type = Stem;
},
{
horizontal = 1;
place = (595,84);
type = Stem;
},
{
horizontal = 1;
place = (767,132);
type = Stem;
},
{
place = (45,145);
type = Stem;
}
);
layerId = "DFBB8FEE-91F3-4D9C-B726-DCD68A66B18F";
shapes = (
{
closed = 1;
nodes = (
(203,839,l),
(311,839,l),
(363,946,l),
(290,946,l),
(251,842,l),
(245,842,l),
(263,842,l),
(223,946,l),
(150,946,l)
);
},
{
closed = 1;
nodes = (
(64,0,l),
(442,0,l),
(442,52,l),
(176,52,l),
(180,77,o),
(181,102,o),
(181,127,cs),
(181,257,ls),
(181,282,o),
(180,307,o),
(176,332,c),
(434,332,l),
(434,380,l),
(176,380,l),
(177,387,o),
(178,395,o),
(178,402,cs),
(178,623,ls),
(178,631,o),
(177,638,o),
(176,646,c),
(156,646,l),
(440,646,l),
(440,698,l),
(64,698,l)
);
}
);
width = 485;
}
);
leftKerningGroup = B;
rightKerningGroup = E;
unicode = 282;
},
{
glyphname = Ecircumflex;
layers = (
{
hints = (
{
horizontal = 1;
place = (21,84);
type = Stem;
},
{
horizontal = 1;
place = (316,80);
type = Stem;
},
{
horizontal = 1;
place = (595,84);
type = Stem;
},
{
horizontal = 1;
place = (767,132);
type = Stem;
},
{
place = (45,145);
type = Stem;
}
);
layerId = "DFBB8FEE-91F3-4D9C-B726-DCD68A66B18F";
shapes = (
{
closed = 1;
nodes = (
(150,839,l),
(223,839,l),
(263,943,l),
(268,943,l),
(251,943,l),
(290,839,l),
(363,839,l),
(311,946,l),
(203,946,l)
);
},
{
closed = 1;
nodes = (
(64,0,l),
(442,0,l),
(442,52,l),
(176,52,l),
(180,77,o),
(181,102,o),
(181,127,cs),
(181,257,ls),
(181,282,o),
(180,307,o),
(176,332,c),
(434,332,l),
(434,380,l),
(176,380,l),
(177,387,o),
(178,395,o),
(178,402,cs),
(178,623,ls),
(178,631,o),
(177,638,o),
(176,646,c),
(156,646,l),
(440,646,l),
(440,698,l),
(64,698,l)
);
}
);
width = 485;
}
);
leftKerningGroup = B;
rightKerningGroup = E;
unicode = 202;
},
{
glyphname = uni1EBE;
layers = (
{
hints = (
{
horizontal = 1;
place = (21,84);
type = Stem;
},
{
horizontal = 1;
place = (316,80);
type = Stem;
},
{
horizontal = 1;
place = (595,84);
type = Stem;
},
{
horizontal = 1;
place = (767,132);
type = Stem;
},
{
horizontal = 1;
place = (869,30);
type = Stem;
},
{
horizontal = 1;
place = (869,132);
type = Stem;
},
{
place = (45,145);
type = Stem;
}
);
layerId = "DFBB8FEE-91F3-4D9C-B726-DCD68A66B18F";
shapes = (
{
closed = 1;
nodes = (
(385,954,l),
(453,954,l),
(501,1060,l),
(408,1060,l)
);
},
{
closed = 1;
nodes = (
(150,839,l),
(223,839,l),
(263,943,l),
(268,943,l),
(251,943,l),
(290,839,l),
(363,839,l),
(311,946,l),
(203,946,l)
);
},
{
closed = 1;
nodes = (
(64,0,l),
(442,0,l),
(442,52,l),
(176,52,l),
(180,77,o),
(181,102,o),
(181,127,cs),
(181,257,ls),
(181,282,o),
(180,307,o),
(176,332,c),
(434,332,l),
(434,380,l),
(176,380,l),
(177,387,o),
(178,395,o),
(178,402,cs),
(178,623,ls),
(178,631,o),
(177,638,o),
(176,646,c),
(156,646,l),
(440,646,l),
(440,698,l),
(64,698,l)
);
}
);
width = 475;
}
);
leftKerningGroup = B;
rightKerningGroup = E;
unicode = 7870;
},
{
glyphname = uni1EC6;
layers = (
{
hints = (
{
horizontal = 1;
place = (-192,117);
type = Stem;
},
{
horizontal = 1;
place = (21,84);
type = Stem;
},
{
horizontal = 1;
place = (316,80);
type = Stem;
},
{
horizontal = 1;
place = (595,84);
type = Stem;
},
{
horizontal = 1;
place = (767,132);
type = Stem;
},
{
place = (45,145);
type = Stem;
},
{
place = (168,167);
type = Stem;
}
);
layerId = "DFBB8FEE-91F3-4D9C-B726-DCD68A66B18F";
shapes = (
{
closed = 1;
nodes = (
(198,-228,o),
(241,-239,o),
(267,-239,cs),
(293,-239,o),
(334,-228,o),
(334,-196,cs),
(334,-164,o),
(292,-150,o),
(266,-150,cs),
(240,-150,o),
(198,-163,o),
(198,-195,cs)
);
},
{
closed = 1;
nodes = (
(150,839,l),
(223,839,l),
(263,943,l),
(268,943,l),
(251,943,l),
(290,839,l),
(363,839,l),
(311,946,l),
(203,946,l)
);
},
{
closed = 1;
nodes = (
(64,0,l),
(442,0,l),
(442,52,l),
(176,52,l),
(180,77,o),
(181,102,o),
(181,127,cs),
(181,257,ls),
(181,282,o),
(180,307,o),
(176,332,c),
(434,332,l),
(434,380,l),
(176,380,l),
(177,387,o),
(178,395,o),
(178,402,cs),
(178,623,ls),
(178,631,o),
(177,638,o),
(176,646,c),
(156,646,l),
(440,646,l),
(440,698,l),
(64,698,l)
);
}
);
width = 485;
}
);
leftKerningGroup = B;
rightKerningGroup = E;
unicode = 7878;
},
{
glyphname = uni1EC0;
layers = (
{
hints = (
{
horizontal = 1;
place = (21,84);
type = Stem;
},
{
horizontal = 1;
place = (316,80);
type = Stem;
},
{
horizontal = 1;
place = (595,84);
type = Stem;
},
{
horizontal = 1;
place = (767,132);
type = Stem;
},
{
horizontal = 1;
place = (869,30);
type = Stem;
},
{
horizontal = 1;
place = (869,132);
type = Stem;
},
{
place = (-114,145);
type = Stem;
}
);
layerId = "DFBB8FEE-91F3-4D9C-B726-DCD68A66B18F";
shapes = (
{
closed = 1;
nodes = (
(139,839,l),
(212,839,l),
(252,943,l),
(258,943,l),
(241,943,l),
(279,839,l),
(353,839,l),
(300,946,l),
(192,946,l)
);
},
{
closed = 1;
nodes = (
(53,954,l),
(128,954,l),
(109,1060,l),
(1,1060,l)
);
},
{
closed = 1;
nodes = (
(53,0,l),
(431,0,l),
(431,52,l),
(166,52,l),
(166,60,o),
(167,67,o),
(167,75,cs),
(167,310,ls),
(167,317,o),
(166,325,o),
(166,332,c),
(164,332,l),
(424,332,l),
(424,380,l),
(166,380,l),
(166,387,o),
(167,395,o),
(167,402,cs),
(167,623,ls),
(167,631,o),
(166,638,o),
(166,646,c),
(164,646,l),
(430,646,l),
(430,698,l),
(53,698,l)
);
}
);
width = 471;
}
);
leftKerningGroup = B;
rightKerningGroup = E;
unicode = 7872;
},
{
glyphname = uni1EC2;
layers = (
{
hints = (
{
horizontal = 1;
place = (21,84);
type = Stem;
},
{
horizontal = 1;
place = (316,80);
type = Stem;
},
{
horizontal = 1;
place = (595,84);
type = Stem;
},
{
horizontal = 1;
place = (767,132);
type = Stem;
},
{
horizontal = 1;
place = (950,33);
type = Stem;
},
{
horizontal = 1;
place = (1052,66);
type = Stem;
},
{
horizontal = 1;
place = (1082,36);
type = Stem;
},
{
place = (45,145);
type = Stem;
},
{
place = (37,89);
type = Stem;
},
{
place = (250,92);
type = Stem;
}
);
layerId = "DFBB8FEE-91F3-4D9C-B726-DCD68A66B18F";
shapes = (
{
closed = 1;
nodes = (
(238,1048,l),
(218,1048,l),
(229,1048,l),
(237,1045,o),
(245,1045,o),
(253,1045,cs),
(299,1045,o),
(352,1064,o),
(352,1118,cs),
(352,1175,o),
(293,1192,o),
(246,1192,cs),
(221,1192,o),
(170,1187,o),
(160,1160,c),
(220,1160,l),
(224,1174,o),
(235,1194,o),
(252,1194,cs),
(280,1194,o),
(287,1135,o),
(287,1115,cs),
(287,1091,o),
(280,1040,o),
(248,1040,cs),
(238,1040,o),
(228,1044,o),
(218,1043,c),
(237,1043,l)
);
},
{
closed = 1;
nodes = (
(150,839,l),
(223,839,l),
(263,943,l),
(268,943,l),
(251,943,l),
(290,839,l),
(363,839,l),
(311,946,l),
(203,946,l)
);
},
{
closed = 1;
nodes = (
(64,0,l),
(442,0,l),
(442,52,l),
(176,52,l),
(180,77,o),
(181,102,o),
(181,127,cs),
(181,257,ls),
(181,282,o),
(180,307,o),
(176,332,c),
(434,332,l),
(434,380,l),
(176,380,l),
(177,387,o),
(178,395,o),
(178,402,cs),
(178,623,ls),
(178,631,o),
(177,638,o),
(176,646,c),
(156,646,l),
(440,646,l),
(440,698,l),
(64,698,l)
);
}
);
width = 485;
}
);
leftKerningGroup = B;
rightKerningGroup = E;
unicode = 7874;
},
{
glyphname = uni1EC4;
layers = (
{
hints = (
{
horizontal = 1;
place = (21,84);
type = Stem;
},
{
horizontal = 1;
place = (316,80);
type = Stem;
},
{
horizontal = 1;
place = (595,84);
type = Stem;
},
{
horizontal = 1;
place = (767,132);
type = Stem;
},
{
horizontal = 1;
place = (950,50);
type = Stem;
},
{
horizontal = 1;
place = (950,101);
type = Stem;
},
{
horizontal = 1;
place = (1014,48);
type = Stem;
},
{
place = (45,145);
type = Stem;
},
{
place = (52,91);
type = Stem;
},
{
place = (241,92);
type = Stem;
}
);
layerId = "DFBB8FEE-91F3-4D9C-B726-DCD68A66B18F";
shapes = (
{
closed = 1;
nodes = (
(150,839,l),
(223,839,l),
(263,943,l),
(268,943,l),
(251,943,l),
(290,839,l),
(363,839,l),
(311,946,l),
(203,946,l)
);
},
{
closed = 1;
nodes = (
(139,1061,l),
(144,1083,o),
(160,1118,o),
(187,1118,cs),
(203,1118,o),
(229,1100,o),
(240,1089,c),
(252,1089,l),
(243,1089,l),
(240,1091,l),
(241,1085,l),
(249,1085,o),
(256,1085,o),
(264,1084,c),
(265,1085,l),
(264,1085,l),
(262,1086,l),
(254,1086,l),
(257,1086,l),
(243,1086,l),
(242,1085,l),
(269,1058,o),
(307,1045,o),
(345,1045,cs),
(390,1045,o),
(436,1067,o),
(438,1117,c),
(374,1117,l),
(374,1112,o),
(374,1106,o),
(371,1101,c),
(390,1101,l),
(371,1101,l),
(366,1090,o),
(349,1059,o),
(335,1059,cs),
(323,1059,o),
(309,1072,o),
(298,1077,c),
(290,1077,l),
(297,1077,l),
(293,1083,o),
(288,1088,o),
(283,1093,c),
(270,1093,l),
(284,1093,l),
(279,1096,o),
(274,1100,o),
(269,1103,c),
(258,1103,l),
(269,1103,l),
(252,1123,o),
(211,1128,o),
(186,1128,cs),
(143,1128,o),
(81,1112,o),
(75,1061,c)
);
},
{
closed = 1;
nodes = (
(64,0,l),
(442,0,l),
(442,52,l),
(176,52,l),
(180,77,o),
(181,102,o),
(181,127,cs),
(181,257,ls),
(181,282,o),
(180,307,o),
(176,332,c),
(434,332,l),
(434,380,l),
(176,380,l),
(177,387,o),
(178,395,o),
(178,402,cs),
(178,623,ls),
(178,631,o),
(177,638,o),
(176,646,c),
(156,646,l),
(440,646,l),
(440,698,l),
(64,698,l)
);
}
);
width = 485;
}
);
leftKerningGroup = B;
rightKerningGroup = E;
unicode = 7876;
},
{
glyphname = Edieresis;
layers = (
{
hints = (
{
horizontal = 1;
place = (21,84);
type = Stem;
},
{
horizontal = 1;
place = (316,80);
type = Stem;
},
{
horizontal = 1;
place = (595,84);
type = Stem;
},
{
horizontal = 1;
place = (764,117);
type = Stem;
},
{
place = (45,145);
type = Stem;
},
{
place = (65,167);
type = Stem;
},
{
place = (253,167);
type = Stem;
}
);
layerId = "DFBB8FEE-91F3-4D9C-B726-DCD68A66B18F";
shapes = (
{
closed = 1;
nodes = (
(290,848,o),
(335,836,o),
(361,836,cs),
(387,836,o),
(428,848,o),
(428,880,cs),
(428,913,o),
(387,925,o),
(360,925,cs),
(334,925,o),
(290,913,o),
(290,881,cs)
);
},
{
closed = 1;
nodes = (
(85,848,o),
(129,836,o),
(155,836,cs),
(181,836,o),
(222,848,o),
(222,880,cs),
(222,912,o),
(180,925,o),
(154,925,cs),
(128,925,o),
(85,913,o),
(85,881,cs)
);
},
{
closed = 1;
nodes = (
(64,0,l),
(442,0,l),
(442,52,l),
(176,52,l),
(180,77,o),
(181,102,o),
(181,127,cs),
(181,257,ls),
(181,282,o),
(180,307,o),
(176,332,c),
(434,332,l),
(434,380,l),
(176,380,l),
(177,387,o),
(178,395,o),
(178,402,cs),
(178,623,ls),
(178,631,o),
(177,638,o),
(176,646,c),
(156,646,l),
(440,646,l),
(440,698,l),
(64,698,l)
);
}
);
width = 485;
}
);
leftKerningGroup = B;
rightKerningGroup = E;
unicode = 203;
},
{
glyphname = Edotaccent;
layers = (
{
hints = (
{
horizontal = 1;
place = (21,84);
type = Stem;
},
{
horizontal = 1;
place = (316,80);
type = Stem;
},
{
horizontal = 1;
place = (595,84);
type = Stem;
},
{
horizontal = 1;
place = (764,117);
type = Stem;
},
{
place = (45,145);
type = Stem;
},
{
place = (159,167);
type = Stem;
}
);
layerId = "DFBB8FEE-91F3-4D9C-B726-DCD68A66B18F";
shapes = (
{
closed = 1;
nodes = (
(187,849,o),
(231,836,o),
(257,836,cs),
(283,836,o),
(325,849,o),
(325,881,cs),
(325,913,o),
(282,925,o),
(256,925,cs),
(230,925,o),
(187,913,o),
(187,881,cs)
);
},
{
closed = 1;
nodes = (
(64,0,l),
(442,0,l),
(442,52,l),
(176,52,l),
(180,77,o),
(181,102,o),
(181,127,cs),
(181,257,ls),
(181,282,o),
(180,307,o),
(176,332,c),
(434,332,l),
(434,380,l),
(176,380,l),
(177,387,o),
(178,395,o),
(178,402,cs),
(178,623,ls),
(178,631,o),
(177,638,o),
(176,646,c),
(156,646,l),
(440,646,l),
(440,698,l),
(64,698,l)
);
}
);
width = 485;
}
);
leftKerningGroup = B;
rightKerningGroup = E;
unicode = 278;
},
{
glyphname = uni1EB8;
layers = (
{
hints = (
{
horizontal = 1;
place = (-192,117);
type = Stem;
},
{
horizontal = 1;
place = (21,84);
type = Stem;
},
{
horizontal = 1;
place = (316,80);
type = Stem;
},
{
horizontal = 1;
place = (595,84);
type = Stem;
},
{
place = (45,145);
type = Stem;
},
{
place = (168,167);
type = Stem;
}
);
layerId = "DFBB8FEE-91F3-4D9C-B726-DCD68A66B18F";
shapes = (
{
closed = 1;
nodes = (
(198,-228,o),
(241,-239,o),
(267,-239,cs),
(293,-239,o),
(334,-228,o),
(334,-196,cs),
(334,-164,o),
(292,-150,o),
(266,-150,cs),
(240,-150,o),
(198,-163,o),
(198,-195,cs)
);
},
{
closed = 1;
nodes = (
(64,0,l),
(442,0,l),
(442,52,l),
(176,52,l),
(180,77,o),
(181,102,o),
(181,127,cs),
(181,257,ls),
(181,282,o),
(180,307,o),
(176,332,c),
(434,332,l),
(434,380,l),
(176,380,l),
(177,387,o),
(178,395,o),
(178,402,cs),
(178,623,ls),
(178,631,o),
(177,638,o),
(176,646,c),
(156,646,l),
(440,646,l),
(440,698,l),
(64,698,l)
);
}
);
width = 485;
}
);
leftKerningGroup = B;
rightKerningGroup = E;
unicode = 7864;
},
{
glyphname = Egrave;
layers = (
{
hints = (
{
horizontal = 1;
place = (21,84);
type = Stem;
},
{
horizontal = 1;
place = (316,80);
type = Stem;
},
{
horizontal = 1;
place = (595,84);
type = Stem;
},
{
horizontal = 1;
place = (767,132);
type = Stem;
},
{
place = (45,145);
type = Stem;
}
);
layerId = "DFBB8FEE-91F3-4D9C-B726-DCD68A66B18F";
shapes = (
{
closed = 1;
nodes = (
(214,839,l),
(288,839,l),
(270,946,l),
(161,946,l)
);
},
{
closed = 1;
nodes = (
(64,0,l),
(442,0,l),
(442,52,l),
(176,52,l),
(180,77,o),
(181,102,o),
(181,127,cs),
(181,257,ls),
(181,282,o),
(180,307,o),
(176,332,c),
(434,332,l),
(434,380,l),
(176,380,l),
(177,387,o),
(178,395,o),
(178,402,cs),
(178,623,ls),
(178,631,o),
(177,638,o),
(176,646,c),
(156,646,l),
(440,646,l),
(440,698,l),
(64,698,l)
);
}
);
width = 485;
}
);
leftKerningGroup = B;
rightKerningGroup = E;
unicode = 200;
},
{
glyphname = uni1EBA;
layers = (
{
hints = (
{
horizontal = 1;
place = (21,84);
type = Stem;
},
{
horizontal = 1;
place = (316,80);
type = Stem;
},
{
horizontal = 1;
place = (595,84);
type = Stem;
},
{
horizontal = 1;
place = (758,33);
type = Stem;
},
{
horizontal = 1;
place = (860,66);
type = Stem;
},
{
horizontal = 1;
place = (890,36);
type = Stem;
},
{
place = (45,145);
type = Stem;
},
{
place = (37,89);
type = Stem;
},
{
place = (250,92);
type = Stem;
}
);
layerId = "DFBB8FEE-91F3-4D9C-B726-DCD68A66B18F";
shapes = (
{
closed = 1;
nodes = (
(238,832,l),
(218,832,l),
(231,832,o),
(245,830,o),
(258,830,cs),
(303,830,o),
(352,850,o),
(352,902,cs),
(352,960,o),
(292,976,o),
(245,976,cs),
(222,976,o),
(167,971,o),
(160,944,c),
(220,944,l),
(224,957,o),
(235,977,o),
(251,977,cs),
(280,977,o),
(287,920,o),
(287,899,cs),
(287,875,o),
(280,824,o),
(248,824,cs),
(238,824,o),
(228,828,o),
(218,827,c),
(237,827,l)
);
},
{
closed = 1;
nodes = (
(64,0,l),
(442,0,l),
(442,52,l),
(176,52,l),
(180,77,o),
(181,102,o),
(181,127,cs),
(181,257,ls),
(181,282,o),
(180,307,o),
(176,332,c),
(434,332,l),
(434,380,l),
(176,380,l),
(177,387,o),
(178,395,o),
(178,402,cs),
(178,623,ls),
(178,631,o),
(177,638,o),
(176,646,c),
(156,646,l),
(440,646,l),
(440,698,l),
(64,698,l)
);
}
);
width = 485;
}
);
leftKerningGroup = B;
rightKerningGroup = E;
unicode = 7866;
},
{
glyphname = Emacron;
layers = (
{
hints = (
{
horizontal = 1;
place = (21,84);
type = Stem;
},
{
horizontal = 1;
place = (316,80);
type = Stem;
},
{
horizontal = 1;
place = (595,84);
type = Stem;
},
{
horizontal = 1;
place = (799,48);
type = Stem;
},
{
place = (45,145);
type = Stem;
},
{
place = (96,311);
type = Stem;
}
);
layerId = "DFBB8FEE-91F3-4D9C-B726-DCD68A66B18F";
shapes = (
{
closed = 1;
nodes = (
(119,875,l),
(395,875,l),
(395,887,l),
(119,887,l)
);
},
{
closed = 1;
nodes = (
(64,0,l),
(442,0,l),
(442,52,l),
(176,52,l),
(180,77,o),
(181,102,o),
(181,127,cs),
(181,257,ls),
(181,282,o),
(180,307,o),
(176,332,c),
(434,332,l),
(434,380,l),
(176,380,l),
(177,387,o),
(178,395,o),
(178,402,cs),
(178,623,ls),
(178,631,o),
(177,638,o),
(176,646,c),
(156,646,l),
(440,646,l),
(440,698,l),
(64,698,l)
);
}
);
width = 485;
}
);
leftKerningGroup = B;
rightKerningGroup = E;
unicode = 274;
},
{
glyphname = Eogonek;
layers = (
{
hints = (
{
horizontal = 1;
place = (-192,52);
type = Stem;
},
{
horizontal = 1;
place = (-181,-20);
target = down;
type = TopGhost;
},
{
horizontal = 1;
place = (21,84);
type = Stem;
},
{
horizontal = 1;
place = (316,80);
type = Stem;
},
{
horizontal = 1;
place = (595,84);
type = Stem;
},
{
place = (45,145);
type = Stem;
},
{
place = (157,99);
type = Stem;
},
{
place = (77,179);
type = Stem;
}
);
layerId = "DFBB8FEE-91F3-4D9C-B726-DCD68A66B18F";
shapes = (
{
closed = 1;
nodes = (
(64,0,l),
(406,0,l),
(404,-40,l),
(423,-40,l),
(407,-40,l),
(374,-68,o),
(294,-123,o),
(294,-170,cs),
(294,-226,o),
(356,-239,o),
(400,-239,cs),
(417,-239,o),
(435,-238,o),
(452,-233,c),
(448,-223,l),
(392,-223,o),
(364,-190,o),
(364,-135,cs),
(364,-105,o),
(374,-66,o),
(399,-48,c),
(395,-48,l),
(395,-50,l),
(382,-50,l),
(394,-50,l),
(409,-37,o),
(425,-24,o),
(442,-13,c),
(442,52,l),
(176,52,l),
(180,77,o),
(181,102,o),
(181,127,cs),
(181,257,ls),
(181,282,o),
(180,307,o),
(176,332,c),
(434,332,l),
(434,380,l),
(176,380,l),
(177,387,o),
(178,395,o),
(178,402,cs),
(178,623,ls),
(178,631,o),
(177,638,o),
(176,646,c),
(156,646,l),
(440,646,l),
(440,698,l),
(64,698,l)
);
}
);
width = 478;
}
);
leftKerningGroup = B;
rightKerningGroup = E;
unicode = 280;
},
{
glyphname = uni1EBC;
layers = (
{
hints = (
{
horizontal = 1;
place = (21,84);
type = Stem;
},
{
horizontal = 1;
place = (316,80);
type = Stem;
},
{
horizontal = 1;
place = (595,84);
type = Stem;
},
{
horizontal = 1;
place = (758,50);
type = Stem;
},
{
horizontal = 1;
place = (758,101);
type = Stem;
},
{
horizontal = 1;
place = (822,48);
type = Stem;
},
{
place = (45,99);
type = Stem;
},
{
place = (45,145);
type = Stem;
},
{
place = (52,91);
type = Stem;
},
{
place = (241,92);
type = Stem;
}
);
layerId = "DFBB8FEE-91F3-4D9C-B726-DCD68A66B18F";
shapes = (
{
closed = 1;
nodes = (
(139,846,l),
(144,870,o),
(160,901,o),
(188,901,cs),
(208,901,o),
(225,884,o),
(240,873,c),
(252,873,l),
(243,873,l),
(240,875,l),
(241,869,l),
(249,869,o),
(256,869,o),
(264,868,c),
(265,869,l),
(264,869,l),
(262,870,l),
(254,870,l),
(257,870,l),
(243,870,l),
(242,869,l),
(250,862,l),
(253,862,l),
(252,864,l),
(248,864,l),
(268,838,o),
(312,830,o),
(343,830,cs),
(387,830,o),
(438,849,o),
(438,901,c),
(374,901,l),
(374,896,o),
(374,890,o),
(371,885,c),
(376,885,l),
(376,886,l),
(390,886,l),
(371,886,l),
(366,874,o),
(349,843,o),
(334,843,cs),
(321,843,o),
(309,852,o),
(299,860,c),
(283,860,l),
(303,860,l),
(303,866,l),
(275,866,l),
(278,865,o),
(282,865,o),
(286,865,cs),
(297,865,l),
(291,872,l),
(271,872,l),
(278,872,l),
(276,872,l),
(288,872,l),
(283,878,o),
(276,884,o),
(269,887,c),
(258,887,l),
(269,887,l),
(251,909,o),
(213,913,o),
(186,913,cs),
(143,913,o),
(83,896,o),
(75,846,c)
);
},
{
closed = 1;
nodes = (
(64,0,l),
(442,0,l),
(442,52,l),
(176,52,l),
(180,77,o),
(181,102,o),
(181,127,cs),
(181,257,ls),
(181,282,o),
(180,307,o),
(176,332,c),
(434,332,l),
(434,380,l),
(176,380,l),
(177,387,o),
(178,395,o),
(178,402,cs),
(178,623,ls),
(178,631,o),
(177,638,o),
(176,646,c),
(156,646,l),
(440,646,l),
(440,698,l),
(64,698,l)
);
}
);
width = 485;
}
);
leftKerningGroup = B;
rightKerningGroup = E;
unicode = 7868;
},
{
glyphname = F;
layers = (
{
hints = (
{
horizontal = 1;
place = (21,-20);
target = down;
type = TopGhost;
},
{
horizontal = 1;
place = (307,82);
type = Stem;
},
{
horizontal = 1;
place = (595,84);
type = Stem;
},
{
place = (45,145);
type = Stem;
}
);
layerId = "DFBB8FEE-91F3-4D9C-B726-DCD68A66B18F";
shapes = (
{
closed = 1;
nodes = (
(86,0,l),
(156,0,l),
(156,300,l),
(176,322,l),
(435,322,l),
(435,372,l),
(176,372,l),
(156,395,l),
(156,623,l),
(176,646,l),
(156,646,l),
(441,646,l),
(441,696,l),
(86,696,l)
);
}
);
width = 479;
}
);
leftKerningGroup = B;
unicode = 70;
},
{
glyphname = G;
layers = (
{
hints = (
{
horizontal = 1;
place = (8,86);
type = Stem;
},
{
horizontal = 1;
place = (296,83);
type = Stem;
},
{
horizontal = 1;
place = (604,88);
type = Stem;
},
{
place = (-126,150);
type = Stem;
}
);
layerId = "DFBB8FEE-91F3-4D9C-B726-DCD68A66B18F";
shapes = (
{
closed = 1;
nodes = (
(363,309,l),
(445,310,o),
(528,311,o),
(610,311,c),
(590,311,l),
(579,185,o),
(544,39,o),
(389,39,cs),
(229,39,o),
(163,213,o),
(163,348,cs),
(163,475,o),
(225,656,o),
(378,656,cs),
(440,656,o),
(500,625,o),
(539,578,c),
(597,638,l),
(552,697,o),
(469,713,o),
(399,713,cs),
(193,713,o),
(42,552,o),
(42,348,cs),
(42,147,o),
(190,-15,o),
(394,-15,cs),
(590,-15,o),
(701,131,o),
(701,318,cs),
(701,332,o),
(699,347,o),
(700,361,c),
(363,361,l)
);
}
);
width = 723;
}
);
leftKerningGroup = C2;
rightKerningGroup = G;
unicode = 71;
},
{
glyphname = Gbreve;
layers = (
{
hints = (
{
horizontal = 1;
place = (8,86);
type = Stem;
},
{
horizontal = 1;
place = (296,83);
type = Stem;
},
{
horizontal = 1;
place = (604,88);
type = Stem;
},
{
horizontal = 1;
place = (758,41);
type = Stem;
},
{
horizontal = 1;
place = (758,97);
type = Stem;
},
{
place = (-126,150);
type = Stem;
},
{
place = (206,112);
type = Stem;
},
{
place = (283,112);
type = Stem;
}
);
layerId = "DFBB8FEE-91F3-4D9C-B726-DCD68A66B18F";
shapes = (
{
closed = 1;
nodes = (
(245,896,l),
(249,840,o),
(342,830,o),
(385,830,cs),
(429,830,o),
(520,840,o),
(526,896,c),
(442,896,l),
(437,868,o),
(418,833,o),
(385,833,cs),
(352,833,o),
(334,868,o),
(329,896,c)
);
},
{
closed = 1;
nodes = (
(363,309,l),
(445,310,o),
(528,311,o),
(610,311,c),
(590,311,l),
(579,185,o),
(544,39,o),
(389,39,cs),
(229,39,o),
(163,213,o),
(163,348,cs),
(163,475,o),
(225,656,o),
(378,656,cs),
(440,656,o),
(500,625,o),
(539,578,c),
(597,638,l),
(552,697,o),
(469,713,o),
(399,713,cs),
(193,713,o),
(42,552,o),
(42,348,cs),
(42,147,o),
(190,-15,o),
(394,-15,cs),
(590,-15,o),
(701,131,o),
(701,318,cs),
(701,332,o),
(699,347,o),
(700,361,c),
(363,361,l)
);
}
);
width = 723;
}
);
leftKerningGroup = C2;
rightKerningGroup = G;
unicode = 286;
},
{
glyphname = Gcircumflex;
layers = (
{
hints = (
{
horizontal = 1;
place = (8,86);
type = Stem;
},
{
horizontal = 1;
place = (296,83);
type = Stem;
},
{
horizontal = 1;
place = (604,88);
type = Stem;
},
{
horizontal = 1;
place = (767,132);
type = Stem;
},
{
place = (-126,150);
type = Stem;
}
);
layerId = "DFBB8FEE-91F3-4D9C-B726-DCD68A66B18F";
shapes = (
{
closed = 1;
nodes = (
(276,839,l),
(351,839,l),
(392,943,l),
(397,943,l),
(379,943,l),
(419,839,l),
(492,839,l),
(440,946,l),
(330,946,l)
);
},
{
closed = 1;
nodes = (
(363,309,l),
(445,310,o),
(528,311,o),
(610,311,c),
(590,311,l),
(579,185,o),
(544,39,o),
(389,39,cs),
(229,39,o),
(163,213,o),
(163,348,cs),
(163,475,o),
(225,656,o),
(378,656,cs),
(440,656,o),
(500,625,o),
(539,578,c),
(597,638,l),
(552,697,o),
(469,713,o),
(399,713,cs),
(193,713,o),
(42,552,o),
(42,348,cs),
(42,147,o),
(190,-15,o),
(394,-15,cs),
(590,-15,o),
(701,131,o),
(701,318,cs),
(701,332,o),
(699,347,o),
(700,361,c),
(363,361,l)
);
}
);
width = 723;
}
);
leftKerningGroup = C2;
rightKerningGroup = G;
unicode = 284;
},
{
glyphname = uni0122;
layers = (
{
hints = (
{
horizontal = 1;
place = (-179,113);
type = Stem;
},
{
horizontal = 1;
place = (8,86);
type = Stem;
},
{
horizontal = 1;
place = (296,83);
type = Stem;
},
{
horizontal = 1;
place = (604,88);
type = Stem;
},
{
place = (-126,150);
type = Stem;
}
);
layerId = "DFBB8FEE-91F3-4D9C-B726-DCD68A66B18F";
shapes = (
{
closed = 1;
nodes = (
(306,-225,l),
(359,-225,l),
(406,-140,l),
(322,-140,l)
);
},
{
closed = 1;
nodes = (
(363,309,l),
(445,310,o),
(528,311,o),
(610,311,c),
(590,311,l),
(579,185,o),
(544,39,o),
(389,39,cs),
(229,39,o),
(163,213,o),
(163,348,cs),
(163,475,o),
(225,656,o),
(378,656,cs),
(440,656,o),
(500,625,o),
(539,578,c),
(597,638,l),
(552,697,o),
(469,713,o),
(399,713,cs),
(193,713,o),
(42,552,o),
(42,348,cs),
(42,147,o),
(190,-15,o),
(394,-15,cs),
(590,-15,o),
(701,131,o),
(701,318,cs),
(701,332,o),
(699,347,o),
(700,361,c),
(363,361,l)
);
}
);
width = 723;
}
);
leftKerningGroup = C2;
rightKerningGroup = G;
unicode = 290;
},
{
glyphname = Gdotaccent;
layers = (
{
hints = (
{
horizontal = 1;
place = (8,86);
type = Stem;
},
{
horizontal = 1;
place = (296,83);
type = Stem;
},
{
horizontal = 1;
place = (604,88);
type = Stem;
},
{
horizontal = 1;
place = (764,117);
type = Stem;
},
{
place = (-126,150);
type = Stem;
},
{
place = (276,167);
type = Stem;
}
);
layerId = "DFBB8FEE-91F3-4D9C-B726-DCD68A66B18F";
shapes = (
{
closed = 1;
nodes = (
(318,848,o),
(360,836,o),
(387,836,cs),
(413,836,o),
(453,848,o),
(453,880,cs),
(453,912,o),
(412,925,o),
(386,925,cs),
(360,925,o),
(318,913,o),
(318,881,cs)
);
},
{
closed = 1;
nodes = (
(363,309,l),
(445,310,o),
(528,311,o),
(610,311,c),
(590,311,l),
(579,185,o),
(544,39,o),
(389,39,cs),
(229,39,o),
(163,213,o),
(163,348,cs),
(163,475,o),
(225,656,o),
(378,656,cs),
(440,656,o),
(500,625,o),
(539,578,c),
(597,638,l),
(552,697,o),
(469,713,o),
(399,713,cs),
(193,713,o),
(42,552,o),
(42,348,cs),
(42,147,o),
(190,-15,o),
(394,-15,cs),
(590,-15,o),
(701,131,o),
(701,318,cs),
(701,332,o),
(699,347,o),
(700,361,c),
(363,361,l)
);
}
);
width = 723;
}
);
leftKerningGroup = C2;
rightKerningGroup = G;
unicode = 288;
},
{
glyphname = uni1E20;
layers = (
{
hints = (
{
horizontal = 1;
place = (8,86);
type = Stem;
},
{
horizontal = 1;
place = (296,83);
type = Stem;
},
{
horizontal = 1;
place = (604,88);
type = Stem;
},
{
horizontal = 1;
place = (799,48);
type = Stem;
},
{
place = (-126,150);
type = Stem;
},
{
place = (213,311);
type = Stem;
}
);
layerId = "DFBB8FEE-91F3-4D9C-B726-DCD68A66B18F";
shapes = (
{
closed = 1;
nodes = (
(248,875,l),
(523,875,l),
(523,887,l),
(248,887,l)
);
},
{
closed = 1;
nodes = (
(363,309,l),
(445,310,o),
(528,311,o),
(610,311,c),
(590,311,l),
(579,185,o),
(544,39,o),
(389,39,cs),
(229,39,o),
(163,213,o),
(163,348,cs),
(163,475,o),
(225,656,o),
(378,656,cs),
(440,656,o),
(500,625,o),
(539,578,c),
(597,638,l),
(552,697,o),
(469,713,o),
(399,713,cs),
(193,713,o),
(42,552,o),
(42,348,cs),
(42,147,o),
(190,-15,o),
(394,-15,cs),
(590,-15,o),
(701,131,o),
(701,318,cs),
(701,332,o),
(699,347,o),
(700,361,c),
(363,361,l)
);
}
);
width = 723;
}
);
leftKerningGroup = C2;
rightKerningGroup = G;
unicode = 7712;
},
{
glyphname = H;
layers = (
{
hints = (
{
horizontal = 1;
place = (21,-20);
target = down;
type = TopGhost;
},
{
horizontal = 1;
place = (313,84);
type = Stem;
},
{
horizontal = 1;
place = (679,-20);
target = down;
type = TopGhost;
},
{
place = (45,145);
type = Stem;
},
{
place = (281,145);
type = Stem;
}
);
layerId = "DFBB8FEE-91F3-4D9C-B726-DCD68A66B18F";
shapes = (
{
closed = 1;
nodes = (
(86,0,l),
(156,0,l),
(156,306,l),
(176,329,l),
(156,329,l),
(482,329,l),
(503,306,l),
(503,0,l),
(573,0,l),
(573,698,l),
(503,698,l),
(503,401,l),
(482,379,l),
(176,379,l),
(156,401,l),
(156,698,l),
(86,698,l)
);
}
);
width = 643;
}
);
leftKerningGroup = B;
rightKerningGroup = H;
unicode = 72;
},
{
glyphname = Hbar;
layers = (
{
hints = (
{
horizontal = 1;
place = (21,-20);
target = down;
type = TopGhost;
},
{
horizontal = 1;
place = (313,84);
type = Stem;
},
{
horizontal = 1;
place = (532,52);
type = Stem;
},
{
horizontal = 1;
place = (532,147);
type = Stem;
},
{
place = (-98,145);
type = Stem;
},
{
place = (428,145);
type = Stem;
}
);
layerId = "DFBB8FEE-91F3-4D9C-B726-DCD68A66B18F";
shapes = (
{
closed = 1;
nodes = (
(68,0,l),
(182,0,l),
(182,110,o),
(181,219,o),
(181,329,c),
(485,329,l),
(484,321,o),
(483,314,o),
(483,306,cs),
(483,0,l),
(598,0,l),
(598,553,ls),
(598,560,o),
(597,568,o),
(596,575,c),
(594,575,l),
(644,575,l),
(644,591,l),
(596,591,l),
(597,599,o),
(598,606,o),
(598,614,cs),
(598,698,l),
(483,698,l),
(483,614,ls),
(483,606,o),
(484,599,o),
(485,591,c),
(504,591,l),
(181,591,l),
(181,599,o),
(182,606,o),
(182,614,cs),
(182,698,l),
(68,698,l),
(68,614,ls),
(68,606,o),
(69,599,o),
(69,591,c),
(72,591,l),
(23,591,l),
(23,575,l),
(69,575,l),
(69,568,o),
(68,560,o),
(68,553,cs)
);
},
{
closed = 1;
nodes = (
(181,381,l),
(183,403,o),
(184,425,o),
(184,447,cs),
(184,490,o),
(182,532,o),
(181,575,c),
(485,575,l),
(481,552,o),
(481,529,o),
(481,506,cs),
(481,450,ls),
(481,427,o),
(481,404,o),
(485,381,c)
);
}
);
width = 648;
}
);
leftKerningGroup = B;
rightKerningGroup = H;
unicode = 294;
},
{
glyphname = uni1E2A;
layers = (
{
hints = (
{
horizontal = 1;
place = (-200,41);
type = Stem;
},
{
horizontal = 1;
place = (-200,97);
type = Stem;
},
{
horizontal = 1;
place = (21,-20);
target = down;
type = TopGhost;
},
{
horizontal = 1;
place = (313,84);
type = Stem;
},
{
horizontal = 1;
place = (679,-20);
target = down;
type = TopGhost;
},
{
place = (45,145);
type = Stem;
},
{
place = (44,112);
type = Stem;
},
{
place = (344,112);
type = Stem;
},
{
place = (281,145);
type = Stem;
}
);
layerId = "DFBB8FEE-91F3-4D9C-B726-DCD68A66B18F";
shapes = (
{
closed = 1;
nodes = (
(187,-182,l),
(195,-237,o),
(287,-249,o),
(331,-249,cs),
(374,-249,o),
(463,-237,o),
(469,-182,c),
(386,-182,l),
(381,-211,o),
(362,-244,o),
(329,-244,cs),
(296,-244,o),
(277,-211,o),
(272,-182,c)
);
},
{
closed = 1;
nodes = (
(64,0,l),
(178,0,l),
(178,306,ls),
(178,314,o),
(177,321,o),
(176,329,c),
(156,329,l),
(482,329,l),
(481,321,o),
(480,314,o),
(480,306,cs),
(480,0,l),
(596,0,l),
(596,698,l),
(480,698,l),
(480,403,ls),
(480,396,o),
(481,388,o),
(482,381,c),
(176,381,l),
(177,388,o),
(178,396,o),
(178,403,cs),
(178,698,l),
(64,698,l)
);
}
);
width = 643;
}
);
leftKerningGroup = B;
rightKerningGroup = H;
unicode = 7722;
},
{
glyphname = Hcircumflex;
layers = (
{
hints = (
{
horizontal = 1;
place = (21,-20);
target = down;
type = TopGhost;
},
{
horizontal = 1;
place = (313,84);
type = Stem;
},
{
horizontal = 1;
place = (679,-20);
target = down;
type = TopGhost;
},
{
horizontal = 1;
place = (767,132);
type = Stem;
},
{
place = (45,145);
type = Stem;
},
{
place = (281,145);
type = Stem;
}
);
layerId = "DFBB8FEE-91F3-4D9C-B726-DCD68A66B18F";
shapes = (
{
closed = 1;
nodes = (
(222,839,l),
(296,839,l),
(334,943,l),
(340,943,l),
(322,943,l),
(363,839,l),
(436,839,l),
(385,946,l),
(275,946,l)
);
},
{
closed = 1;
nodes = (
(64,0,l),
(178,0,l),
(178,306,ls),
(178,314,o),
(177,321,o),
(176,329,c),
(156,329,l),
(482,329,l),
(481,321,o),
(480,314,o),
(480,306,cs),
(480,0,l),
(596,0,l),
(596,698,l),
(480,698,l),
(480,403,ls),
(480,396,o),
(481,388,o),
(482,381,c),
(176,381,l),
(177,388,o),
(178,396,o),
(178,403,cs),
(178,698,l),
(64,698,l)
);
}
);
width = 643;
}
);
leftKerningGroup = B;
rightKerningGroup = H;
unicode = 292;
},
{
glyphname = uni1E24;
layers = (
{
hints = (
{
horizontal = 1;
place = (-192,117);
type = Stem;
},
{
horizontal = 1;
place = (21,-20);
target = down;
type = TopGhost;
},
{
horizontal = 1;
place = (313,84);
type = Stem;
},
{
horizontal = 1;
place = (679,-20);
target = down;
type = TopGhost;
},
{
place = (45,145);
type = Stem;
},
{
place = (59,167);
type = Stem;
},
{
place = (281,145);
type = Stem;
}
);
layerId = "DFBB8FEE-91F3-4D9C-B726-DCD68A66B18F";
shapes = (
{
closed = 1;
nodes = (
(261,-228,o),
(304,-239,o),
(330,-239,cs),
(356,-239,o),
(397,-228,o),
(397,-196,cs),
(397,-163,o),
(356,-150,o),
(329,-150,cs),
(302,-150,o),
(261,-162,o),
(261,-195,cs)
);
},
{
closed = 1;
nodes = (
(64,0,l),
(178,0,l),
(178,306,ls),
(178,314,o),
(177,321,o),
(176,329,c),
(156,329,l),
(482,329,l),
(481,321,o),
(480,314,o),
(480,306,cs),
(480,0,l),
(596,0,l),
(596,698,l),
(480,698,l),
(480,403,ls),
(480,396,o),
(481,388,o),
(482,381,c),
(176,381,l),
(177,388,o),
(178,396,o),
(178,403,cs),
(178,698,l),
(64,698,l)
);
}
);
width = 643;
}
);
leftKerningGroup = B;
rightKerningGroup = H;
unicode = 7716;
},
{
glyphname = I;
layers = (
{
hints = (
{
horizontal = 1;
place = (21,-20);
target = down;
type = TopGhost;
},
{
horizontal = 1;
place = (679,-20);
target = down;
type = TopGhost;
},
{
place = (45,145);
type = Stem;
}
);
layerId = "DFBB8FEE-91F3-4D9C-B726-DCD68A66B18F";
shapes = (
{
closed = 1;
nodes = (
(86,0,l),
(156,0,l),
(156,698,l),
(86,698,l)
);
}
);
width = 237;
}
);
leftKerningGroup = B;
rightKerningGroup = H;
unicode = 73;
},
{
glyphname = IJ;
layers = (
{
hints = (
{
horizontal = 1;
place = (10,84);
type = Stem;
},
{
horizontal = 1;
place = (21,-20);
target = down;
type = TopGhost;
},
{
horizontal = 1;
place = (679,-20);
target = down;
type = TopGhost;
},
{
place = (45,145);
type = Stem;
},
{
place = (391,145);
type = Stem;
}
);
layerId = "DFBB8FEE-91F3-4D9C-B726-DCD68A66B18F";
shapes = (
{
closed = 1;
nodes = (
(267,1,l),
(300,-10,o),
(335,-13,o),
(370,-13,cs),
(485,-13,o),
(557,47,o),
(557,165,cs),
(557,698,l),
(441,698,l),
(441,170,ls),
(441,117,o),
(424,39,o),
(357,39,cs),
(333,39,o),
(310,47,o),
(289,56,c)
);
},
{
closed = 1;
nodes = (
(64,0,l),
(178,0,l),
(178,698,l),
(64,698,l)
);
}
);
width = 600;
}
);
leftKerningGroup = B;
rightKerningGroup = J;
unicode = 306;
},
{
glyphname = Iacute;
layers = (
{
hints = (
{
horizontal = 1;
place = (21,-20);
target = down;
type = TopGhost;
},
{
horizontal = 1;
place = (679,-20);
target = down;
type = TopGhost;
},
{
horizontal = 1;
place = (767,132);
type = Stem;
},
{
place = (45,145);
type = Stem;
}
);
layerId = "DFBB8FEE-91F3-4D9C-B726-DCD68A66B18F";
shapes = (
{
closed = 1;
nodes = (
(96,839,l),
(166,839,l),
(212,946,l),
(119,946,l)
);
},
{
closed = 1;
nodes = (
(64,0,l),
(178,0,l),
(178,698,l),
(64,698,l)
);
}
);
width = 226;
}
);
leftKerningGroup = B;
rightKerningGroup = H;
unicode = 205;
},
{
glyphname = Icircumflex;
layers = (
{
hints = (
{
horizontal = 1;
place = (21,-20);
target = down;
type = TopGhost;
},
{
horizontal = 1;
place = (679,-20);
target = down;
type = TopGhost;
},
{
horizontal = 1;
place = (767,132);
type = Stem;
},
{
place = (-114,145);
type = Stem;
}
);
layerId = "DFBB8FEE-91F3-4D9C-B726-DCD68A66B18F";
shapes = (
{
closed = 1;
nodes = (
(3,839,l),
(76,839,l),
(117,943,l),
(122,943,l),
(103,943,l),
(143,839,l),
(217,839,l),
(165,946,l),
(55,946,l)
);
},
{
closed = 1;
nodes = (
(53,0,l),
(167,0,l),
(167,698,l),
(53,698,l)
);
}
);
width = 210;
}
);
leftKerningGroup = B;
rightKerningGroup = H;
unicode = 206;
},
{
glyphname = Idieresis;
layers = (
{
hints = (
{
horizontal = 1;
place = (21,-20);
target = down;
type = TopGhost;
},
{
horizontal = 1;
place = (679,-20);
target = down;
type = TopGhost;
},
{
horizontal = 1;
place = (764,117);
type = Stem;
},
{
place = (-220,167);
type = Stem;
},
{
place = (51,50);
type = Stem;
},
{
place = (51,145);
type = Stem;
},
{
place = (135,50);
type = Stem;
},
{
place = (135,167);
type = Stem;
}
);
layerId = "DFBB8FEE-91F3-4D9C-B726-DCD68A66B18F";
shapes = (
{
closed = 1;
nodes = (
(164,849,o),
(209,836,o),
(235,836,cs),
(261,836,o),
(301,848,o),
(301,880,cs),
(301,912,o),
(259,925,o),
(233,925,cs),
(208,925,o),
(164,912,o),
(164,881,cs)
);
},
{
closed = 1;
nodes = (
(-39,849,o),
(2,836,o),
(29,836,cs),
(55,836,o),
(97,849,o),
(97,881,cs),
(97,913,o),
(53,925,o),
(27,925,cs),
(1,925,o),
(-39,914,o),
(-39,882,cs)
);
},
{
closed = 1;
nodes = (
(73,0,l),
(188,0,l),
(188,698,l),
(73,698,l)
);
}
);
width = 251;
}
);
leftKerningGroup = B;
rightKerningGroup = H;
unicode = 207;
},
{
glyphname = Idotaccent;
layers = (
{
hints = (
{
horizontal = 1;
place = (21,-20);
target = down;
type = TopGhost;
},
{
horizontal = 1;
place = (679,-20);
target = down;
type = TopGhost;
},
{
horizontal = 1;
place = (764,117);
type = Stem;
},
{
place = (-100,145);
type = Stem;
}
);
layerId = "DFBB8FEE-91F3-4D9C-B726-DCD68A66B18F";
shapes = (
{
closed = 1;
nodes = (
(53,848,o),
(97,836,o),
(123,836,cs),
(149,836,o),
(190,848,o),
(190,880,cs),
(190,912,o),
(148,925,o),
(122,925,cs),
(96,925,o),
(53,913,o),
(53,881,cs)
);
},
{
closed = 1;
nodes = (
(64,0,l),
(180,0,l),
(180,698,l),
(64,698,l)
);
}
);
width = 240;
}
);
leftKerningGroup = B;
rightKerningGroup = H;
unicode = 304;
},
{
glyphname = uni1ECA;
layers = (
{
hints = (
{
horizontal = 1;
place = (-192,117);
type = Stem;
},
{
horizontal = 1;
place = (21,-20);
target = down;
type = TopGhost;
},
{
horizontal = 1;
place = (679,-20);
target = down;
type = TopGhost;
},
{
place = (-100,145);
type = Stem;
}
);
layerId = "DFBB8FEE-91F3-4D9C-B726-DCD68A66B18F";
shapes = (
{
closed = 1;
nodes = (
(53,-227,o),
(99,-239,o),
(124,-239,cs),
(150,-239,o),
(190,-228,o),
(190,-196,cs),
(190,-164,o),
(148,-150,o),
(122,-150,cs),
(96,-150,o),
(53,-163,o),
(53,-195,cs)
);
},
{
closed = 1;
nodes = (
(64,0,l),
(180,0,l),
(180,698,l),
(64,698,l)
);
}
);
width = 240;
}
);
leftKerningGroup = B;
rightKerningGroup = H;
unicode = 7882;
},
{
glyphname = Igrave;
layers = (
{
hints = (
{
horizontal = 1;
place = (21,-20);
target = down;
type = TopGhost;
},
{
horizontal = 1;
place = (679,-20);
target = down;
type = TopGhost;
},
{
horizontal = 1;
place = (767,132);
type = Stem;
},
{
place = (-114,145);
type = Stem;
}
);
layerId = "DFBB8FEE-91F3-4D9C-B726-DCD68A66B18F";
shapes = (
{
closed = 1;
nodes = (
(65,839,l),
(141,839,l),
(124,946,l),
(13,946,l)
);
},
{
closed = 1;
nodes = (
(53,0,l),
(167,0,l),
(167,698,l),
(53,698,l)
);
}
);
width = 224;
}
);
leftKerningGroup = B;
rightKerningGroup = H;
unicode = 204;
},
{
glyphname = uni1EC8;
layers = (
{
hints = (
{
horizontal = 1;
place = (21,-20);
target = down;
type = TopGhost;
},
{
horizontal = 1;
place = (679,-20);
target = down;
type = TopGhost;
},
{
horizontal = 1;
place = (758,33);
type = Stem;
},
{
horizontal = 1;
place = (860,66);
type = Stem;
},
{
horizontal = 1;
place = (890,36);
type = Stem;
},
{
place = (-1,89);
type = Stem;
},
{
place = (42,145);
type = Stem;
},
{
place = (32,92);
type = Stem;
}
);
layerId = "DFBB8FEE-91F3-4D9C-B726-DCD68A66B18F";
shapes = (
{
closed = 1;
nodes = (
(100,832,l),
(83,832,l),
(96,832,o),
(110,830,o),
(123,830,cs),
(168,830,o),
(216,851,o),
(216,903,cs),
(216,961,o),
(156,976,o),
(109,976,cs),
(86,976,o),
(29,971,o),
(22,944,c),
(84,944,l),
(87,958,o),
(96,977,o),
(113,977,cs),
(144,977,o),
(152,923,o),
(152,900,cs),
(152,873,o),
(143,825,o),
(108,824,c),
(109,823,l),
(96,830,l),
(82,830,l),
(99,830,l)
);
},
{
closed = 1;
nodes = (
(62,0,l),
(178,0,l),
(178,698,l),
(62,698,l)
);
}
);
width = 237;
}
);
leftKerningGroup = B;
rightKerningGroup = H;
unicode = 7880;
},
{
glyphname = Imacron;
layers = (
{
hints = (
{
horizontal = 1;
place = (21,-20);
target = down;
type = TopGhost;
},
{
horizontal = 1;
place = (679,-20);
target = down;
type = TopGhost;
},
{
horizontal = 1;
place = (799,48);
type = Stem;
},
{
place = (-96,145);
type = Stem;
}
);
layerId = "DFBB8FEE-91F3-4D9C-B726-DCD68A66B18F";
shapes = (
{
closed = 1;
nodes = (
(-9,875,l),
(266,875,l),
(266,887,l),
(-9,887,l)
);
},
{
closed = 1;
nodes = (
(70,0,l),
(186,0,l),
(186,698,l),
(70,698,l)
);
}
);
width = 246;
}
);
leftKerningGroup = B;
rightKerningGroup = H;
unicode = 298;
},
{
glyphname = Iogonek;
layers = (
{
hints = (
{
horizontal = 1;
place = (-192,52);
type = Stem;
},
{
horizontal = 1;
place = (-181,-20);
target = down;
type = TopGhost;
},
{
horizontal = 1;
place = (21,-20);
target = down;
type = TopGhost;
},
{
horizontal = 1;
place = (679,-20);
target = down;
type = TopGhost;
},
{
place = (-59,90);
type = Stem;
},
{
place = (-29,74);
type = Stem;
},
{
place = (-100,145);
type = Stem;
}
);
layerId = "DFBB8FEE-91F3-4D9C-B726-DCD68A66B18F";
shapes = (
{
closed = 1;
nodes = (
(186,-223,l),
(166,-223,ls),
(123,-223,o),
(110,-171,o),
(110,-137,cs),
(110,-109,o),
(117,-70,o),
(139,-51,c),
(126,-51,l),
(139,-51,l),
(180,-13,l),
(180,698,l),
(64,698,l),
(64,0,l),
(150,0,l),
(147,-39,l),
(167,-39,l),
(151,-39,l),
(108,-80,l),
(121,-80,l),
(108,-80,l),
(79,-100,o),
(50,-137,o),
(50,-174,cs),
(50,-225,o),
(102,-239,o),
(144,-239,cs),
(159,-239,o),
(174,-238,o),
(188,-233,c)
);
}
);
width = 232;
}
);
leftKerningGroup = B;
rightKerningGroup = H;
unicode = 302;
},
{
glyphname = Itilde;
layers = (
{
hints = (
{
horizontal = 1;
place = (21,-20);
target = down;
type = TopGhost;
},
{
horizontal = 1;
place = (679,-20);
target = down;
type = TopGhost;
},
{
horizontal = 1;
place = (758,50);
type = Stem;
},
{
horizontal = 1;
place = (758,101);
type = Stem;
},
{
horizontal = 1;
place = (822,48);
type = Stem;
},
{
place = (-68,91);
type = Stem;
},
{
place = (49,145);
type = Stem;
},
{
place = (121,92);
type = Stem;
}
);
layerId = "DFBB8FEE-91F3-4D9C-B726-DCD68A66B18F";
shapes = (
{
closed = 1;
nodes = (
(9,846,l),
(15,871,o),
(33,901,o),
(62,901,cs),
(75,901,o),
(86,893,o),
(97,886,c),
(100,886,l),
(96,888,l),
(94,887,l),
(109,876,l),
(121,876,l),
(111,876,l),
(104,872,l),
(132,872,l),
(131,873,l),
(113,873,l),
(115,873,l),
(119,870,o),
(124,870,o),
(130,870,cs),
(137,870,l),
(139,872,l),
(135,872,l),
(136,871,l),
(127,871,l),
(131,871,l),
(113,871,l),
(112,869,l),
(120,869,l),
(116,866,l),
(115,870,l),
(146,839,o),
(160,830,o),
(204,830,cs),
(250,830,o),
(312,844,o),
(312,901,c),
(245,901,l),
(242,885,l),
(262,885,l),
(242,885,l),
(237,874,o),
(220,843,o),
(206,843,cs),
(194,843,o),
(184,853,o),
(173,858,c),
(176,858,l),
(174,860,l),
(155,860,l),
(175,860,l),
(134,894,o),
(110,913,o),
(55,913,cs),
(11,913,o),
(-44,895,o),
(-53,846,c)
);
},
{
closed = 1;
nodes = (
(70,0,l),
(186,0,l),
(186,698,l),
(70,698,l)
);
}
);
width = 248;
}
);
leftKerningGroup = B;
rightKerningGroup = H;
unicode = 296;
},
{
glyphname = J;
layers = (
{
hints = (
{
horizontal = 1;
place = (10,84);
type = Stem;
},
{
horizontal = 1;
place = (679,-20);
target = down;
type = TopGhost;
},
{
place = (25,145);
type = Stem;
}
);
layerId = "DFBB8FEE-91F3-4D9C-B726-DCD68A66B18F";
shapes = (
{
closed = 1;
nodes = (
(27,1,l),
(59,-8,o),
(92,-13,o),
(125,-13,cs),
(237,-13,o),
(295,56,o),
(295,165,cs),
(295,698,l),
(225,698,l),
(225,168,ls),
(225,108,o),
(200,37,o),
(129,37,cs),
(101,37,o),
(74,46,o),
(50,60,c)
);
}
);
width = 366;
}
);
rightKerningGroup = J;
unicode = 74;
},
{
glyphname = uni004A0301;
layers = (
{
hints = (
{
horizontal = 1;
place = (9,85);
type = Stem;
},
{
horizontal = 1;
place = (680,-20);
target = down;
type = TopGhost;
},
{
horizontal = 1;
place = (766,133);
type = Stem;
},
{
place = (25,145);
type = Stem;
}
);
layerId = "DFBB8FEE-91F3-4D9C-B726-DCD68A66B18F";
shapes = (
{
closed = 1;
nodes = (
(241,856,l),
(312,856,l),
(359,967,l),
(264,967,l)
);
},
{
closed = 1;
nodes = (
(28,2,l),
(59,-12,o),
(93,-14,o),
(127,-14,cs),
(246,-14,o),
(323,45,o),
(323,169,cs),
(323,714,l),
(206,714,l),
(206,174,ls),
(206,119,o),
(189,42,o),
(120,42,cs),
(96,42,o),
(72,49,o),
(51,59,c)
);
}
);
width = 361;
}
);
leftKerningGroup = Jcircumflex;
rightKerningGroup = J;
},
{
glyphname = Jcircumflex;
layers = (
{
hints = (
{
horizontal = 1;
place = (10,84);
type = Stem;
},
{
horizontal = 1;
place = (679,-20);
target = down;
type = TopGhost;
},
{
horizontal = 1;
place = (767,132);
type = Stem;
},
{
place = (25,145);
type = Stem;
}
);
layerId = "DFBB8FEE-91F3-4D9C-B726-DCD68A66B18F";
shapes = (
{
closed = 1;
nodes = (
(153,839,l),
(227,839,l),
(266,943,l),
(271,943,l),
(253,943,l),
(293,839,l),
(365,839,l),
(315,946,l),
(207,946,l)
);
},
{
closed = 1;
nodes = (
(27,1,l),
(61,-9,o),
(97,-13,o),
(133,-13,cs),
(246,-13,o),
(318,49,o),
(318,165,cs),
(318,698,l),
(202,698,l),
(202,170,ls),
(202,117,o),
(185,39,o),
(118,39,cs),
(94,39,o),
(70,47,o),
(50,60,c)
);
}
);
width = 354;
}
);
leftKerningGroup = Jcircumflex;
rightKerningGroup = J;
unicode = 308;
},
{
glyphname = K;
layers = (
{
hints = (
{
horizontal = 1;
place = (21,-20);
target = down;
type = TopGhost;
},
{
horizontal = 1;
place = (679,-20);
target = down;
type = TopGhost;
},
{
place = (45,145);
type = Stem;
}
);
layerId = "DFBB8FEE-91F3-4D9C-B726-DCD68A66B18F";
shapes = (
{
closed = 1;
nodes = (
(86,0,l),
(156,0,l),
(156,698,l),
(86,698,l)
);
},
{
closed = 1;
nodes = (
(420,0,l),
(539,0,l),
(296,360,l),
(278,360,l),
(297,360,l),
(297,387,l),
(278,387,l),
(297,387,l),
(519,698,l),
(397,698,l),
(177,360,l)
);
}
);
width = 543;
}
);
leftKerningGroup = B;
rightKerningGroup = K;
unicode = 75;
},
{
glyphname = uni0136;
layers = (
{
hints = (
{
horizontal = 1;
place = (-179,113);
type = Stem;
},
{
horizontal = 1;
place = (21,-20);
target = down;
type = TopGhost;
},
{
horizontal = 1;
place = (679,-20);
target = down;
type = TopGhost;
},
{
place = (45,145);
type = Stem;
}
);
layerId = "DFBB8FEE-91F3-4D9C-B726-DCD68A66B18F";
shapes = (
{
closed = 1;
nodes = (
(218,-225,l),
(273,-225,l),
(319,-140,l),
(235,-140,l)
);
},
{
closed = 1;
nodes = (
(64,0,l),
(178,0,l),
(178,698,l),
(64,698,l)
);
},
{
closed = 1;
nodes = (
(420,0,l),
(539,0,l),
(296,360,l),
(278,360,l),
(297,360,l),
(297,387,l),
(278,387,l),
(297,387,l),
(519,698,l),
(397,698,l),
(177,360,l)
);
}
);
width = 543;
}
);
leftKerningGroup = B;
rightKerningGroup = K;
unicode = 310;
},
{
glyphname = uni1E34;
layers = (
{
hints = (
{
horizontal = 1;
place = (-160,48);
type = Stem;
},
{
horizontal = 1;
place = (21,-20);
target = down;
type = TopGhost;
},
{
horizontal = 1;
place = (679,-20);
target = down;
type = TopGhost;
},
{
place = (45,145);
type = Stem;
},
{
place = (89,45);
type = Stem;
}
);
layerId = "DFBB8FEE-91F3-4D9C-B726-DCD68A66B18F";
shapes = (
{
closed = 1;
nodes = (
(160,-203,l),
(435,-203,l),
(435,-192,l),
(160,-192,l)
);
},
{
closed = 1;
nodes = (
(64,0,l),
(178,0,l),
(178,698,l),
(64,698,l)
);
},
{
closed = 1;
nodes = (
(420,0,l),
(539,0,l),
(296,360,l),
(278,360,l),
(297,360,l),
(297,387,l),
(278,387,l),
(297,387,l),
(519,698,l),
(397,698,l),
(177,360,l)
);
}
);
width = 543;
}
);
leftKerningGroup = B;
rightKerningGroup = K;
unicode = 7732;
},
{
glyphname = L;
layers = (
{
anchors = (
{
name = t.uni030C.alt;
position = "{250, 700}";
}
);
hints = (
{
horizontal = 1;
place = (21,84);
type = Stem;
},
{
horizontal = 1;
place = (679,-20);
target = down;
type = TopGhost;
},
{
place = (45,145);
type = Stem;
}
);
layerId = "DFBB8FEE-91F3-4D9C-B726-DCD68A66B18F";
shapes = (
{
closed = 1;
nodes = (
(86,0,l),
(431,0,l),
(431,50,l),
(176,50,l),
(156,73,l),
(156,698,l),
(86,698,l)
);
}
);
width = 462;
}
);
leftKerningGroup = B;
rightKerningGroup = L;
unicode = 76;
},
{
glyphname = Lacute;
layers = (
{
anchors = (
{
name = t.uni030C.alt;
position = "{250, 700}";
}
);
hints = (
{
horizontal = 1;
place = (21,84);
type = Stem;
},
{
horizontal = 1;
place = (679,-20);
target = down;
type = TopGhost;
},
{
horizontal = 1;
place = (767,132);
type = Stem;
},
{
place = (45,145);
type = Stem;
}
);
layerId = "DFBB8FEE-91F3-4D9C-B726-DCD68A66B18F";
shapes = (
{
closed = 1;
nodes = (
(92,839,l),
(163,839,l),
(208,946,l),
(115,946,l)
);
},
{
closed = 1;
nodes = (
(64,0,l),
(431,0,l),
(431,52,l),
(176,52,l),
(177,60,o),
(178,67,o),
(178,75,cs),
(178,698,l),
(64,698,l)
);
}
);
width = 462;
}
);
leftKerningGroup = B;
rightKerningGroup = L;
unicode = 313;
},
{
glyphname = Lcaron;
layers = (
{
anchors = (
{
name = t.uni030C.alt;
position = "{250, 700}";
}
);
hints = (
{
horizontal = 1;
place = (21,84);
type = Stem;
},
{
horizontal = 1;
place = (517,162);
type = Stem;
},
{
place = (45,145);
type = Stem;
}
);
layerId = "DFBB8FEE-91F3-4D9C-B726-DCD68A66B18F";
shapes = (
{
closed = 1;
nodes = (
(272,558,l),
(341,558,l),
(399,698,l),
(302,698,l)
);
},
{
closed = 1;
nodes = (
(64,0,l),
(431,0,l),
(431,52,l),
(176,52,l),
(177,60,o),
(178,67,o),
(178,75,cs),
(178,698,l),
(64,698,l)
);
}
);
width = 462;
}
);
leftKerningGroup = B;
unicode = 317;
},
{
glyphname = uni013B;
layers = (
{
anchors = (
{
name = t.uni030C.alt;
position = "{250, 700}";
}
);
hints = (
{
horizontal = 1;
place = (-179,113);
type = Stem;
},
{
horizontal = 1;
place = (21,84);
type = Stem;
},
{
horizontal = 1;
place = (679,-20);
target = down;
type = TopGhost;
},
{
place = (45,145);
type = Stem;
}
);
layerId = "DFBB8FEE-91F3-4D9C-B726-DCD68A66B18F";
shapes = (
{
closed = 1;
nodes = (
(181,-225,l),
(234,-225,l),
(281,-140,l),
(197,-140,l)
);
},
{
closed = 1;
nodes = (
(64,0,l),
(431,0,l),
(431,52,l),
(176,52,l),
(177,60,o),
(178,67,o),
(178,75,cs),
(178,698,l),
(64,698,l)
);
}
);
width = 462;
}
);
leftKerningGroup = B;
rightKerningGroup = L;
unicode = 315;
},
{
glyphname = uni1E36;
layers = (
{
anchors = (
{
name = t.uni030C.alt;
position = "{250, 700}";
}
);
hints = (
{
horizontal = 1;
place = (-192,117);
type = Stem;
},
{
horizontal = 1;
place = (21,84);
type = Stem;
},
{
horizontal = 1;
place = (679,-20);
target = down;
type = TopGhost;
},
{
place = (45,145);
type = Stem;
},
{
place = (-6,167);
type = Stem;
}
);
layerId = "DFBB8FEE-91F3-4D9C-B726-DCD68A66B18F";
shapes = (
{
closed = 1;
nodes = (
(192,-228,o),
(235,-239,o),
(261,-239,cs),
(287,-239,o),
(328,-228,o),
(328,-196,cs),
(328,-164,o),
(286,-150,o),
(260,-150,cs),
(234,-150,o),
(192,-163,o),
(192,-195,cs)
);
},
{
closed = 1;
nodes = (
(64,0,l),
(431,0,l),
(431,52,l),
(176,52,l),
(177,60,o),
(178,67,o),
(178,75,cs),
(178,698,l),
(64,698,l)
);
}
);
width = 462;
}
);
leftKerningGroup = B;
rightKerningGroup = L;
unicode = 7734;
},
{
glyphname = uni1E38;
layers = (
{
anchors = (
{
name = t.uni030C.alt;
position = "{254, 700}";
}
);
hints = (
{
horizontal = 1;
place = (-192,117);
type = Stem;
},
{
horizontal = 1;
place = (21,84);
type = Stem;
},
{
horizontal = 1;
place = (679,-20);
target = down;
type = TopGhost;
},
{
horizontal = 1;
place = (799,48);
type = Stem;
},
{
place = (-96,145);
type = Stem;
},
{
place = (166,167);
type = Stem;
}
);
layerId = "DFBB8FEE-91F3-4D9C-B726-DCD68A66B18F";
shapes = (
{
closed = 1;
nodes = (
(198,-227,o),
(242,-239,o),
(268,-239,cs),
(294,-239,o),
(334,-227,o),
(334,-195,cs),
(334,-163,o),
(293,-150,o),
(267,-150,cs),
(241,-150,o),
(198,-163,o),
(198,-195,cs)
);
},
{
closed = 1;
nodes = (
(-12,875,l),
(262,875,l),
(262,887,l),
(-12,887,l)
);
},
{
closed = 1;
nodes = (
(70,0,l),
(438,0,l),
(438,52,l),
(183,52,l),
(184,60,o),
(186,67,o),
(186,75,cs),
(186,698,l),
(70,698,l)
);
}
);
width = 466;
}
);
leftKerningGroup = B;
rightKerningGroup = L;
unicode = 7736;
},
{
glyphname = uni1E3A;
layers = (
{
anchors = (
{
name = t.uni030C.alt;
position = "{250, 700}";
}
);
hints = (
{
horizontal = 1;
place = (-160,48);
type = Stem;
},
{
horizontal = 1;
place = (21,84);
type = Stem;
},
{
horizontal = 1;
place = (679,-20);
target = down;
type = TopGhost;
},
{
place = (45,145);
type = Stem;
},
{
place = (98,311);
type = Stem;
}
);
layerId = "DFBB8FEE-91F3-4D9C-B726-DCD68A66B18F";
shapes = (
{
closed = 1;
nodes = (
(122,-203,l),
(397,-203,l),
(397,-192,l),
(122,-192,l)
);
},
{
closed = 1;
nodes = (
(64,0,l),
(431,0,l),
(431,52,l),
(176,52,l),
(177,60,o),
(178,67,o),
(178,75,cs),
(178,698,l),
(64,698,l)
);
}
);
width = 462;
}
);
leftKerningGroup = B;
rightKerningGroup = L;
unicode = 7738;
},
{
glyphname = Lslash;
layers = (
{
anchors = (
{
name = t.uni030C.alt;
position = "{254, 700}";
}
);
hints = (
{
horizontal = 1;
place = (21,84);
type = Stem;
},
{
horizontal = 1;
place = (507,-20);
target = down;
type = TopGhost;
},
{
horizontal = 1;
place = (679,-20);
target = down;
type = TopGhost;
},
{
place = (-96,145);
type = Stem;
}
);
layerId = "DFBB8FEE-91F3-4D9C-B726-DCD68A66B18F";
shapes = (
{
closed = 1;
nodes = (
(70,0,l),
(438,0,l),
(438,52,l),
(183,52,l),
(184,60,o),
(186,67,o),
(186,75,cs),
(186,338,ls),
(186,344,o),
(185,350,o),
(185,356,c),
(164,356,l),
(181,356,l),
(275,433,l),
(275,499,l),
(172,408,l),
(183,408,l),
(181,408,l),
(182,410,o),
(186,426,o),
(186,427,cs),
(186,698,l),
(70,698,l),
(70,355,ls),
(70,352,o),
(71,349,o),
(71,346,c),
(91,346,l),
(75,346,l),
(-2,283,l),
(-2,223,l),
(84,294,l),
(92,294,l),
(73,294,l),
(72,288,o),
(70,282,o),
(70,276,cs)
);
}
);
width = 466;
}
);
leftKerningGroup = Lslash;
rightKerningGroup = L;
unicode = 321;
},
{
glyphname = M;
layers = (
{
hints = (
{
horizontal = 1;
place = (21,-20);
target = down;
type = TopGhost;
},
{
horizontal = 1;
place = (679,-20);
target = down;
type = TopGhost;
},
{
place = (45,142);
type = Stem;
},
{
place = (621,142);
type = Stem;
}
);
layerId = "DFBB8FEE-91F3-4D9C-B726-DCD68A66B18F";
shapes = (
{
closed = 1;
nodes = (
(85,0,l),
(155,0,l),
(155,273,ls),
(155,374,o),
(150,476,o),
(150,577,cs),
(150,599,o),
(150,620,o),
(147,642,c),
(153,642,l),
(135,642,l),
(401,0,l),
(468,0,l),
(735,642,l),
(717,642,l),
(721,642,l),
(716,603,o),
(717,563,o),
(717,523,cs),
(717,442,o),
(715,362,o),
(715,281,cs),
(715,0,l),
(785,0,l),
(785,698,l),
(652,698,l),
(521,376,l),
(522,376,l),
(481,290,o),
(451,198,o),
(432,105,c),
(452,105,l),
(446,105,l),
(423,198,o),
(389,288,o),
(353,377,cs),
(223,698,l),
(85,698,l)
);
}
);
width = 849;
}
);
leftKerningGroup = B;
rightKerningGroup = H;
unicode = 77;
},
{
glyphname = uni1E40;
layers = (
{
hints = (
{
horizontal = 1;
place = (21,-20);
target = down;
type = TopGhost;
},
{
horizontal = 1;
place = (679,-20);
target = down;
type = TopGhost;
},
{
horizontal = 1;
place = (764,117);
type = Stem;
},
{
place = (45,142);
type = Stem;
},
{
place = (321,167);
type = Stem;
},
{
place = (621,142);
type = Stem;
}
);
layerId = "DFBB8FEE-91F3-4D9C-B726-DCD68A66B18F";
shapes = (
{
closed = 1;
nodes = (
(366,848,o),
(410,836,o),
(436,836,cs),
(462,836,o),
(503,848,o),
(503,880,cs),
(503,913,o),
(461,925,o),
(434,925,cs),
(408,925,o),
(366,913,o),
(366,881,cs)
);
},
{
closed = 1;
nodes = (
(64,0,l),
(175,0,l),
(175,273,ls),
(175,392,o),
(165,510,o),
(154,628,c),
(147,642,l),
(153,642,l),
(135,642,l),
(401,0,l),
(468,0,l),
(735,642,l),
(717,642,l),
(721,642,l),
(693,543,o),
(693,437,o),
(693,335,cs),
(693,0,l),
(807,0,l),
(807,698,l),
(652,698,l),
(521,376,l),
(522,376,l),
(481,290,o),
(451,198,o),
(432,105,c),
(452,105,l),
(446,105,l),
(439,125,o),
(428,152,o),
(428,173,cs),
(428,218,o),
(255,623,o),
(223,698,c),
(64,698,l)
);
}
);
width = 849;
}
);
leftKerningGroup = B;
rightKerningGroup = H;
unicode = 7744;
},
{
glyphname = uni1E42;
layers = (
{
hints = (
{
horizontal = 1;
place = (-192,117);
type = Stem;
},
{
horizontal = 1;
place = (21,-20);
target = down;
type = TopGhost;
},
{
horizontal = 1;
place = (679,-20);
target = down;
type = TopGhost;
},
{
place = (45,142);
type = Stem;
},
{
place = (322,167);
type = Stem;
},
{
place = (621,142);
type = Stem;
}
);
layerId = "DFBB8FEE-91F3-4D9C-B726-DCD68A66B18F";
shapes = (
{
closed = 1;
nodes = (
(367,-228,o),
(410,-239,o),
(436,-239,cs),
(461,-239,o),
(504,-228,o),
(504,-196,cs),
(504,-163,o),
(461,-150,o),
(434,-150,cs),
(408,-150,o),
(367,-163,o),
(367,-195,cs)
);
},
{
closed = 1;
nodes = (
(64,0,l),
(175,0,l),
(175,273,ls),
(175,392,o),
(165,510,o),
(154,628,c),
(147,642,l),
(153,642,l),
(135,642,l),
(401,0,l),
(468,0,l),
(735,642,l),
(717,642,l),
(721,642,l),
(693,543,o),
(693,437,o),
(693,335,cs),
(693,0,l),
(807,0,l),
(807,698,l),
(652,698,l),
(521,376,l),
(522,376,l),
(481,290,o),
(451,198,o),
(432,105,c),
(452,105,l),
(446,105,l),
(439,125,o),
(428,152,o),
(428,173,cs),
(428,218,o),
(255,623,o),
(223,698,c),
(64,698,l)
);
}
);
width = 849;
}
);
leftKerningGroup = B;
rightKerningGroup = H;
unicode = 7746;
},
{
glyphname = N;
layers = (
{
hints = (
{
horizontal = 1;
place = (21,-20);
target = down;
type = TopGhost;
},
{
horizontal = 1;
place = (679,-20);
target = down;
type = TopGhost;
},
{
place = (45,135);
type = Stem;
},
{
place = (477,133);
type = Stem;
}
);
layerId = "DFBB8FEE-91F3-4D9C-B726-DCD68A66B18F";
shapes = (
{
closed = 1;
nodes = (
(81,0,l),
(151,0,l),
(151,162,o),
(149,325,o),
(149,487,cs),
(149,599,l),
(153,599,l),
(137,599,l),
(184,518,l),
(200,518,l),
(183,518,l),
(204,491,l),
(223,491,l),
(203,491,l),
(212,480,o),
(218,468,o),
(226,457,cs),
(546,0,l),
(626,0,l),
(626,698,l),
(554,698,l),
(554,275,ls),
(554,222,o),
(554,170,o),
(555,117,c),
(574,117,l),
(568,117,l),
(523,198,l),
(523,199,l),
(527,199,l),
(510,199,l),
(513,191,o),
(529,144,o),
(535,144,cs),
(538,144,o),
(553,144,o),
(553,147,cs),
(553,159,o),
(514,209,o),
(505,221,c),
(504,221,l),
(495,236,l),
(492,236,l),
(495,236,l),
(492,239,l),
(493,239,l),
(481,257,l),
(461,257,l),
(481,257,l),
(174,698,l),
(81,698,l)
);
}
);
width = 686;
}
);
leftKerningGroup = B;
rightKerningGroup = H;
unicode = 78;
},
{
glyphname = Nacute;
layers = (
{
hints = (
{
horizontal = 1;
place = (21,-20);
target = down;
type = TopGhost;
},
{
horizontal = 1;
place = (679,-20);
target = down;
type = TopGhost;
},
{
horizontal = 1;
place = (767,132);
type = Stem;
},
{
place = (45,135);
type = Stem;
},
{
place = (477,133);
type = Stem;
}
);
layerId = "DFBB8FEE-91F3-4D9C-B726-DCD68A66B18F";
shapes = (
{
closed = 1;
nodes = (
(345,839,l),
(414,839,l),
(461,946,l),
(367,946,l)
);
},
{
closed = 1;
nodes = (
(64,0,l),
(168,0,l),
(168,414,ls),
(168,469,o),
(167,547,o),
(149,599,c),
(153,599,l),
(137,599,l),
(184,518,l),
(200,518,l),
(183,518,l),
(204,491,l),
(223,491,l),
(203,491,l),
(212,480,o),
(219,468,o),
(227,457,cs),
(557,0,l),
(640,0,l),
(640,698,l),
(537,698,l),
(537,322,ls),
(537,253,o),
(538,184,o),
(555,117,c),
(574,117,l),
(568,117,l),
(523,198,l),
(523,199,l),
(527,199,l),
(510,199,l),
(513,191,o),
(529,144,o),
(535,144,cs),
(538,144,o),
(553,144,o),
(553,147,cs),
(553,159,o),
(514,209,o),
(505,221,c),
(504,221,l),
(495,236,l),
(492,236,l),
(495,236,l),
(492,239,l),
(493,239,l),
(481,257,l),
(461,257,l),
(481,257,l),
(161,698,l),
(64,698,l)
);
}
);
width = 686;
}
);
leftKerningGroup = B;
rightKerningGroup = H;
unicode = 323;
},
{
glyphname = Ncaron;
layers = (
{
hints = (
{
horizontal = 1;
place = (21,-20);
target = down;
type = TopGhost;
},
{
horizontal = 1;
place = (679,-20);
target = down;
type = TopGhost;
},
{
horizontal = 1;
place = (767,132);
type = Stem;
},
{
place = (45,135);
type = Stem;
},
{
place = (477,133);
type = Stem;
}
);
layerId = "DFBB8FEE-91F3-4D9C-B726-DCD68A66B18F";
shapes = (
{
closed = 1;
nodes = (
(315,839,l),
(423,839,l),
(476,946,l),
(402,946,l),
(363,842,l),
(357,842,l),
(374,842,l),
(334,946,l),
(261,946,l)
);
},
{
closed = 1;
nodes = (
(64,0,l),
(168,0,l),
(168,414,ls),
(168,469,o),
(167,547,o),
(149,599,c),
(153,599,l),
(137,599,l),
(184,518,l),
(200,518,l),
(183,518,l),
(204,491,l),
(223,491,l),
(203,491,l),
(212,480,o),
(219,468,o),
(227,457,cs),
(557,0,l),
(640,0,l),
(640,698,l),
(537,698,l),
(537,322,ls),
(537,253,o),
(538,184,o),
(555,117,c),
(574,117,l),
(568,117,l),
(523,198,l),
(523,199,l),
(527,199,l),
(510,199,l),
(513,191,o),
(529,144,o),
(535,144,cs),
(538,144,o),
(553,144,o),
(553,147,cs),
(553,159,o),
(514,209,o),
(505,221,c),
(504,221,l),
(495,236,l),
(492,236,l),
(495,236,l),
(492,239,l),
(493,239,l),
(481,257,l),
(461,257,l),
(481,257,l),
(161,698,l),
(64,698,l)
);
}
);
width = 686;
}
);
leftKerningGroup = B;
rightKerningGroup = H;
unicode = 327;
},
{
glyphname = uni0145;
layers = (
{
hints = (
{
horizontal = 1;
place = (-179,113);
type = Stem;
},
{
horizontal = 1;
place = (21,-20);
target = down;
type = TopGhost;
},
{
horizontal = 1;
place = (679,-20);
target = down;
type = TopGhost;
},
{
place = (45,135);
type = Stem;
},
{
place = (477,133);
type = Stem;
}
);
layerId = "DFBB8FEE-91F3-4D9C-B726-DCD68A66B18F";
shapes = (
{
closed = 1;
nodes = (
(298,-225,l),
(353,-225,l),
(400,-140,l),
(314,-140,l)
);
},
{
closed = 1;
nodes = (
(64,0,l),
(168,0,l),
(168,414,ls),
(168,469,o),
(167,547,o),
(149,599,c),
(153,599,l),
(137,599,l),
(184,518,l),
(200,518,l),
(183,518,l),
(204,491,l),
(223,491,l),
(203,491,l),
(212,480,o),
(219,468,o),
(227,457,cs),
(557,0,l),
(640,0,l),
(640,698,l),
(537,698,l),
(537,322,ls),
(537,253,o),
(538,184,o),
(555,117,c),
(574,117,l),
(568,117,l),
(523,198,l),
(523,199,l),
(527,199,l),
(510,199,l),
(513,191,o),
(529,144,o),
(535,144,cs),
(538,144,o),
(553,144,o),
(553,147,cs),
(553,159,o),
(514,209,o),
(505,221,c),
(504,221,l),
(495,236,l),
(492,236,l),
(495,236,l),
(492,239,l),
(493,239,l),
(481,257,l),
(461,257,l),
(481,257,l),
(161,698,l),
(64,698,l)
);
}
);
width = 686;
}
);
leftKerningGroup = B;
rightKerningGroup = H;
unicode = 325;
},
{
glyphname = uni1E44;
layers = (
{
hints = (
{
horizontal = 1;
place = (21,-20);
target = down;
type = TopGhost;
},
{
horizontal = 1;
place = (679,-20);
target = down;
type = TopGhost;
},
{
horizontal = 1;
place = (764,117);
type = Stem;
},
{
place = (45,135);
type = Stem;
},
{
place = (95,167);
type = Stem;
},
{
place = (477,133);
type = Stem;
}
);
layerId = "DFBB8FEE-91F3-4D9C-B726-DCD68A66B18F";
shapes = (
{
closed = 1;
nodes = (
(302,849,o),
(343,836,o),
(370,836,cs),
(396,836,o),
(437,849,o),
(437,881,cs),
(437,913,o),
(394,925,o),
(368,925,cs),
(342,925,o),
(302,914,o),
(302,882,cs)
);
},
{
closed = 1;
nodes = (
(64,0,l),
(168,0,l),
(168,414,ls),
(168,469,o),
(167,547,o),
(149,599,c),
(153,599,l),
(137,599,l),
(184,518,l),
(200,518,l),
(183,518,l),
(204,491,l),
(223,491,l),
(203,491,l),
(212,480,o),
(219,468,o),
(227,457,cs),
(557,0,l),
(640,0,l),
(640,698,l),
(537,698,l),
(537,322,ls),
(537,253,o),
(538,184,o),
(555,117,c),
(574,117,l),
(568,117,l),
(523,198,l),
(523,199,l),
(527,199,l),
(510,199,l),
(513,191,o),
(529,144,o),
(535,144,cs),
(538,144,o),
(553,144,o),
(553,147,cs),
(553,159,o),
(514,209,o),
(505,221,c),
(504,221,l),
(495,236,l),
(492,236,l),
(495,236,l),
(492,239,l),
(493,239,l),
(481,257,l),
(461,257,l),
(481,257,l),
(161,698,l),
(64,698,l)
);
}
);
width = 686;
}
);
leftKerningGroup = B;
rightKerningGroup = H;
unicode = 7748;
},
{
glyphname = uni1E46;
layers = (
{
hints = (
{
horizontal = 1;
place = (-192,117);
type = Stem;
},
{
horizontal = 1;
place = (21,-20);
target = down;
type = TopGhost;
},
{
horizontal = 1;
place = (679,-20);
target = down;
type = TopGhost;
},
{
place = (45,135);
type = Stem;
},
{
place = (103,167);
type = Stem;
},
{
place = (477,133);
type = Stem;
}
);
layerId = "DFBB8FEE-91F3-4D9C-B726-DCD68A66B18F";
shapes = (
{
closed = 1;
nodes = (
(309,-228,o),
(353,-239,o),
(379,-239,cs),
(405,-239,o),
(446,-227,o),
(446,-195,cs),
(446,-163,o),
(404,-150,o),
(378,-150,cs),
(352,-150,o),
(309,-163,o),
(309,-195,cs)
);
},
{
closed = 1;
nodes = (
(64,0,l),
(168,0,l),
(168,414,ls),
(168,469,o),
(167,547,o),
(149,599,c),
(153,599,l),
(137,599,l),
(184,518,l),
(200,518,l),
(183,518,l),
(204,491,l),
(223,491,l),
(203,491,l),
(212,480,o),
(219,468,o),
(227,457,cs),
(557,0,l),
(640,0,l),
(640,698,l),
(537,698,l),
(537,322,ls),
(537,253,o),
(538,184,o),
(555,117,c),
(574,117,l),
(568,117,l),
(523,198,l),
(523,199,l),
(527,199,l),
(510,199,l),
(513,191,o),
(529,144,o),
(535,144,cs),
(538,144,o),
(553,144,o),
(553,147,cs),
(553,159,o),
(514,209,o),
(505,221,c),
(504,221,l),
(495,236,l),
(492,236,l),
(495,236,l),
(492,239,l),
(493,239,l),
(481,257,l),
(461,257,l),
(481,257,l),
(161,698,l),
(64,698,l)
);
}
);
width = 686;
}
);
leftKerningGroup = B;
rightKerningGroup = H;
unicode = 7750;
},
{
glyphname = uni1E48;
layers = (
{
hints = (
{
horizontal = 1;
place = (-160,48);
type = Stem;
},
{
horizontal = 1;
place = (21,-20);
target = down;
type = TopGhost;
},
{
horizontal = 1;
place = (679,-20);
target = down;
type = TopGhost;
},
{
place = (45,135);
type = Stem;
},
{
place = (206,311);
type = Stem;
},
{
place = (477,133);
type = Stem;
}
);
layerId = "DFBB8FEE-91F3-4D9C-B726-DCD68A66B18F";
shapes = (
{
closed = 1;
nodes = (
(241,-203,l),
(516,-203,l),
(516,-192,l),
(241,-192,l)
);
},
{
closed = 1;
nodes = (
(64,0,l),
(168,0,l),
(168,414,ls),
(168,469,o),
(167,547,o),
(149,599,c),
(153,599,l),
(137,599,l),
(184,518,l),
(200,518,l),
(183,518,l),
(204,491,l),
(223,491,l),
(203,491,l),
(212,480,o),
(219,468,o),
(227,457,cs),
(557,0,l),
(640,0,l),
(640,698,l),
(537,698,l),
(537,322,ls),
(537,253,o),
(538,184,o),
(555,117,c),
(574,117,l),
(568,117,l),
(523,198,l),
(523,199,l),
(527,199,l),
(510,199,l),
(513,191,o),
(529,144,o),
(535,144,cs),
(538,144,o),
(553,144,o),
(553,147,cs),
(553,159,o),
(514,209,o),
(505,221,c),
(504,221,l),
(495,236,l),
(492,236,l),
(495,236,l),
(492,239,l),
(493,239,l),
(481,257,l),
(461,257,l),
(481,257,l),
(161,698,l),
(64,698,l)
);
}
);
width = 686;
}
);
leftKerningGroup = B;
rightKerningGroup = H;
unicode = 7752;
},
{
glyphname = Ntilde;
layers = (
{
hints = (
{
horizontal = 1;
place = (21,-20);
target = down;
type = TopGhost;
},
{
horizontal = 1;
place = (679,-20);
target = down;
type = TopGhost;
},
{
horizontal = 1;
place = (758,50);
type = Stem;
},
{
horizontal = 1;
place = (758,101);
type = Stem;
},
{
horizontal = 1;
place = (822,48);
type = Stem;
},
{
place = (45,135);
type = Stem;
},
{
place = (64,91);
type = Stem;
},
{
place = (435,92);
type = Stem;
},
{
place = (477,133);
type = Stem;
}
);
layerId = "DFBB8FEE-91F3-4D9C-B726-DCD68A66B18F";
shapes = (
{
closed = 1;
nodes = (
(252,846,l),
(257,869,o),
(272,901,o),
(300,901,cs),
(316,901,o),
(329,892,o),
(341,883,c),
(347,873,o),
(363,869,o),
(374,870,c),
(360,870,l),
(358,869,l),
(363,867,o),
(369,866,o),
(375,866,cs),
(378,866,o),
(381,866,o),
(384,867,c),
(384,866,l),
(363,866,l),
(361,870,l),
(356,870,l),
(378,841,o),
(422,830,o),
(457,830,cs),
(501,830,o),
(552,849,o),
(552,901,c),
(485,901,l),
(482,886,l),
(502,886,l),
(483,886,l),
(478,874,o),
(462,843,o),
(447,843,cs),
(434,843,o),
(423,852,o),
(413,858,c),
(412,858,l),
(419,858,l),
(414,860,l),
(407,867,o),
(399,874,o),
(391,881,c),
(390,881,l),
(363,906,o),
(337,913,o),
(301,913,cs),
(258,913,o),
(192,898,o),
(187,846,c)
);
},
{
closed = 1;
nodes = (
(64,0,l),
(168,0,l),
(168,414,ls),
(168,469,o),
(167,547,o),
(149,599,c),
(153,599,l),
(137,599,l),
(184,518,l),
(200,518,l),
(183,518,l),
(204,491,l),
(223,491,l),
(203,491,l),
(212,480,o),
(219,468,o),
(227,457,cs),
(557,0,l),
(640,0,l),
(640,698,l),
(537,698,l),
(537,322,ls),
(537,253,o),
(538,184,o),
(555,117,c),
(574,117,l),
(568,117,l),
(523,198,l),
(523,199,l),
(527,199,l),
(510,199,l),
(513,191,o),
(529,144,o),
(535,144,cs),
(538,144,o),
(553,144,o),
(553,147,cs),
(553,159,o),
(514,209,o),
(505,221,c),
(504,221,l),
(495,236,l),
(492,236,l),
(495,236,l),
(492,239,l),
(493,239,l),
(481,257,l),
(461,257,l),
(481,257,l),
(161,698,l),
(64,698,l)
);
}
);
width = 686;
}
);
leftKerningGroup = B;
rightKerningGroup = H;
unicode = 209;
},
{
glyphname = Eng;
layers = (
{
hints = (
{
horizontal = 1;
place = (-179,78);
type = Stem;
},
{
horizontal = 1;
place = (21,-20);
target = down;
type = TopGhost;
},
{
horizontal = 1;
place = (679,-20);
target = down;
type = TopGhost;
},
{
place = (45,135);
type = Stem;
},
{
place = (477,133);
type = Stem;
},
{
place = (483,126);
type = Stem;
}
);
layerId = "DFBB8FEE-91F3-4D9C-B726-DCD68A66B18F";
shapes = (
{
closed = 1;
nodes = (
(64,0,l),
(168,0,l),
(168,394,ls),
(168,456,o),
(168,540,o),
(149,599,c),
(153,599,l),
(137,599,l),
(184,518,l),
(200,518,l),
(183,518,l),
(204,491,l),
(223,491,l),
(203,491,l),
(226,461,o),
(247,429,o),
(269,398,cs),
(360,271,o),
(452,144,o),
(543,17,c),
(563,17,l),
(543,17,l),
(543,-5,o),
(545,-27,o),
(545,-49,cs),
(545,-85,o),
(544,-180,o),
(492,-180,cs),
(463,-180,l),
(463,-225,l),
(496,-225,ls),
(592,-225,o),
(640,-187,o),
(640,-88,cs),
(640,698,l),
(537,698,l),
(537,318,ls),
(537,251,o),
(539,183,o),
(555,117,c),
(574,117,l),
(568,117,l),
(523,198,l),
(523,199,l),
(527,199,l),
(510,199,l),
(513,191,o),
(528,144,o),
(535,144,cs),
(541,144,o),
(547,144,o),
(553,147,c),
(544,175,o),
(524,199,o),
(505,221,c),
(504,221,l),
(495,236,l),
(492,236,l),
(495,236,l),
(492,239,l),
(493,239,l),
(481,257,l),
(461,257,l),
(481,257,l),
(161,698,l),
(64,698,l)
);
}
);
width = 686;
}
);
leftKerningGroup = B;
rightKerningGroup = H;
unicode = 330;
},
{
glyphname = O;
layers = (
{
anchors = (
{
name = t.uni030C.alt;
position = "{433, 700}";
}
);
hints = (
{
horizontal = 1;
place = (8,88);
type = Stem;
},
{
horizontal = 1;
place = (604,88);
type = Stem;
},
{
place = (-126,150);
type = Stem;
},
{
place = (391,150);
type = Stem;
}
);
layerId = "DFBB8FEE-91F3-4D9C-B726-DCD68A66B18F";
shapes = (
{
closed = 1;
nodes = (
(218,35,o),
(138,201,o),
(138,348,cs),
(138,495,o),
(219,663,o),
(386,663,cs),
(553,663,o),
(631,495,o),
(631,349,cs),
(631,202,o),
(553,35,o),
(385,35,cs)
);
},
{
closed = 1;
nodes = (
(68,167,o),
(189,-15,o),
(384,-15,cs),
(580,-15,o),
(701,167,o),
(701,349,cs),
(701,530,o),
(580,713,o),
(385,713,cs),
(189,713,o),
(68,529,o),
(68,348,cs)
);
}
);
width = 748;
}
);
leftKerningGroup = C2;
rightKerningGroup = D;
unicode = 79;
},
{
glyphname = Oacute;
layers = (
{
anchors = (
{
name = t.uni030C.alt;
position = "{433, 700}";
}
);
hints = (
{
horizontal = 1;
place = (8,88);
type = Stem;
},
{
horizontal = 1;
place = (604,88);
type = Stem;
},
{
horizontal = 1;
place = (767,132);
type = Stem;
},
{
place = (-126,150);
type = Stem;
},
{
place = (391,150);
type = Stem;
}
);
layerId = "DFBB8FEE-91F3-4D9C-B726-DCD68A66B18F";
shapes = (
{
closed = 1;
nodes = (
(360,839,l),
(431,839,l),
(476,946,l),
(384,946,l)
);
},
{
closed = 1;
nodes = (
(228,42,o),
(163,217,o),
(163,349,cs),
(163,481,o),
(228,656,o),
(385,656,cs),
(541,656,o),
(605,480,o),
(605,349,cs),
(605,217,o),
(542,42,o),
(385,42,cs)
);
},
{
closed = 1;
nodes = (
(42,154,o),
(184,-15,o),
(384,-15,cs),
(585,-15,o),
(727,155,o),
(727,349,cs),
(727,542,o),
(585,713,o),
(385,713,cs),
(184,713,o),
(42,542,o),
(42,348,cs)
);
}
);
width = 748;
}
);
leftKerningGroup = C2;
rightKerningGroup = D;
unicode = 211;
},
{
glyphname = Ocircumflex;
layers = (
{
anchors = (
{
name = t.uni030C.alt;
position = "{433, 700}";
}
);
hints = (
{
horizontal = 1;
place = (8,88);
type = Stem;
},
{
horizontal = 1;
place = (604,88);
type = Stem;
},
{
horizontal = 1;
place = (767,132);
type = Stem;
},
{
place = (-126,150);
type = Stem;
},
{
place = (391,150);
type = Stem;
}
);
layerId = "DFBB8FEE-91F3-4D9C-B726-DCD68A66B18F";
shapes = (
{
closed = 1;
nodes = (
(276,839,l),
(351,839,l),
(392,943,l),
(397,943,l),
(379,943,l),
(419,839,l),
(492,839,l),
(440,946,l),
(330,946,l)
);
},
{
closed = 1;
nodes = (
(42,154,o),
(184,-15,o),
(384,-15,cs),
(585,-15,o),
(727,155,o),
(727,349,cs),
(727,542,o),
(585,713,o),
(385,713,cs),
(184,713,o),
(42,542,o),
(42,348,cs)
);
},
{
closed = 1;
nodes = (
(228,42,o),
(163,217,o),
(163,349,cs),
(163,481,o),
(228,656,o),
(385,656,cs),
(541,656,o),
(605,480,o),
(605,349,cs),
(605,217,o),
(542,42,o),
(385,42,cs)
);
}
);
width = 748;
}
);
leftKerningGroup = C2;
rightKerningGroup = D;
unicode = 212;
},
{
glyphname = uni1ED0;
layers = (
{
anchors = (
{
name = t.uni030C.alt;
position = "{433, 700}";
}
);
hints = (
{
horizontal = 1;
place = (8,88);
type = Stem;
},
{
horizontal = 1;
place = (604,88);
type = Stem;
},
{
horizontal = 1;
place = (767,132);
type = Stem;
},
{
horizontal = 1;
place = (869,30);
type = Stem;
},
{
horizontal = 1;
place = (869,132);
type = Stem;
},
{
place = (-126,150);
type = Stem;
},
{
place = (391,150);
type = Stem;
}
);
layerId = "DFBB8FEE-91F3-4D9C-B726-DCD68A66B18F";
shapes = (
{
closed = 1;
nodes = (
(513,954,l),
(584,954,l),
(630,1060,l),
(537,1060,l)
);
},
{
closed = 1;
nodes = (
(276,839,l),
(351,839,l),
(392,943,l),
(397,943,l),
(379,943,l),
(419,839,l),
(492,839,l),
(440,946,l),
(330,946,l)
);
},
{
closed = 1;
nodes = (
(42,154,o),
(184,-15,o),
(384,-15,cs),
(585,-15,o),
(727,155,o),
(727,349,cs),
(727,542,o),
(585,713,o),
(385,713,cs),
(184,713,o),
(42,542,o),
(42,348,cs)
);
},
{
closed = 1;
nodes = (
(228,42,o),
(163,217,o),
(163,349,cs),
(163,481,o),
(228,656,o),
(385,656,cs),
(541,656,o),
(605,480,o),
(605,349,cs),
(605,217,o),
(542,42,o),
(385,42,cs)
);
}
);
width = 748;
}
);
leftKerningGroup = C2;
rightKerningGroup = D;
unicode = 7888;
},
{
glyphname = uni1ED8;
layers = (
{
anchors = (
{
name = t.uni030C.alt;
position = "{433, 700}";
}
);
hints = (
{
horizontal = 1;
place = (-192,117);
type = Stem;
},
{
horizontal = 1;
place = (8,88);
type = Stem;
},
{
horizontal = 1;
place = (604,88);
type = Stem;
},
{
horizontal = 1;
place = (767,132);
type = Stem;
},
{
place = (-126,150);
type = Stem;
},
{
place = (276,167);
type = Stem;
},
{
place = (391,150);
type = Stem;
}
);
layerId = "DFBB8FEE-91F3-4D9C-B726-DCD68A66B18F";
shapes = (
{
closed = 1;
nodes = (
(318,-227,o),
(360,-239,o),
(386,-239,cs),
(412,-239,o),
(453,-227,o),
(453,-195,cs),
(453,-163,o),
(411,-150,o),
(385,-150,cs),
(359,-150,o),
(318,-163,o),
(318,-195,cs)
);
},
{
closed = 1;
nodes = (
(276,839,l),
(351,839,l),
(392,943,l),
(397,943,l),
(379,943,l),
(419,839,l),
(492,839,l),
(440,946,l),
(330,946,l)
);
},
{
closed = 1;
nodes = (
(42,154,o),
(184,-15,o),
(384,-15,cs),
(585,-15,o),
(727,155,o),
(727,349,cs),
(727,542,o),
(585,713,o),
(385,713,cs),
(184,713,o),
(42,542,o),
(42,348,cs)
);
},
{
closed = 1;
nodes = (
(228,42,o),
(163,217,o),
(163,349,cs),
(163,481,o),
(228,656,o),
(385,656,cs),
(541,656,o),
(605,480,o),
(605,349,cs),
(605,217,o),
(542,42,o),
(385,42,cs)
);
}
);
width = 748;
}
);
leftKerningGroup = C2;
rightKerningGroup = D;
unicode = 7896;
},
{
glyphname = uni1ED2;
layers = (
{
anchors = (
{
name = t.uni030C.alt;
position = "{433, 700}";
}
);
hints = (
{
horizontal = 1;
place = (8,88);
type = Stem;
},
{
horizontal = 1;
place = (604,88);
type = Stem;
},
{
horizontal = 1;
place = (767,132);
type = Stem;
},
{
horizontal = 1;
place = (869,132);
type = Stem;
},
{
place = (-126,150);
type = Stem;
},
{
place = (391,150);
type = Stem;
}
);
layerId = "DFBB8FEE-91F3-4D9C-B726-DCD68A66B18F";
shapes = (
{
closed = 1;
nodes = (
(276,839,l),
(351,839,l),
(392,943,l),
(397,943,l),
(379,943,l),
(419,839,l),
(492,839,l),
(440,946,l),
(330,946,l)
);
},
{
closed = 1;
nodes = (
(185,954,l),
(260,954,l),
(242,1060,l),
(131,1060,l)
);
},
{
closed = 1;
nodes = (
(42,154,o),
(184,-15,o),
(384,-15,cs),
(585,-15,o),
(727,155,o),
(727,349,cs),
(727,542,o),
(585,713,o),
(385,713,cs),
(184,713,o),
(42,542,o),
(42,348,cs)
);
},
{
closed = 1;
nodes = (
(228,42,o),
(163,217,o),
(163,349,cs),
(163,481,o),
(228,656,o),
(385,656,cs),
(541,656,o),
(605,480,o),
(605,349,cs),
(605,217,o),
(542,42,o),
(385,42,cs)
);
}
);
width = 748;
}
);
leftKerningGroup = C2;
rightKerningGroup = D;
unicode = 7890;
},
{
glyphname = uni1ED4;
layers = (
{
anchors = (
{
name = t.uni030C.alt;
position = "{433, 700}";
}
);
hints = (
{
horizontal = 1;
place = (8,88);
type = Stem;
},
{
horizontal = 1;
place = (604,88);
type = Stem;
},
{
horizontal = 1;
place = (767,132);
type = Stem;
},
{
horizontal = 1;
place = (950,33);
type = Stem;
},
{
horizontal = 1;
place = (1052,66);
type = Stem;
},
{
horizontal = 1;
place = (1082,36);
type = Stem;
},
{
place = (-126,150);
type = Stem;
},
{
place = (242,89);
type = Stem;
},
{
place = (367,92);
type = Stem;
},
{
place = (391,150);
type = Stem;
}
);
layerId = "DFBB8FEE-91F3-4D9C-B726-DCD68A66B18F";
shapes = (
{
closed = 1;
nodes = (
(365,1048,l),
(347,1048,l),
(360,1048,o),
(372,1045,o),
(385,1045,cs),
(431,1045,o),
(481,1065,o),
(481,1118,cs),
(481,1176,o),
(420,1192,o),
(373,1192,cs),
(348,1192,o),
(297,1187,o),
(287,1160,c),
(348,1160,l),
(352,1174,o),
(363,1194,o),
(380,1194,cs),
(409,1194,o),
(418,1136,o),
(418,1114,cs),
(418,1090,o),
(410,1040,o),
(378,1040,cs),
(367,1040,o),
(357,1045,o),
(346,1044,c),
(364,1044,l)
);
},
{
closed = 1;
nodes = (
(276,839,l),
(351,839,l),
(392,943,l),
(397,943,l),
(379,943,l),
(419,839,l),
(492,839,l),
(440,946,l),
(330,946,l)
);
},
{
closed = 1;
nodes = (
(42,154,o),
(184,-15,o),
(384,-15,cs),
(585,-15,o),
(727,155,o),
(727,349,cs),
(727,542,o),
(585,713,o),
(385,713,cs),
(184,713,o),
(42,542,o),
(42,348,cs)
);
},
{
closed = 1;
nodes = (
(228,42,o),
(163,217,o),
(163,349,cs),
(163,481,o),
(228,656,o),
(385,656,cs),
(541,656,o),
(605,480,o),
(605,349,cs),
(605,217,o),
(542,42,o),
(385,42,cs)
);
}
);
width = 748;
}
);
leftKerningGroup = C2;
rightKerningGroup = D;
unicode = 7892;
},
{
glyphname = uni1ED6;
layers = (
{
anchors = (
{
name = t.uni030C.alt;
position = "{433, 700}";
}
);
hints = (
{
horizontal = 1;
place = (8,88);
type = Stem;
},
{
horizontal = 1;
place = (604,88);
type = Stem;
},
{
horizontal = 1;
place = (767,132);
type = Stem;
},
{
horizontal = 1;
place = (950,50);
type = Stem;
},
{
horizontal = 1;
place = (950,101);
type = Stem;
},
{
horizontal = 1;
place = (1014,48);
type = Stem;
},
{
place = (-126,150);
type = Stem;
},
{
place = (78,91);
type = Stem;
},
{
place = (358,92);
type = Stem;
},
{
place = (391,150);
type = Stem;
}
);
layerId = "DFBB8FEE-91F3-4D9C-B726-DCD68A66B18F";
shapes = (
{
closed = 1;
nodes = (
(268,1061,l),
(273,1084,o),
(288,1118,o),
(316,1118,cs),
(337,1118,o),
(359,1096,o),
(376,1085,c),
(376,1084,l),
(394,1079,l),
(399,1082,l),
(358,1082,l),
(372,1054,o),
(402,1032,o),
(434,1032,c),
(441,1038,l),
(436,1038,l),
(438,1037,l),
(428,1050,l),
(442,1046,o),
(456,1045,o),
(470,1045,cs),
(514,1045,o),
(568,1064,o),
(568,1117,c),
(501,1117,l),
(498,1101,l),
(519,1101,l),
(499,1101,l),
(494,1088,o),
(478,1059,o),
(462,1059,cs),
(440,1059,o),
(393,1128,o),
(318,1128,cs),
(275,1128,o),
(208,1113,o),
(203,1061,c)
);
},
{
closed = 1;
nodes = (
(276,839,l),
(351,839,l),
(392,943,l),
(397,943,l),
(379,943,l),
(419,839,l),
(492,839,l),
(440,946,l),
(330,946,l)
);
},
{
closed = 1;
nodes = (
(42,154,o),
(184,-15,o),
(384,-15,cs),
(585,-15,o),
(727,155,o),
(727,349,cs),
(727,542,o),
(585,713,o),
(385,713,cs),
(184,713,o),
(42,542,o),
(42,348,cs)
);
},
{
closed = 1;
nodes = (
(228,42,o),
(163,217,o),
(163,349,cs),
(163,481,o),
(228,656,o),
(385,656,cs),
(541,656,o),
(605,480,o),
(605,349,cs),
(605,217,o),
(542,42,o),
(385,42,cs)
);
}
);
width = 748;
}
);
leftKerningGroup = C2;
rightKerningGroup = D;
unicode = 7894;
},
{
glyphname = Odieresis;
layers = (
{
anchors = (
{
name = t.uni030C.alt;
position = "{433, 700}";
}
);
hints = (
{
horizontal = 1;
place = (8,88);
type = Stem;
},
{
horizontal = 1;
place = (604,88);
type = Stem;
},
{
horizontal = 1;
place = (764,117);
type = Stem;
},
{
place = (-126,150);
type = Stem;
},
{
place = (182,167);
type = Stem;
},
{
place = (203,167);
type = Stem;
},
{
place = (391,150);
type = Stem;
}
);
layerId = "DFBB8FEE-91F3-4D9C-B726-DCD68A66B18F";
shapes = (
{
closed = 1;
nodes = (
(419,850,o),
(463,836,o),
(489,836,cs),
(515,836,o),
(555,848,o),
(555,880,cs),
(555,913,o),
(515,925,o),
(488,925,cs),
(463,925,o),
(419,913,o),
(419,882,cs)
);
},
{
closed = 1;
nodes = (
(215,849,o),
(257,836,o),
(284,836,cs),
(310,836,o),
(351,848,o),
(351,880,cs),
(351,912,o),
(309,925,o),
(283,925,cs),
(258,925,o),
(215,913,o),
(215,882,cs)
);
},
{
closed = 1;
nodes = (
(228,42,o),
(163,217,o),
(163,349,cs),
(163,481,o),
(228,656,o),
(385,656,cs),
(541,656,o),
(605,480,o),
(605,349,cs),
(605,217,o),
(542,42,o),
(385,42,cs)
);
},
{
closed = 1;
nodes = (
(42,154,o),
(184,-15,o),
(384,-15,cs),
(585,-15,o),
(727,155,o),
(727,349,cs),
(727,542,o),
(585,713,o),
(385,713,cs),
(184,713,o),
(42,542,o),
(42,348,cs)
);
}
);
width = 748;
}
);
leftKerningGroup = C2;
rightKerningGroup = D;
unicode = 214;
},
{
glyphname = uni1ECC;
layers = (
{
anchors = (
{
name = t.uni030C.alt;
position = "{433, 700}";
}
);
hints = (
{
horizontal = 1;
place = (-192,117);
type = Stem;
},
{
horizontal = 1;
place = (8,88);
type = Stem;
},
{
horizontal = 1;
place = (604,88);
type = Stem;
},
{
place = (-126,150);
type = Stem;
},
{
place = (276,167);
type = Stem;
},
{
place = (391,150);
type = Stem;
}
);
layerId = "DFBB8FEE-91F3-4D9C-B726-DCD68A66B18F";
shapes = (
{
closed = 1;
nodes = (
(318,-227,o),
(360,-239,o),
(386,-239,cs),
(412,-239,o),
(453,-227,o),
(453,-195,cs),
(453,-163,o),
(411,-150,o),
(385,-150,cs),
(359,-150,o),
(318,-163,o),
(318,-195,cs)
);
},
{
closed = 1;
nodes = (
(228,42,o),
(163,217,o),
(163,349,cs),
(163,481,o),
(228,656,o),
(385,656,cs),
(541,656,o),
(605,480,o),
(605,349,cs),
(605,217,o),
(542,42,o),
(385,42,cs)
);
},
{
closed = 1;
nodes = (
(42,154,o),
(184,-15,o),
(384,-15,cs),
(585,-15,o),
(727,155,o),
(727,349,cs),
(727,542,o),
(585,713,o),
(385,713,cs),
(184,713,o),
(42,542,o),
(42,348,cs)
);
}
);
width = 748;
}
);
leftKerningGroup = C2;
rightKerningGroup = D;
unicode = 7884;
},
{
glyphname = Ograve;
layers = (
{
anchors = (
{
name = t.uni030C.alt;
position = "{433, 700}";
}
);
hints = (
{
horizontal = 1;
place = (8,88);
type = Stem;
},
{
horizontal = 1;
place = (604,88);
type = Stem;
},
{
horizontal = 1;
place = (767,132);
type = Stem;
},
{
place = (-126,150);
type = Stem;
},
{
place = (391,150);
type = Stem;
}
);
layerId = "DFBB8FEE-91F3-4D9C-B726-DCD68A66B18F";
shapes = (
{
closed = 1;
nodes = (
(343,839,l),
(416,839,l),
(400,946,l),
(288,946,l)
);
},
{
closed = 1;
nodes = (
(228,42,o),
(163,217,o),
(163,349,cs),
(163,481,o),
(228,656,o),
(385,656,cs),
(541,656,o),
(605,480,o),
(605,349,cs),
(605,217,o),
(542,42,o),
(385,42,cs)
);
},
{
closed = 1;
nodes = (
(42,154,o),
(184,-15,o),
(384,-15,cs),
(585,-15,o),
(727,155,o),
(727,349,cs),
(727,542,o),
(585,713,o),
(385,713,cs),
(184,713,o),
(42,542,o),
(42,348,cs)
);
}
);
width = 748;
}
);
leftKerningGroup = C2;
rightKerningGroup = D;
unicode = 210;
},
{
glyphname = uni1ECE;
layers = (
{
anchors = (
{
name = t.uni030C.alt;
position = "{433, 700}";
}
);
hints = (
{
horizontal = 1;
place = (8,88);
type = Stem;
},
{
horizontal = 1;
place = (604,88);
type = Stem;
},
{
horizontal = 1;
place = (758,33);
type = Stem;
},
{
horizontal = 1;
place = (860,66);
type = Stem;
},
{
horizontal = 1;
place = (890,36);
type = Stem;
},
{
place = (-126,150);
type = Stem;
},
{
place = (242,89);
type = Stem;
},
{
place = (367,92);
type = Stem;
},
{
place = (391,150);
type = Stem;
}
);
layerId = "DFBB8FEE-91F3-4D9C-B726-DCD68A66B18F";
shapes = (
{
closed = 1;
nodes = (
(365,832,l),
(347,832,l),
(360,832,o),
(374,830,o),
(387,830,cs),
(432,830,o),
(481,850,o),
(481,902,cs),
(481,960,o),
(420,976,o),
(373,976,cs),
(349,976,o),
(296,971,o),
(287,944,c),
(348,944,l),
(352,958,o),
(363,977,o),
(380,977,cs),
(409,977,o),
(418,921,o),
(418,899,cs),
(418,871,o),
(408,825,o),
(373,824,c),
(374,823,l),
(360,829,l),
(346,829,l),
(364,829,l)
);
},
{
closed = 1;
nodes = (
(42,154,o),
(184,-15,o),
(384,-15,cs),
(585,-15,o),
(727,155,o),
(727,349,cs),
(727,542,o),
(585,713,o),
(385,713,cs),
(184,713,o),
(42,542,o),
(42,348,cs)
);
},
{
closed = 1;
nodes = (
(228,42,o),
(163,217,o),
(163,349,cs),
(163,481,o),
(228,656,o),
(385,656,cs),
(541,656,o),
(605,480,o),
(605,349,cs),
(605,217,o),
(542,42,o),
(385,42,cs)
);
}
);
width = 748;
}
);
leftKerningGroup = C2;
rightKerningGroup = D;
unicode = 7886;
},
{
glyphname = Ohorn;
layers = (
{
anchors = (
{
name = t.uni030C.alt;
position = "{433, 700}";
}
);
hints = (
{
horizontal = 1;
place = (8,88);
type = Stem;
},
{
horizontal = 1;
place = (604,72);
type = Stem;
},
{
horizontal = 1;
place = (604,88);
type = Stem;
},
{
place = (-126,150);
type = Stem;
},
{
place = (405,119);
type = Stem;
},
{
place = (391,150);
type = Stem;
}
);
layerId = "DFBB8FEE-91F3-4D9C-B726-DCD68A66B18F";
shapes = (
{
closed = 1;
nodes = (
(563,654,l),
(584,654,l),
(583,691,l),
(563,691,l),
(577,691,l),
(641,718,o),
(677,759,o),
(677,831,c),
(588,831,l),
(588,808,o),
(587,785,o),
(581,762,c),
(600,762,l),
(581,762,l),
(569,718,o),
(536,695,o),
(491,695,cs),
(487,695,o),
(482,698,o),
(478,698,c),
(479,698,l),
(471,699,l),
(477,699,l),
(446,713,o),
(413,713,o),
(380,713,cs),
(181,713,o),
(42,539,o),
(42,348,cs),
(42,154,o),
(184,-15,o),
(384,-15,cs),
(579,-15,o),
(727,149,o),
(727,340,cs),
(727,464,o),
(675,575,o),
(579,654,c)
);
},
{
closed = 1;
nodes = (
(228,42,o),
(163,217,o),
(163,349,cs),
(163,481,o),
(228,656,o),
(385,656,cs),
(541,656,o),
(605,480,o),
(605,349,cs),
(605,217,o),
(542,42,o),
(385,42,cs)
);
}
);
width = 748;
}
);
leftKerningGroup = C2;
rightKerningGroup = Ohorn;
unicode = 416;
},
{
glyphname = uni1EDA;
layers = (
{
anchors = (
{
name = t.uni030C.alt;
position = "{433, 700}";
}
);
hints = (
{
horizontal = 1;
place = (8,88);
type = Stem;
},
{
horizontal = 1;
place = (604,72);
type = Stem;
},
{
horizontal = 1;
place = (604,88);
type = Stem;
},
{
horizontal = 1;
place = (767,132);
type = Stem;
},
{
place = (-126,150);
type = Stem;
},
{
place = (405,119);
type = Stem;
},
{
place = (391,150);
type = Stem;
}
);
layerId = "DFBB8FEE-91F3-4D9C-B726-DCD68A66B18F";
shapes = (
{
closed = 1;
nodes = (
(360,839,l),
(431,839,l),
(476,946,l),
(384,946,l)
);
},
{
closed = 1;
nodes = (
(563,654,l),
(584,654,l),
(583,691,l),
(563,691,l),
(577,691,l),
(641,718,o),
(677,759,o),
(677,831,c),
(588,831,l),
(588,808,o),
(587,785,o),
(581,762,c),
(600,762,l),
(581,762,l),
(569,718,o),
(536,695,o),
(491,695,cs),
(487,695,o),
(482,698,o),
(478,698,c),
(479,698,l),
(471,699,l),
(477,699,l),
(446,713,o),
(413,713,o),
(380,713,cs),
(181,713,o),
(42,539,o),
(42,348,cs),
(42,154,o),
(184,-15,o),
(384,-15,cs),
(579,-15,o),
(727,149,o),
(727,340,cs),
(727,464,o),
(675,575,o),
(579,654,c)
);
},
{
closed = 1;
nodes = (
(228,42,o),
(163,217,o),
(163,349,cs),
(163,481,o),
(228,656,o),
(385,656,cs),
(541,656,o),
(605,480,o),
(605,349,cs),
(605,217,o),
(542,42,o),
(385,42,cs)
);
}
);
width = 748;
}
);
leftKerningGroup = C2;
rightKerningGroup = D;
unicode = 7898;
},
{
glyphname = uni1EE2;
layers = (
{
anchors = (
{
name = t.uni030C.alt;
position = "{433, 700}";
}
);
hints = (
{
horizontal = 1;
place = (-192,117);
type = Stem;
},
{
horizontal = 1;
place = (8,88);
type = Stem;
},
{
horizontal = 1;
place = (604,72);
type = Stem;
},
{
horizontal = 1;
place = (604,88);
type = Stem;
},
{
place = (-126,150);
type = Stem;
},
{
place = (276,167);
type = Stem;
},
{
place = (405,119);
type = Stem;
},
{
place = (391,150);
type = Stem;
}
);
layerId = "DFBB8FEE-91F3-4D9C-B726-DCD68A66B18F";
shapes = (
{
closed = 1;
nodes = (
(318,-227,o),
(360,-239,o),
(386,-239,cs),
(412,-239,o),
(453,-227,o),
(453,-195,cs),
(453,-163,o),
(411,-150,o),
(385,-150,cs),
(359,-150,o),
(318,-163,o),
(318,-195,cs)
);
},
{
closed = 1;
nodes = (
(563,654,l),
(584,654,l),
(583,691,l),
(563,691,l),
(577,691,l),
(641,718,o),
(677,759,o),
(677,831,c),
(588,831,l),
(588,808,o),
(587,785,o),
(581,762,c),
(600,762,l),
(581,762,l),
(569,718,o),
(536,695,o),
(491,695,cs),
(487,695,o),
(482,698,o),
(478,698,c),
(479,698,l),
(471,699,l),
(477,699,l),
(446,713,o),
(413,713,o),
(380,713,cs),
(181,713,o),
(42,539,o),
(42,348,cs),
(42,154,o),
(184,-15,o),
(384,-15,cs),
(579,-15,o),
(727,149,o),
(727,340,cs),
(727,464,o),
(675,575,o),
(579,654,c)
);
},
{
closed = 1;
nodes = (
(228,42,o),
(163,217,o),
(163,349,cs),
(163,481,o),
(228,656,o),
(385,656,cs),
(541,656,o),
(605,480,o),
(605,349,cs),
(605,217,o),
(542,42,o),
(385,42,cs)
);
}
);
width = 748;
}
);
leftKerningGroup = C2;
rightKerningGroup = D;
unicode = 7906;
},
{
glyphname = uni1EDC;
layers = (
{
anchors = (
{
name = t.uni030C.alt;
position = "{433, 700}";
}
);
hints = (
{
horizontal = 1;
place = (8,88);
type = Stem;
},
{
horizontal = 1;
place = (604,72);
type = Stem;
},
{
horizontal = 1;
place = (604,88);
type = Stem;
},
{
horizontal = 1;
place = (767,132);
type = Stem;
},
{
place = (-126,150);
type = Stem;
},
{
place = (405,119);
type = Stem;
},
{
place = (391,150);
type = Stem;
}
);
layerId = "DFBB8FEE-91F3-4D9C-B726-DCD68A66B18F";
shapes = (
{
closed = 1;
nodes = (
(343,839,l),
(416,839,l),
(400,946,l),
(288,946,l)
);
},
{
closed = 1;
nodes = (
(563,654,l),
(584,654,l),
(583,691,l),
(563,691,l),
(577,691,l),
(641,718,o),
(677,759,o),
(677,831,c),
(588,831,l),
(588,808,o),
(587,785,o),
(581,762,c),
(600,762,l),
(581,762,l),
(569,718,o),
(536,695,o),
(491,695,cs),
(487,695,o),
(482,698,o),
(478,698,c),
(479,698,l),
(471,699,l),
(477,699,l),
(446,713,o),
(413,713,o),
(380,713,cs),
(181,713,o),
(42,539,o),
(42,348,cs),
(42,154,o),
(184,-15,o),
(384,-15,cs),
(579,-15,o),
(727,149,o),
(727,340,cs),
(727,464,o),
(675,575,o),
(579,654,c)
);
},
{
closed = 1;
nodes = (
(228,42,o),
(163,217,o),
(163,349,cs),
(163,481,o),
(228,656,o),
(385,656,cs),
(541,656,o),
(605,480,o),
(605,349,cs),
(605,217,o),
(542,42,o),
(385,42,cs)
);
}
);
width = 748;
}
);
leftKerningGroup = C2;
rightKerningGroup = D;
unicode = 7900;
},
{
glyphname = uni1EDE;
layers = (
{
anchors = (
{
name = t.uni030C.alt;
position = "{433, 700}";
}
);
hints = (
{
horizontal = 1;
place = (8,88);
type = Stem;
},
{
horizontal = 1;
place = (604,72);
type = Stem;
},
{
horizontal = 1;
place = (604,88);
type = Stem;
},
{
horizontal = 1;
place = (758,33);
type = Stem;
},
{
horizontal = 1;
place = (860,66);
type = Stem;
},
{
horizontal = 1;
place = (890,36);
type = Stem;
},
{
place = (-126,150);
type = Stem;
},
{
place = (242,89);
type = Stem;
},
{
place = (367,92);
type = Stem;
},
{
place = (405,119);
type = Stem;
},
{
place = (391,150);
type = Stem;
}
);
layerId = "DFBB8FEE-91F3-4D9C-B726-DCD68A66B18F";
shapes = (
{
closed = 1;
nodes = (
(365,832,l),
(347,832,l),
(360,832,o),
(374,830,o),
(387,830,cs),
(432,830,o),
(481,850,o),
(481,902,cs),
(481,960,o),
(420,976,o),
(373,976,cs),
(349,976,o),
(296,971,o),
(287,944,c),
(348,944,l),
(352,958,o),
(363,977,o),
(380,977,cs),
(409,977,o),
(418,921,o),
(418,899,cs),
(418,871,o),
(408,825,o),
(373,824,c),
(374,823,l),
(360,829,l),
(346,829,l),
(364,829,l)
);
},
{
closed = 1;
nodes = (
(563,654,l),
(584,654,l),
(583,691,l),
(563,691,l),
(577,691,l),
(641,718,o),
(677,759,o),
(677,831,c),
(588,831,l),
(588,808,o),
(587,785,o),
(581,762,c),
(600,762,l),
(581,762,l),
(569,718,o),
(536,695,o),
(491,695,cs),
(487,695,o),
(482,698,o),
(478,698,c),
(479,698,l),
(471,699,l),
(477,699,l),
(446,713,o),
(413,713,o),
(380,713,cs),
(181,713,o),
(42,539,o),
(42,348,cs),
(42,154,o),
(184,-15,o),
(384,-15,cs),
(579,-15,o),
(727,149,o),
(727,340,cs),
(727,464,o),
(675,575,o),
(579,654,c)
);
},
{
closed = 1;
nodes = (
(228,42,o),
(163,217,o),
(163,349,cs),
(163,481,o),
(228,656,o),
(385,656,cs),
(541,656,o),
(605,480,o),
(605,349,cs),
(605,217,o),
(542,42,o),
(385,42,cs)
);
}
);
width = 748;
}
);
leftKerningGroup = C2;
rightKerningGroup = D;
unicode = 7902;
},
{
glyphname = uni1EE0;
layers = (
{
anchors = (
{
name = t.uni030C.alt;
position = "{433, 700}";
}
);
hints = (
{
horizontal = 1;
place = (8,88);
type = Stem;
},
{
horizontal = 1;
place = (604,72);
type = Stem;
},
{
horizontal = 1;
place = (604,88);
type = Stem;
},
{
horizontal = 1;
place = (758,39);
type = Stem;
},
{
horizontal = 1;
place = (758,50);
type = Stem;
},
{
horizontal = 1;
place = (758,101);
type = Stem;
},
{
horizontal = 1;
place = (822,48);
type = Stem;
},
{
place = (-126,150);
type = Stem;
},
{
place = (78,91);
type = Stem;
},
{
place = (358,92);
type = Stem;
},
{
place = (405,119);
type = Stem;
},
{
place = (391,150);
type = Stem;
}
);
layerId = "DFBB8FEE-91F3-4D9C-B726-DCD68A66B18F";
shapes = (
{
closed = 1;
nodes = (
(268,846,l),
(273,870,o),
(289,901,o),
(317,901,cs),
(341,901,o),
(357,880,o),
(376,869,c),
(376,868,l),
(394,863,l),
(399,866,l),
(379,866,l),
(375,870,l),
(372,870,l),
(394,841,o),
(438,830,o),
(473,830,cs),
(517,830,o),
(567,850,o),
(568,901,c),
(501,901,l),
(498,886,l),
(519,886,l),
(499,886,l),
(494,873,o),
(478,843,o),
(462,843,cs),
(450,843,o),
(439,851,o),
(430,858,c),
(433,858,l),
(431,860,l),
(430,860,l),
(423,867,o),
(415,874,o),
(407,881,c),
(406,881,l),
(379,902,o),
(351,913,o),
(316,913,cs),
(272,913,o),
(211,897,o),
(203,846,c)
);
},
{
closed = 1;
nodes = (
(563,654,l),
(584,654,l),
(583,691,l),
(563,691,l),
(577,691,l),
(641,718,o),
(677,759,o),
(677,831,c),
(588,831,l),
(588,808,o),
(587,785,o),
(581,762,c),
(600,762,l),
(581,762,l),
(569,718,o),
(536,695,o),
(491,695,cs),
(487,695,o),
(482,698,o),
(478,698,c),
(479,698,l),
(471,699,l),
(477,699,l),
(446,713,o),
(413,713,o),
(380,713,cs),
(181,713,o),
(42,539,o),
(42,348,cs),
(42,154,o),
(184,-15,o),
(384,-15,cs),
(579,-15,o),
(727,149,o),
(727,340,cs),
(727,464,o),
(675,575,o),
(579,654,c)
);
},
{
closed = 1;
nodes = (
(228,42,o),
(163,217,o),
(163,349,cs),
(163,481,o),
(228,656,o),
(385,656,cs),
(541,656,o),
(605,480,o),
(605,349,cs),
(605,217,o),
(542,42,o),
(385,42,cs)
);
}
);
width = 748;
}
);
leftKerningGroup = C2;
rightKerningGroup = D;
unicode = 7904;
},
{
glyphname = Ohungarumlaut;
layers = (
{
anchors = (
{
name = t.uni030C.alt;
position = "{433, 700}";
}
);
hints = (
{
horizontal = 1;
place = (8,88);
type = Stem;
},
{
horizontal = 1;
place = (604,88);
type = Stem;
},
{
horizontal = 1;
place = (767,132);
type = Stem;
},
{
place = (-126,150);
type = Stem;
},
{
place = (391,150);
type = Stem;
}
);
layerId = "DFBB8FEE-91F3-4D9C-B726-DCD68A66B18F";
shapes = (
{
closed = 1;
nodes = (
(441,839,l),
(492,839,l),
(542,946,l),
(457,946,l)
);
},
{
closed = 1;
nodes = (
(282,839,l),
(331,839,l),
(383,946,l),
(297,946,l)
);
},
{
closed = 1;
nodes = (
(228,42,o),
(163,217,o),
(163,349,cs),
(163,481,o),
(228,656,o),
(385,656,cs),
(541,656,o),
(605,480,o),
(605,349,cs),
(605,217,o),
(542,42,o),
(385,42,cs)
);
},
{
closed = 1;
nodes = (
(42,154,o),
(184,-15,o),
(384,-15,cs),
(585,-15,o),
(727,155,o),
(727,349,cs),
(727,542,o),
(585,713,o),
(385,713,cs),
(184,713,o),
(42,542,o),
(42,348,cs)
);
}
);
width = 748;
}
);
leftKerningGroup = C2;
rightKerningGroup = D;
unicode = 336;
},
{
glyphname = Omacron;
layers = (
{
anchors = (
{
name = t.uni030C.alt;
position = "{433, 700}";
}
);
hints = (
{
horizontal = 1;
place = (8,88);
type = Stem;
},
{
horizontal = 1;
place = (604,88);
type = Stem;
},
{
horizontal = 1;
place = (799,48);
type = Stem;
},
{
place = (-126,150);
type = Stem;
},
{
place = (213,311);
type = Stem;
},
{
place = (391,150);
type = Stem;
}
);
layerId = "DFBB8FEE-91F3-4D9C-B726-DCD68A66B18F";
shapes = (
{
closed = 1;
nodes = (
(248,875,l),
(523,875,l),
(523,887,l),
(248,887,l)
);
},
{
closed = 1;
nodes = (
(228,42,o),
(163,217,o),
(163,349,cs),
(163,481,o),
(228,656,o),
(385,656,cs),
(541,656,o),
(605,480,o),
(605,349,cs),
(605,217,o),
(542,42,o),
(385,42,cs)
);
},
{
closed = 1;
nodes = (
(42,154,o),
(184,-15,o),
(384,-15,cs),
(585,-15,o),
(727,155,o),
(727,349,cs),
(727,542,o),
(585,713,o),
(385,713,cs),
(184,713,o),
(42,542,o),
(42,348,cs)
);
}
);
width = 748;
}
);
leftKerningGroup = C2;
rightKerningGroup = D;
unicode = 332;
},
{
glyphname = Oslash;
layers = (
{
anchors = (
{
name = t.uni030C.alt;
position = "{433, 700}";
}
);
hints = (
{
horizontal = 1;
place = (8,88);
type = Stem;
},
{
horizontal = 1;
place = (604,88);
type = Stem;
},
{
place = (-126,150);
type = Stem;
},
{
place = (391,150);
type = Stem;
}
);
layerId = "DFBB8FEE-91F3-4D9C-B726-DCD68A66B18F";
shapes = (
{
closed = 1;
nodes = (
(102,-45,l),
(118,-45,l),
(112,-45,l),
(128,-45,l),
(193,52,l),
(191,55,l),
(193,55,l),
(182,55,l),
(239,9,o),
(310,-15,o),
(383,-15,cs),
(578,-15,o),
(727,147,o),
(727,339,cs),
(727,418,o),
(701,510,o),
(654,574,cs),
(638,596,o),
(618,614,o),
(602,636,c),
(584,636,l),
(603,636,l),
(603,666,l),
(584,666,l),
(601,666,l),
(660,752,l),
(644,752,l),
(649,752,l),
(633,752,l),
(568,655,l),
(571,650,l),
(580,650,l),
(564,659,l),
(554,659,l),
(565,659,l),
(515,699,o),
(448,713,o),
(385,713,cs),
(190,713,o),
(42,549,o),
(42,358,cs),
(42,259,o),
(76,155,o),
(147,85,c),
(164,85,l),
(151,85,l),
(151,86,l),
(146,86,l),
(162,69,l),
(177,69,l),
(157,69,l),
(157,41,l),
(177,41,l),
(160,41,l)
);
},
{
closed = 1;
nodes = (
(227,100,l),
(247,100,l),
(247,133,l),
(228,133,l),
(247,133,l),
(545,579,l),
(530,579,l),
(536,579,l),
(548,562,l),
(565,562,l),
(552,562,l),
(552,563,l),
(548,563,l),
(593,506,o),
(605,420,o),
(605,349,cs),
(605,221,o),
(545,42,o),
(391,42,cs),
(330,42,o),
(291,72,o),
(241,100,c)
);
},
{
closed = 1;
nodes = (
(216,127,l),
(210,127,l),
(225,127,l),
(211,145,l),
(195,145,l),
(208,145,l),
(208,144,l),
(213,144,l),
(173,201,o),
(163,279,o),
(163,347,cs),
(163,474,o),
(225,656,o),
(378,656,cs),
(428,656,o),
(479,637,o),
(517,605,c),
(533,605,l),
(513,605,l),
(513,572,l),
(532,572,l),
(513,572,l)
);
}
);
width = 748;
}
);
leftKerningGroup = C2;
rightKerningGroup = Ohorn;
unicode = 216;
},
{
glyphname = Otilde;
layers = (
{
anchors = (
{
name = t.uni030C.alt;
position = "{433, 700}";
}
);
hints = (
{
horizontal = 1;
place = (8,88);
type = Stem;
},
{
horizontal = 1;
place = (604,88);
type = Stem;
},
{
horizontal = 1;
place = (758,50);
type = Stem;
},
{
horizontal = 1;
place = (758,101);
type = Stem;
},
{
horizontal = 1;
place = (822,48);
type = Stem;
},
{
place = (-126,150);
type = Stem;
},
{
place = (78,91);
type = Stem;
},
{
place = (358,92);
type = Stem;
},
{
place = (391,150);
type = Stem;
}
);
layerId = "DFBB8FEE-91F3-4D9C-B726-DCD68A66B18F";
shapes = (
{
closed = 1;
nodes = (
(268,846,l),
(273,870,o),
(289,901,o),
(317,901,cs),
(341,901,o),
(357,880,o),
(376,869,c),
(376,868,l),
(394,863,l),
(399,866,l),
(379,866,l),
(375,870,l),
(372,870,l),
(394,841,o),
(438,830,o),
(473,830,cs),
(517,830,o),
(567,850,o),
(568,901,c),
(501,901,l),
(498,886,l),
(519,886,l),
(499,886,l),
(494,873,o),
(478,843,o),
(462,843,cs),
(450,843,o),
(439,851,o),
(430,858,c),
(433,858,l),
(431,860,l),
(430,860,l),
(423,867,o),
(415,874,o),
(407,881,c),
(406,881,l),
(379,902,o),
(351,913,o),
(316,913,cs),
(272,913,o),
(211,897,o),
(203,846,c)
);
},
{
closed = 1;
nodes = (
(42,154,o),
(184,-15,o),
(384,-15,cs),
(585,-15,o),
(727,155,o),
(727,349,cs),
(727,542,o),
(585,713,o),
(385,713,cs),
(184,713,o),
(42,542,o),
(42,348,cs)
);
},
{
closed = 1;
nodes = (
(228,42,o),
(163,217,o),
(163,349,cs),
(163,481,o),
(228,656,o),
(385,656,cs),
(541,656,o),
(605,480,o),
(605,349,cs),
(605,217,o),
(542,42,o),
(385,42,cs)
);
}
);
width = 748;
}
);
leftKerningGroup = C2;
rightKerningGroup = D;
unicode = 213;
},
{
glyphname = OE;
layers = (
{
hints = (
{
horizontal = 1;
place = (8,88);
type = Stem;
},
{
horizontal = 1;
place = (21,84);
type = Stem;
},
{
horizontal = 1;
place = (316,80);
type = Stem;
},
{
horizontal = 1;
place = (595,84);
type = Stem;
},
{
horizontal = 1;
place = (604,88);
type = Stem;
},
{
place = (-126,150);
type = Stem;
},
{
place = (410,125);
type = Stem;
},
{
place = (538,121);
type = Stem;
}
);
layerId = "DFBB8FEE-91F3-4D9C-B726-DCD68A66B18F";
shapes = (
{
closed = 1;
nodes = (
(603,0,l),
(958,0,l),
(958,52,l),
(693,52,l),
(694,60,o),
(696,68,o),
(696,76,cs),
(696,309,ls),
(696,317,o),
(694,324,o),
(693,332,c),
(951,332,l),
(951,380,l),
(693,380,l),
(694,388,o),
(696,395,o),
(696,403,cs),
(696,622,ls),
(696,630,o),
(694,638,o),
(693,646,c),
(690,646,l),
(956,646,l),
(956,698,l),
(603,698,l),
(603,582,ls),
(603,581,o),
(606,569,o),
(607,567,c),
(604,567,l),
(619,567,l),
(584,619,ls),
(537,688,o),
(461,713,o),
(380,713,cs),
(181,713,o),
(42,540,o),
(42,349,cs),
(42,160,o),
(178,-15,o),
(376,-15,cs),
(475,-15,o),
(581,33,o),
(619,130,c),
(626,130,l),
(607,130,l),
(606,128,o),
(603,116,o),
(603,115,cs)
);
},
{
closed = 1;
nodes = (
(229,42,o),
(163,213,o),
(163,349,cs),
(163,483,o),
(229,656,o),
(388,656,cs),
(549,656,o),
(600,479,o),
(600,347,cs),
(600,216,o),
(549,42,o),
(389,42,cs)
);
}
);
width = 986;
}
);
leftKerningGroup = C2;
rightKerningGroup = E;
unicode = 338;
},
{
glyphname = P;
layers = (
{
hints = (
{
horizontal = 1;
place = (21,-20);
target = down;
type = TopGhost;
},
{
horizontal = 1;
place = (275,84);
type = Stem;
},
{
horizontal = 1;
place = (596,83);
type = Stem;
},
{
place = (45,145);
type = Stem;
},
{
place = (352,147);
type = Stem;
}
);
layerId = "DFBB8FEE-91F3-4D9C-B726-DCD68A66B18F";
shapes = (
{
closed = 1;
nodes = (
(86,0,l),
(156,0,l),
(156,264,l),
(176,286,l),
(275,286,ls),
(410,286,o),
(494,353,o),
(494,493,cs),
(494,629,o),
(415,697,o),
(282,697,cs),
(86,697,l)
);
},
{
closed = 1;
nodes = (
(176,336,l),
(156,359,l),
(156,624,l),
(176,647,l),
(156,647,l),
(287,647,ls),
(383,647,o),
(424,583,o),
(424,493,cs),
(424,404,o),
(382,336,o),
(286,336,cs)
);
}
);
width = 532;
}
);
leftKerningGroup = B;
unicode = 80;
},
{
glyphname = Thorn;
layers = (
{
hints = (
{
horizontal = 1;
place = (21,-20);
target = down;
type = TopGhost;
},
{
horizontal = 1;
place = (140,84);
type = Stem;
},
{
horizontal = 1;
place = (477,84);
type = Stem;
},
{
horizontal = 1;
place = (679,-20);
target = down;
type = TopGhost;
},
{
place = (45,143);
type = Stem;
},
{
place = (45,145);
type = Stem;
},
{
place = (353,147);
type = Stem;
}
);
layerId = "DFBB8FEE-91F3-4D9C-B726-DCD68A66B18F";
shapes = (
{
closed = 1;
nodes = (
(64,0,l),
(178,0,l),
(178,27,o),
(180,54,o),
(180,81,cs),
(180,99,o),
(179,117,o),
(176,134,c),
(282,134,ls),
(421,134,o),
(519,203,o),
(519,350,cs),
(519,497,o),
(421,565,o),
(282,565,cs),
(175,565,l),
(175,572,o),
(176,580,o),
(176,587,cs),
(176,698,l),
(64,698,l)
);
},
{
closed = 1;
nodes = (
(176,186,l),
(180,213,o),
(181,241,o),
(181,268,cs),
(181,432,ls),
(181,459,o),
(180,486,o),
(176,513,c),
(275,513,ls),
(370,513,o),
(401,431,o),
(401,349,cs),
(401,267,o),
(370,186,o),
(275,186,cs)
);
}
);
width = 535;
}
);
leftKerningGroup = B;
unicode = 222;
},
{
glyphname = Q;
layers = (
{
anchors = (
{
name = t.uni030C.alt;
position = "{433, 700}";
}
);
hints = (
{
horizontal = 1;
place = (8,88);
type = Stem;
},
{
horizontal = 1;
place = (604,88);
type = Stem;
},
{
place = (-126,150);
type = Stem;
},
{
place = (391,150);
type = Stem;
}
);
layerId = "DFBB8FEE-91F3-4D9C-B726-DCD68A66B18F";
shapes = (
{
closed = 1;
nodes = (
(430,201,l),
(486,103,l),
(504,103,l),
(485,103,l),
(486,71,l),
(506,71,l),
(490,71,l),
(463,60,l),
(483,60,l),
(445,57,o),
(409,42,o),
(371,42,cs),
(212,42,o),
(138,213,o),
(138,350,cs),
(138,497,o),
(219,663,o),
(386,663,cs),
(552,663,o),
(631,497,o),
(631,351,cs),
(631,271,o),
(610,204,o),
(554,145,c),
(571,145,l),
(565,145,l),
(533,201,l)
);
},
{
closed = 1;
nodes = (
(547,22,l),
(530,22,l),
(528,16,l),
(574,-64,l),
(676,-64,l),
(614,46,l),
(614,74,l),
(594,74,l),
(608,74,l),
(667,154,o),
(701,253,o),
(701,352,cs),
(701,532,o),
(579,713,o),
(385,713,cs),
(190,713,o),
(68,530,o),
(68,349,cs),
(68,161,o),
(196,-15,o),
(395,-15,cs),
(445,-15,o),
(494,-2,o),
(538,22,c)
);
}
);
width = 748;
}
);
leftKerningGroup = C2;
unicode = 81;
},
{
glyphname = R;
layers = (
{
hints = (
{
horizontal = 1;
place = (21,-20);
target = down;
type = TopGhost;
},
{
horizontal = 1;
place = (294,84);
type = Stem;
},
{
horizontal = 1;
place = (595,85);
type = Stem;
},
{
place = (45,145);
type = Stem;
},
{
place = (343,147);
type = Stem;
}
);
layerId = "DFBB8FEE-91F3-4D9C-B726-DCD68A66B18F";
shapes = (
{
closed = 1;
nodes = (
(86,0,l),
(156,0,l),
(156,285,l),
(176,307,l),
(221,307,l),
(218,293,l),
(226,271,o),
(237,250,o),
(249,229,cs),
(381,0,l),
(495,0,l),
(330,279,l),
(310,279,l),
(330,279,l),
(330,313,l),
(309,313,l),
(324,313,o),
(339,315,o),
(353,321,c),
(348,321,l),
(351,321,l),
(441,333,o),
(484,423,o),
(484,506,cs),
(484,633,o),
(396,696,o),
(276,696,cs),
(186,696,ls),
(153,696,o),
(119,698,o),
(86,698,c)
);
},
{
closed = 1;
nodes = (
(176,357,l),
(156,379,l),
(156,623,l),
(176,646,l),
(156,646,l),
(275,646,ls),
(364,646,o),
(414,588,o),
(414,501,cs),
(414,413,o),
(363,357,o),
(274,357,cs)
);
}
);
width = 523;
}
);
leftKerningGroup = B;
rightKerningGroup = R;
unicode = 82;
},
{
glyphname = Racute;
layers = (
{
hints = (
{
horizontal = 1;
place = (21,-20);
target = down;
type = TopGhost;
},
{
horizontal = 1;
place = (294,84);
type = Stem;
},
{
horizontal = 1;
place = (595,85);
type = Stem;
},
{
horizontal = 1;
place = (767,132);
type = Stem;
},
{
place = (45,145);
type = Stem;
},
{
place = (343,147);
type = Stem;
}
);
layerId = "DFBB8FEE-91F3-4D9C-B726-DCD68A66B18F";
shapes = (
{
closed = 1;
nodes = (
(252,839,l),
(323,839,l),
(369,946,l),
(275,946,l)
);
},
{
closed = 1;
nodes = (
(64,0,l),
(178,0,l),
(178,285,ls),
(178,292,o),
(177,300,o),
(176,307,c),
(221,307,l),
(218,293,l),
(226,271,o),
(237,250,o),
(249,229,cs),
(381,0,l),
(495,0,l),
(330,279,l),
(310,279,l),
(330,279,l),
(330,313,l),
(309,313,l),
(324,313,o),
(339,315,o),
(353,321,c),
(348,321,l),
(352,321,l),
(448,329,o),
(507,418,o),
(507,509,cs),
(507,645,o),
(396,699,o),
(275,699,cs),
(175,699,l),
(182,699,l),
(143,698,o),
(103,698,o),
(64,698,c)
);
},
{
closed = 1;
nodes = (
(176,360,l),
(177,367,o),
(178,375,o),
(178,382,cs),
(178,623,ls),
(178,631,o),
(177,638,o),
(176,646,c),
(156,646,l),
(264,646,ls),
(350,646,o),
(390,582,o),
(390,502,cs),
(390,423,o),
(349,360,o),
(264,360,cs)
);
}
);
width = 523;
}
);
leftKerningGroup = B;
rightKerningGroup = R;
unicode = 340;
},
{
glyphname = Rcaron;
layers = (
{
hints = (
{
horizontal = 1;
place = (21,-20);
target = down;
type = TopGhost;
},
{
horizontal = 1;
place = (294,84);
type = Stem;
},
{
horizontal = 1;
place = (595,85);
type = Stem;
},
{
horizontal = 1;
place = (767,132);
type = Stem;
},
{
place = (45,145);
type = Stem;
},
{
place = (343,147);
type = Stem;
}
);
layerId = "DFBB8FEE-91F3-4D9C-B726-DCD68A66B18F";
shapes = (
{
closed = 1;
nodes = (
(222,839,l),
(331,839,l),
(383,946,l),
(309,946,l),
(271,842,l),
(265,842,l),
(283,842,l),
(242,946,l),
(169,946,l)
);
},
{
closed = 1;
nodes = (
(64,0,l),
(178,0,l),
(178,285,ls),
(178,292,o),
(177,300,o),
(176,307,c),
(221,307,l),
(218,293,l),
(226,271,o),
(237,250,o),
(249,229,cs),
(381,0,l),
(495,0,l),
(330,279,l),
(310,279,l),
(330,279,l),
(330,313,l),
(309,313,l),
(324,313,o),
(339,315,o),
(353,321,c),
(348,321,l),
(352,321,l),
(448,329,o),
(507,418,o),
(507,509,cs),
(507,645,o),
(396,699,o),
(275,699,cs),
(175,699,l),
(182,699,l),
(143,698,o),
(103,698,o),
(64,698,c)
);
},
{
closed = 1;
nodes = (
(176,360,l),
(177,367,o),
(178,375,o),
(178,382,cs),
(178,623,ls),
(178,631,o),
(177,638,o),
(176,646,c),
(156,646,l),
(264,646,ls),
(350,646,o),
(390,582,o),
(390,502,cs),
(390,423,o),
(349,360,o),
(264,360,cs)
);
}
);
width = 523;
}
);
leftKerningGroup = B;
rightKerningGroup = R;
unicode = 344;
},
{
glyphname = uni0156;
layers = (
{
hints = (
{
horizontal = 1;
place = (-179,113);
type = Stem;
},
{
horizontal = 1;
place = (21,-20);
target = down;
type = TopGhost;
},
{
horizontal = 1;
place = (294,84);
type = Stem;
},
{
horizontal = 1;
place = (595,85);
type = Stem;
},
{
place = (45,145);
type = Stem;
},
{
place = (343,147);
type = Stem;
}
);
layerId = "DFBB8FEE-91F3-4D9C-B726-DCD68A66B18F";
shapes = (
{
closed = 1;
nodes = (
(222,-225,l),
(274,-225,l),
(322,-140,l),
(237,-140,l)
);
},
{
closed = 1;
nodes = (
(64,0,l),
(178,0,l),
(178,285,ls),
(178,292,o),
(177,300,o),
(176,307,c),
(221,307,l),
(218,293,l),
(226,271,o),
(237,250,o),
(249,229,cs),
(381,0,l),
(495,0,l),
(330,279,l),
(310,279,l),
(330,279,l),
(330,313,l),
(309,313,l),
(324,313,o),
(339,315,o),
(353,321,c),
(348,321,l),
(352,321,l),
(448,329,o),
(507,418,o),
(507,509,cs),
(507,645,o),
(396,699,o),
(275,699,cs),
(175,699,l),
(182,699,l),
(143,698,o),
(103,698,o),
(64,698,c)
);
},
{
closed = 1;
nodes = (
(176,360,l),
(177,367,o),
(178,375,o),
(178,382,cs),
(178,623,ls),
(178,631,o),
(177,638,o),
(176,646,c),
(156,646,l),
(264,646,ls),
(350,646,o),
(390,582,o),
(390,502,cs),
(390,423,o),
(349,360,o),
(264,360,cs)
);
}
);
width = 523;
}
);
leftKerningGroup = B;
rightKerningGroup = R;
unicode = 342;
},
{
glyphname = uni1E5C;
layers = (
{
hints = (
{
horizontal = 1;
place = (-192,117);
type = Stem;
},
{
horizontal = 1;
place = (21,-20);
target = down;
type = TopGhost;
},
{
horizontal = 1;
place = (294,84);
type = Stem;
},
{
horizontal = 1;
place = (595,85);
type = Stem;
},
{
horizontal = 1;
place = (799,48);
type = Stem;
},
{
place = (45,145);
type = Stem;
},
{
place = (114,311);
type = Stem;
},
{
place = (199,167);
type = Stem;
},
{
place = (343,147);
type = Stem;
}
);
layerId = "DFBB8FEE-91F3-4D9C-B726-DCD68A66B18F";
shapes = (
{
closed = 1;
nodes = (
(232,-228,o),
(276,-239,o),
(302,-239,cs),
(328,-239,o),
(369,-228,o),
(369,-196,cs),
(369,-163,o),
(327,-150,o),
(300,-150,cs),
(274,-150,o),
(232,-163,o),
(232,-195,cs)
);
},
{
closed = 1;
nodes = (
(140,875,l),
(415,875,l),
(415,887,l),
(140,887,l)
);
},
{
closed = 1;
nodes = (
(64,0,l),
(178,0,l),
(178,285,ls),
(178,292,o),
(177,300,o),
(176,307,c),
(221,307,l),
(218,293,l),
(226,271,o),
(237,250,o),
(249,229,cs),
(381,0,l),
(495,0,l),
(330,279,l),
(310,279,l),
(330,279,l),
(330,313,l),
(309,313,l),
(324,313,o),
(339,315,o),
(353,321,c),
(348,321,l),
(352,321,l),
(448,329,o),
(507,418,o),
(507,509,cs),
(507,645,o),
(396,699,o),
(275,699,cs),
(175,699,l),
(182,699,l),
(143,698,o),
(103,698,o),
(64,698,c)
);
},
{
closed = 1;
nodes = (
(176,360,l),
(177,367,o),
(178,375,o),
(178,382,cs),
(178,623,ls),
(178,631,o),
(177,638,o),
(176,646,c),
(156,646,l),
(264,646,ls),
(350,646,o),
(390,582,o),
(390,502,cs),
(390,423,o),
(349,360,o),
(264,360,cs)
);
}
);
width = 523;
}
);
leftKerningGroup = B;
rightKerningGroup = R;
unicode = 7772;
},
{
glyphname = uni1E5E;
layers = (
{
hints = (
{
horizontal = 1;
place = (-160,48);
type = Stem;
},
{
horizontal = 1;
place = (21,-20);
target = down;
type = TopGhost;
},
{
horizontal = 1;
place = (294,84);
type = Stem;
},
{
horizontal = 1;
place = (595,85);
type = Stem;
},
{
place = (45,145);
type = Stem;
},
{
place = (135,43);
type = Stem;
},
{
place = (343,147);
type = Stem;
}
);
layerId = "DFBB8FEE-91F3-4D9C-B726-DCD68A66B18F";
shapes = (
{
closed = 1;
nodes = (
(164,-203,l),
(438,-203,l),
(438,-192,l),
(164,-192,l)
);
},
{
closed = 1;
nodes = (
(64,0,l),
(178,0,l),
(178,285,ls),
(178,292,o),
(177,300,o),
(176,307,c),
(221,307,l),
(218,293,l),
(226,271,o),
(237,250,o),
(249,229,cs),
(381,0,l),
(495,0,l),
(330,279,l),
(310,279,l),
(330,279,l),
(330,313,l),
(309,313,l),
(324,313,o),
(339,315,o),
(353,321,c),
(348,321,l),
(352,321,l),
(448,329,o),
(507,418,o),
(507,509,cs),
(507,645,o),
(396,699,o),
(275,699,cs),
(175,699,l),
(182,699,l),
(143,698,o),
(103,698,o),
(64,698,c)
);
},
{
closed = 1;
nodes = (
(176,360,l),
(177,367,o),
(178,375,o),
(178,382,cs),
(178,623,ls),
(178,631,o),
(177,638,o),
(176,646,c),
(156,646,l),
(264,646,ls),
(350,646,o),
(390,582,o),
(390,502,cs),
(390,423,o),
(349,360,o),
(264,360,cs)
);
}
);
width = 523;
}
);
leftKerningGroup = B;
rightKerningGroup = R;
unicode = 7774;
},
{
glyphname = S;
layers = (
{
hints = (
{
horizontal = 1;
place = (8,83);
type = Stem;
},
{
horizontal = 1;
place = (608,83);
type = Stem;
},
{
place = (37,148);
type = Stem;
},
{
place = (335,148);
type = Stem;
}
);
layerId = "DFBB8FEE-91F3-4D9C-B726-DCD68A66B18F";
shapes = (
{
closed = 1;
nodes = (
(36,93,l),
(67,13,o),
(174,-15,o),
(252,-15,cs),
(370,-15,o),
(478,43,o),
(478,174,cs),
(478,289,o),
(374,336,o),
(280,366,cs),
(264,371,o),
(247,376,o),
(232,384,c),
(231,384,l),
(174,407,o),
(152,463,o),
(152,521,cs),
(152,587,o),
(188,662,o),
(263,662,cs),
(320,662,o),
(369,616,o),
(393,568,c),
(475,626,l),
(452,692,o),
(361,712,o),
(299,712,cs),
(188,712,o),
(82,652,o),
(82,530,cs),
(82,279,o),
(408,405,o),
(408,171,cs),
(408,99,o),
(365,35,o),
(288,35,cs),
(215,35,o),
(151,92,o),
(121,155,c)
);
}
);
width = 525;
}
);
leftKerningGroup = S2;
rightKerningGroup = S;
unicode = 83;
},
{
glyphname = Sacute;
layers = (
{
hints = (
{
horizontal = 1;
place = (8,83);
type = Stem;
},
{
horizontal = 1;
place = (608,83);
type = Stem;
},
{
horizontal = 1;
place = (767,132);
type = Stem;
},
{
place = (37,148);
type = Stem;
},
{
place = (335,148);
type = Stem;
}
);
layerId = "DFBB8FEE-91F3-4D9C-B726-DCD68A66B18F";
shapes = (
{
closed = 1;
nodes = (
(259,839,l),
(330,839,l),
(375,946,l),
(284,946,l)
);
},
{
closed = 1;
nodes = (
(36,93,l),
(69,12,o),
(182,-15,o),
(261,-15,cs),
(386,-15,o),
(502,45,o),
(502,184,cs),
(502,333,o),
(363,353,o),
(255,401,c),
(254,401,l),
(198,422,o),
(175,473,o),
(175,530,cs),
(175,588,o),
(208,661,o),
(275,661,cs),
(328,661,o),
(372,613,o),
(393,568,c),
(475,626,l),
(449,693,o),
(352,712,o),
(288,712,cs),
(176,712,o),
(58,655,o),
(58,528,cs),
(58,279,o),
(384,409,o),
(384,171,cs),
(384,105,o),
(348,36,o),
(274,36,cs),
(205,36,o),
(148,96,o),
(121,155,c)
);
}
);
width = 525;
}
);
leftKerningGroup = S2;
rightKerningGroup = S;
unicode = 346;
},
{
glyphname = uniA78B;
layers = (
{
hints = (
{
horizontal = 1;
place = (679,-20);
target = down;
type = TopGhost;
},
{
place = (-81,145);
type = Stem;
}
);
layerId = "DFBB8FEE-91F3-4D9C-B726-DCD68A66B18F";
shapes = (
{
closed = 1;
nodes = (
(104,217,l),
(179,217,l),
(191,463,ls),
(193,510,o),
(198,557,o),
(198,604,cs),
(198,698,l),
(85,698,l),
(85,604,ls),
(85,557,o),
(90,510,o),
(92,463,cs)
);
}
);
width = 279;
}
);
unicode = 42891;
},
{
glyphname = Scaron;
layers = (
{
hints = (
{
horizontal = 1;
place = (8,83);
type = Stem;
},
{
horizontal = 1;
place = (608,83);
type = Stem;
},
{
horizontal = 1;
place = (767,132);
type = Stem;
},
{
place = (37,148);
type = Stem;
},
{
place = (335,148);
type = Stem;
}
);
layerId = "DFBB8FEE-91F3-4D9C-B726-DCD68A66B18F";
shapes = (
{
closed = 1;
nodes = (
(230,839,l),
(340,839,l),
(391,946,l),
(318,946,l),
(277,842,l),
(272,842,l),
(290,842,l),
(251,946,l),
(176,946,l)
);
},
{
closed = 1;
nodes = (
(36,93,l),
(69,12,o),
(182,-15,o),
(261,-15,cs),
(386,-15,o),
(502,45,o),
(502,184,cs),
(502,333,o),
(363,353,o),
(255,401,c),
(254,401,l),
(198,422,o),
(175,473,o),
(175,530,cs),
(175,588,o),
(208,661,o),
(275,661,cs),
(328,661,o),
(372,613,o),
(393,568,c),
(475,626,l),
(449,693,o),
(352,712,o),
(288,712,cs),
(176,712,o),
(58,655,o),
(58,528,cs),
(58,279,o),
(384,409,o),
(384,171,cs),
(384,105,o),
(348,36,o),
(274,36,cs),
(205,36,o),
(148,96,o),
(121,155,c)
);
}
);
width = 525;
}
);
leftKerningGroup = S2;
rightKerningGroup = S;
unicode = 352;
},
{
glyphname = Scedilla;
layers = (
{
hints = (
{
horizontal = 1;
place = (-192,31);
type = Stem;
},
{
horizontal = 1;
place = (8,83);
type = Stem;
},
{
horizontal = 1;
place = (608,83);
type = Stem;
},
{
place = (37,148);
type = Stem;
},
{
place = (157,84);
type = Stem;
},
{
place = (335,148);
type = Stem;
}
);
layerId = "DFBB8FEE-91F3-4D9C-B726-DCD68A66B18F";
shapes = (
{
closed = 1;
nodes = (
(189,-237,l),
(200,-239,o),
(212,-239,o),
(223,-239,cs),
(257,-239,o),
(335,-234,o),
(335,-186,cs),
(335,-151,o),
(287,-124,o),
(256,-129,c),
(275,-129,l),
(276,-98,l),
(256,-98,l),
(276,-98,l),
(306,-24,l),
(304,-13,l),
(286,-13,l),
(404,-13,o),
(502,61,o),
(502,185,cs),
(502,334,o),
(362,351,o),
(255,401,c),
(254,401,l),
(198,422,o),
(175,473,o),
(175,530,cs),
(175,588,o),
(207,661,o),
(274,661,cs),
(328,661,o),
(372,614,o),
(393,568,c),
(475,626,l),
(450,693,o),
(351,712,o),
(288,712,cs),
(174,712,o),
(58,655,o),
(58,527,cs),
(58,445,o),
(138,336,o),
(227,343,c),
(219,343,l),
(230,338,o),
(240,336,o),
(251,334,cs),
(334,316,o),
(384,256,o),
(384,170,cs),
(384,104,o),
(348,36,o),
(274,36,cs),
(205,36,o),
(148,96,o),
(121,155,c),
(36,93,l),
(71,2,o),
(211,-18,o),
(296,-16,c),
(275,-16,l),
(274,-47,l),
(293,-47,l),
(274,-47,l),
(254,-99,l),
(277,-110,o),
(279,-147,o),
(279,-169,cs),
(279,-191,o),
(273,-247,o),
(242,-247,cs),
(233,-247,o),
(224,-243,o),
(217,-237,c)
);
}
);
width = 525;
}
);
leftKerningGroup = S2;
rightKerningGroup = S;
unicode = 350;
},
{
glyphname = Scircumflex;
layers = (
{
hints = (
{
horizontal = 1;
place = (8,83);
type = Stem;
},
{
horizontal = 1;
place = (608,83);
type = Stem;
},
{
horizontal = 1;
place = (767,132);
type = Stem;
},
{
place = (37,148);
type = Stem;
},
{
place = (335,148);
type = Stem;
}
);
layerId = "DFBB8FEE-91F3-4D9C-B726-DCD68A66B18F";
shapes = (
{
closed = 1;
nodes = (
(176,839,l),
(251,839,l),
(290,943,l),
(296,943,l),
(277,943,l),
(318,839,l),
(391,839,l),
(340,946,l),
(230,946,l)
);
},
{
closed = 1;
nodes = (
(36,93,l),
(69,12,o),
(182,-15,o),
(261,-15,cs),
(386,-15,o),
(502,45,o),
(502,184,cs),
(502,333,o),
(363,353,o),
(255,401,c),
(254,401,l),
(198,422,o),
(175,473,o),
(175,530,cs),
(175,588,o),
(208,661,o),
(275,661,cs),
(328,661,o),
(372,613,o),
(393,568,c),
(475,626,l),
(449,693,o),
(352,712,o),
(288,712,cs),
(176,712,o),
(58,655,o),
(58,528,cs),
(58,279,o),
(384,409,o),
(384,171,cs),
(384,105,o),
(348,36,o),
(274,36,cs),
(205,36,o),
(148,96,o),
(121,155,c)
);
}
);
width = 525;
}
);
leftKerningGroup = S2;
rightKerningGroup = S;
unicode = 348;
},
{
glyphname = uni0218;
layers = (
{
hints = (
{
horizontal = 1;
place = (-179,113);
type = Stem;
},
{
horizontal = 1;
place = (8,83);
type = Stem;
},
{
horizontal = 1;
place = (608,83);
type = Stem;
},
{
place = (37,148);
type = Stem;
},
{
place = (335,148);
type = Stem;
}
);
layerId = "DFBB8FEE-91F3-4D9C-B726-DCD68A66B18F";
shapes = (
{
closed = 1;
nodes = (
(188,-225,l),
(242,-225,l),
(289,-140,l),
(204,-140,l)
);
},
{
closed = 1;
nodes = (
(36,93,l),
(69,12,o),
(182,-15,o),
(261,-15,cs),
(386,-15,o),
(502,45,o),
(502,184,cs),
(502,333,o),
(363,353,o),
(255,401,c),
(254,401,l),
(198,422,o),
(175,473,o),
(175,530,cs),
(175,588,o),
(208,661,o),
(275,661,cs),
(328,661,o),
(372,613,o),
(393,568,c),
(475,626,l),
(449,693,o),
(352,712,o),
(288,712,cs),
(176,712,o),
(58,655,o),
(58,528,cs),
(58,279,o),
(384,409,o),
(384,171,cs),
(384,105,o),
(348,36,o),
(274,36,cs),
(205,36,o),
(148,96,o),
(121,155,c)
);
}
);
width = 525;
}
);
leftKerningGroup = S2;
rightKerningGroup = S;
unicode = 536;
},
{
glyphname = uni1E62;
layers = (
{
hints = (
{
horizontal = 1;
place = (-192,117);
type = Stem;
},
{
horizontal = 1;
place = (8,83);
type = Stem;
},
{
horizontal = 1;
place = (608,83);
type = Stem;
},
{
place = (37,148);
type = Stem;
},
{
place = (167,167);
type = Stem;
},
{
place = (335,148);
type = Stem;
}
);
layerId = "DFBB8FEE-91F3-4D9C-B726-DCD68A66B18F";
shapes = (
{
closed = 1;
nodes = (
(198,-227,o),
(245,-239,o),
(270,-239,cs),
(296,-239,o),
(335,-228,o),
(335,-196,cs),
(335,-164,o),
(293,-150,o),
(267,-150,cs),
(242,-150,o),
(198,-164,o),
(198,-195,cs)
);
},
{
closed = 1;
nodes = (
(36,93,l),
(69,12,o),
(182,-15,o),
(261,-15,cs),
(386,-15,o),
(502,45,o),
(502,184,cs),
(502,333,o),
(363,353,o),
(255,401,c),
(254,401,l),
(198,422,o),
(175,473,o),
(175,530,cs),
(175,588,o),
(208,661,o),
(275,661,cs),
(328,661,o),
(372,613,o),
(393,568,c),
(475,626,l),
(449,693,o),
(352,712,o),
(288,712,cs),
(176,712,o),
(58,655,o),
(58,528,cs),
(58,279,o),
(384,409,o),
(384,171,cs),
(384,105,o),
(348,36,o),
(274,36,cs),
(205,36,o),
(148,96,o),
(121,155,c)
);
}
);
width = 525;
}
);
leftKerningGroup = S2;
rightKerningGroup = S;
unicode = 7778;
},
{
glyphname = uni1E9E;
layers = (
{
hints = (
{
horizontal = 1;
place = (8,79);
type = Stem;
},
{
horizontal = 1;
place = (8,13);
type = Stem;
},
{
horizontal = 1;
place = (598,83);
type = Stem;
},
{
place = (-104,144);
type = Stem;
},
{
place = (273,139);
type = Stem;
}
);
layerId = "DFBB8FEE-91F3-4D9C-B726-DCD68A66B18F";
shapes = (
{
closed = 1;
nodes = (
(60,0,l),
(172,0,l),
(172,432,ls),
(172,535,o),
(187,649,o),
(317,649,cs),
(452,649,l),
(450,611,l),
(470,611,l),
(452,611,l),
(434,590,o),
(416,568,o),
(398,546,c),
(415,546,l),
(397,546,l),
(293,346,l),
(309,346,l),
(297,346,l),
(411,346,o),
(465,312,o),
(465,192,cs),
(465,130,o),
(438,32,o),
(361,32,cs),
(331,32,o),
(301,47,o),
(280,67,c),
(244,6,l),
(272,-15,o),
(308,-15,o),
(342,-15,cs),
(464,-15,o),
(573,50,o),
(573,183,cs),
(573,276,o),
(501,373,o),
(401,367,c),
(420,367,l),
(421,399,l),
(401,399,l),
(420,399,l),
(573,700,l),
(317,700,ls),
(144,700,o),
(60,617,o),
(60,444,cs)
);
}
);
width = 597;
}
);
leftKerningGroup = B;
unicode = 7838;
},
{
glyphname = uni018F;
layers = (
{
hints = (
{
horizontal = 1;
place = (4,85);
type = Stem;
},
{
horizontal = 1;
place = (304,79);
type = Stem;
},
{
horizontal = 1;
place = (600,90);
type = Stem;
},
{
place = (22,713);
type = Stem;
}
);
layerId = "DFBB8FEE-91F3-4D9C-B726-DCD68A66B18F";
shapes = (
{
closed = 1;
nodes = (
(53,364,l),
(53,367,l),
(58,367,l),
(39,367,l),
(39,347,ls),
(39,155,o),
(166,-19,o),
(369,-19,cs),
(581,-19,o),
(705,166,o),
(705,363,cs),
(705,572,o),
(576,711,o),
(364,711,cs),
(272,711,o),
(159,684,o),
(104,604,c),
(186,532,l),
(221,601,o),
(294,652,o),
(373,652,cs),
(520,652,o),
(574,485,o),
(577,364,c),
(596,364,l)
);
},
{
closed = 1;
nodes = (
(166,288,l),
(165,314,l),
(145,314,l),
(296,314,o),
(447,322,o),
(598,322,c),
(579,322,l),
(570,206,o),
(520,34,o),
(376,34,cs),
(251,34,o),
(175,179,o),
(167,288,c)
);
}
);
width = 727;
}
);
leftKerningGroup = C2;
rightKerningGroup = D;
unicode = 399;
},
{
glyphname = T;
layers = (
{
hints = (
{
horizontal = 1;
place = (21,-20);
target = down;
type = TopGhost;
},
{
horizontal = 1;
place = (595,84);
type = Stem;
},
{
place = (48,145);
type = Stem;
}
);
layerId = "DFBB8FEE-91F3-4D9C-B726-DCD68A66B18F";
shapes = (
{
closed = 1;
nodes = (
(249,0,l),
(319,0,l),
(319,622,l),
(339,646,l),
(535,646,l),
(535,696,l),
(33,696,l),
(33,646,l),
(228,646,l),
(249,623,l)
);
}
);
width = 553;
}
);
leftKerningGroup = T2;
rightKerningGroup = T;
unicode = 84;
},
{
glyphname = Tcaron;
layers = (
{
hints = (
{
horizontal = 1;
place = (21,-20);
target = down;
type = TopGhost;
},
{
horizontal = 1;
place = (595,84);
type = Stem;
},
{
horizontal = 1;
place = (767,132);
type = Stem;
},
{
place = (48,145);
type = Stem;
}
);
layerId = "DFBB8FEE-91F3-4D9C-B726-DCD68A66B18F";
shapes = (
{
closed = 1;
nodes = (
(230,839,l),
(339,839,l),
(390,946,l),
(317,946,l),
(277,842,l),
(272,842,l),
(290,842,l),
(251,946,l),
(176,946,l)
);
},
{
closed = 1;
nodes = (
(226,0,l),
(341,0,l),
(341,622,ls),
(341,630,o),
(340,638,o),
(339,646,c),
(535,646,l),
(535,698,l),
(33,698,l),
(33,646,l),
(228,646,l),
(227,638,o),
(226,631,o),
(226,623,cs)
);
}
);
width = 553;
}
);
leftKerningGroup = T2;
rightKerningGroup = T;
unicode = 356;
},
{
glyphname = uni0162;
layers = (
{
hints = (
{
horizontal = 1;
place = (-192,31);
type = Stem;
},
{
horizontal = 1;
place = (21,-20);
target = down;
type = TopGhost;
},
{
horizontal = 1;
place = (595,84);
type = Stem;
},
{
place = (48,145);
type = Stem;
},
{
place = (173,84);
type = Stem;
}
);
layerId = "DFBB8FEE-91F3-4D9C-B726-DCD68A66B18F";
shapes = (
{
closed = 1;
nodes = (
(231,-238,l),
(234,-239,o),
(237,-239,o),
(240,-239,cs),
(277,-239,o),
(352,-239,o),
(352,-186,cs),
(352,-155,o),
(322,-134,o),
(293,-132,c),
(297,-132,l),
(289,-129,o),
(280,-128,o),
(271,-129,c),
(291,-129,l),
(292,-98,l),
(272,-98,l),
(292,-98,l),
(326,-12,l),
(325,0,l),
(306,0,l),
(341,0,l),
(341,622,ls),
(341,630,o),
(340,638,o),
(339,646,c),
(535,646,l),
(535,698,l),
(33,698,l),
(33,646,l),
(228,646,l),
(227,638,o),
(226,631,o),
(226,623,cs),
(226,0,l),
(297,0,l),
(295,-31,l),
(313,-31,l),
(295,-31,l),
(271,-99,l),
(292,-105,o),
(295,-151,o),
(295,-169,cs),
(295,-192,o),
(289,-247,o),
(258,-247,cs),
(250,-247,o),
(241,-243,o),
(235,-238,c)
);
}
);
width = 553;
}
);
leftKerningGroup = T2;
rightKerningGroup = T;
unicode = 354;
},
{
glyphname = uni021A;
layers = (
{
hints = (
{
horizontal = 1;
place = (-179,113);
type = Stem;
},
{
horizontal = 1;
place = (21,-20);
target = down;
type = TopGhost;
},
{
horizontal = 1;
place = (595,84);
type = Stem;
},
{
place = (48,145);
type = Stem;
}
);
layerId = "DFBB8FEE-91F3-4D9C-B726-DCD68A66B18F";
shapes = (
{
closed = 1;
nodes = (
(205,-225,l),
(259,-225,l),
(305,-140,l),
(220,-140,l)
);
},
{
closed = 1;
nodes = (
(226,0,l),
(341,0,l),
(341,622,ls),
(341,630,o),
(340,638,o),
(339,646,c),
(535,646,l),
(535,698,l),
(33,698,l),
(33,646,l),
(228,646,l),
(227,638,o),
(226,631,o),
(226,623,cs)
);
}
);
width = 553;
}
);
leftKerningGroup = T2;
rightKerningGroup = T;
unicode = 538;
},
{
glyphname = uni1E6C;
layers = (
{
hints = (
{
horizontal = 1;
place = (-192,117);
type = Stem;
},
{
horizontal = 1;
place = (21,-20);
target = down;
type = TopGhost;
},
{
horizontal = 1;
place = (595,84);
type = Stem;
},
{
place = (183,167);
type = Stem;
},
{
place = (48,145);
type = Stem;
}
);
layerId = "DFBB8FEE-91F3-4D9C-B726-DCD68A66B18F";
shapes = (
{
closed = 1;
nodes = (
(215,-227,o),
(261,-239,o),
(286,-239,cs),
(312,-239,o),
(352,-228,o),
(352,-196,cs),
(352,-164,o),
(310,-150,o),
(284,-150,cs),
(258,-150,o),
(215,-163,o),
(215,-195,cs)
);
},
{
closed = 1;
nodes = (
(226,0,l),
(341,0,l),
(341,622,ls),
(341,630,o),
(340,638,o),
(339,646,c),
(535,646,l),
(535,698,l),
(33,698,l),
(33,646,l),
(228,646,l),
(227,638,o),
(226,631,o),
(226,623,cs)
);
}
);
width = 553;
}
);
leftKerningGroup = T2;
rightKerningGroup = T;
unicode = 7788;
},
{
glyphname = uni1E6E;
layers = (
{
hints = (
{
horizontal = 1;
place = (-160,48);
type = Stem;
},
{
horizontal = 1;
place = (21,-20);
target = down;
type = TopGhost;
},
{
horizontal = 1;
place = (595,84);
type = Stem;
},
{
place = (48,145);
type = Stem;
}
);
layerId = "DFBB8FEE-91F3-4D9C-B726-DCD68A66B18F";
shapes = (
{
closed = 1;
nodes = (
(145,-203,l),
(422,-203,l),
(422,-192,l),
(145,-192,l)
);
},
{
closed = 1;
nodes = (
(226,0,l),
(341,0,l),
(341,622,ls),
(341,630,o),
(340,638,o),
(339,646,c),
(535,646,l),
(535,698,l),
(33,698,l),
(33,646,l),
(228,646,l),
(227,638,o),
(226,631,o),
(226,623,cs)
);
}
);
width = 553;
}
);
leftKerningGroup = T2;
rightKerningGroup = T;
unicode = 7790;
},
{
glyphname = U;
layers = (
{
anchors = (
{
name = t.uni030C.alt;
position = "{549, 700}";
}
);
hints = (
{
horizontal = 1;
place = (8,86);
type = Stem;
},
{
horizontal = 1;
place = (679,-20);
target = down;
type = TopGhost;
},
{
place = (37,145);
type = Stem;
},
{
place = (414,145);
type = Stem;
}
);
layerId = "DFBB8FEE-91F3-4D9C-B726-DCD68A66B18F";
shapes = (
{
closed = 1;
nodes = (
(77,698,l),
(77,247,ls),
(77,100,o),
(165,-15,o),
(319,-15,cs),
(473,-15,o),
(561,100,o),
(561,247,cs),
(561,698,l),
(491,698,l),
(491,261,ls),
(491,151,o),
(449,35,o),
(320,35,cs),
(190,35,o),
(147,149,o),
(147,261,cs),
(147,698,l)
);
}
);
width = 621;
}
);
leftKerningGroup = U;
rightKerningGroup = J;
unicode = 85;
},
{
glyphname = Uacute;
layers = (
{
anchors = (
{
name = t.uni030C.alt;
position = "{549, 700}";
}
);
hints = (
{
horizontal = 1;
place = (8,86);
type = Stem;
},
{
horizontal = 1;
place = (679,-20);
target = down;
type = TopGhost;
},
{
horizontal = 1;
place = (751,132);
type = Stem;
},
{
place = (37,145);
type = Stem;
},
{
place = (414,145);
type = Stem;
}
);
layerId = "DFBB8FEE-91F3-4D9C-B726-DCD68A66B18F";
shapes = (
{
closed = 1;
nodes = (
(295,821,l),
(363,821,l),
(410,927,l),
(318,927,l)
);
},
{
closed = 1;
nodes = (
(54,698,l),
(54,247,ls),
(54,89,o),
(162,-15,o),
(319,-15,cs),
(476,-15,o),
(584,89,o),
(584,247,cs),
(584,698,l),
(467,698,l),
(467,264,ls),
(467,169,o),
(438,39,o),
(319,39,cs),
(199,39,o),
(170,168,o),
(170,264,cs),
(170,698,l)
);
}
);
width = 621;
}
);
leftKerningGroup = U;
rightKerningGroup = J;
unicode = 218;
},
{
glyphname = Ubreve;
layers = (
{
anchors = (
{
name = t.uni030C.alt;
position = "{549, 700}";
}
);
hints = (
{
horizontal = 1;
place = (8,86);
type = Stem;
},
{
horizontal = 1;
place = (679,-20);
target = down;
type = TopGhost;
},
{
horizontal = 1;
place = (742,41);
type = Stem;
},
{
horizontal = 1;
place = (742,97);
type = Stem;
},
{
place = (37,145);
type = Stem;
},
{
place = (34,112);
type = Stem;
},
{
place = (223,112);
type = Stem;
},
{
place = (414,145);
type = Stem;
}
);
layerId = "DFBB8FEE-91F3-4D9C-B726-DCD68A66B18F";
shapes = (
{
closed = 1;
nodes = (
(177,879,l),
(181,823,o),
(276,812,o),
(319,812,cs),
(363,812,o),
(454,823,o),
(460,879,c),
(375,879,l),
(371,851,o),
(353,815,o),
(320,815,cs),
(286,815,o),
(267,850,o),
(262,879,c)
);
},
{
closed = 1;
nodes = (
(54,698,l),
(54,247,ls),
(54,89,o),
(162,-15,o),
(319,-15,cs),
(476,-15,o),
(584,89,o),
(584,247,cs),
(584,698,l),
(467,698,l),
(467,264,ls),
(467,169,o),
(438,39,o),
(319,39,cs),
(199,39,o),
(170,168,o),
(170,264,cs),
(170,698,l)
);
}
);
width = 621;
}
);
leftKerningGroup = U;
rightKerningGroup = J;
unicode = 364;
},
{
glyphname = Ucircumflex;
layers = (
{
anchors = (
{
name = t.uni030C.alt;
position = "{549, 700}";
}
);
hints = (
{
horizontal = 1;
place = (8,86);
type = Stem;
},
{
horizontal = 1;
place = (679,-20);
target = down;
type = TopGhost;
},
{
horizontal = 1;
place = (751,132);
type = Stem;
},
{
place = (37,145);
type = Stem;
},
{
place = (414,145);
type = Stem;
}
);
layerId = "DFBB8FEE-91F3-4D9C-B726-DCD68A66B18F";
shapes = (
{
closed = 1;
nodes = (
(211,821,l),
(285,821,l),
(325,925,l),
(330,925,l),
(313,925,l),
(352,821,l),
(427,821,l),
(373,927,l),
(264,927,l)
);
},
{
closed = 1;
nodes = (
(54,698,l),
(54,247,ls),
(54,89,o),
(162,-15,o),
(319,-15,cs),
(476,-15,o),
(584,89,o),
(584,247,cs),
(584,698,l),
(467,698,l),
(467,264,ls),
(467,169,o),
(438,39,o),
(319,39,cs),
(199,39,o),
(170,168,o),
(170,264,cs),
(170,698,l)
);
}
);
width = 621;
}
);
leftKerningGroup = U;
rightKerningGroup = J;
unicode = 219;
},
{
glyphname = Udieresis;
layers = (
{
anchors = (
{
name = t.uni030C.alt;
position = "{549, 700}";
}
);
hints = (
{
horizontal = 1;
place = (8,86);
type = Stem;
},
{
horizontal = 1;
place = (679,-20);
target = down;
type = TopGhost;
},
{
horizontal = 1;
place = (748,117);
type = Stem;
},
{
place = (37,145);
type = Stem;
},
{
place = (122,49);
type = Stem;
},
{
place = (122,167);
type = Stem;
},
{
place = (143,167);
type = Stem;
},
{
place = (414,49);
type = Stem;
},
{
place = (414,145);
type = Stem;
}
);
layerId = "DFBB8FEE-91F3-4D9C-B726-DCD68A66B18F";
shapes = (
{
closed = 1;
nodes = (
(353,830,o),
(397,818,o),
(423,818,cs),
(449,818,o),
(489,830,o),
(489,862,cs),
(489,895,o),
(448,907,o),
(421,907,cs),
(395,907,o),
(353,895,o),
(353,863,cs)
);
},
{
closed = 1;
nodes = (
(149,830,o),
(189,818,o),
(216,818,cs),
(242,818,o),
(285,830,o),
(285,862,cs),
(285,894,o),
(241,907,o),
(215,907,cs),
(189,907,o),
(149,895,o),
(149,863,cs)
);
},
{
closed = 1;
nodes = (
(54,698,l),
(54,247,ls),
(54,89,o),
(162,-15,o),
(319,-15,cs),
(476,-15,o),
(584,89,o),
(584,247,cs),
(584,698,l),
(467,698,l),
(467,264,ls),
(467,169,o),
(438,39,o),
(319,39,cs),
(199,39,o),
(170,168,o),
(170,264,cs),
(170,698,l)
);
}
);
width = 621;
}
);
leftKerningGroup = U;
rightKerningGroup = J;
unicode = 220;
},
{
glyphname = uni1EE4;
layers = (
{
anchors = (
{
name = t.uni030C.alt;
position = "{549, 700}";
}
);
hints = (
{
horizontal = 1;
place = (-192,117);
type = Stem;
},
{
horizontal = 1;
place = (8,86);
type = Stem;
},
{
horizontal = 1;
place = (679,-20);
target = down;
type = TopGhost;
},
{
place = (37,145);
type = Stem;
},
{
place = (49,167);
type = Stem;
},
{
place = (414,145);
type = Stem;
}
);
layerId = "DFBB8FEE-91F3-4D9C-B726-DCD68A66B18F";
shapes = (
{
closed = 1;
nodes = (
(249,-228,o),
(294,-239,o),
(320,-239,cs),
(346,-239,o),
(386,-228,o),
(386,-196,cs),
(386,-163,o),
(345,-150,o),
(318,-150,cs),
(292,-150,o),
(249,-163,o),
(249,-195,cs)
);
},
{
closed = 1;
nodes = (
(54,698,l),
(54,247,ls),
(54,89,o),
(162,-15,o),
(319,-15,cs),
(476,-15,o),
(584,89,o),
(584,247,cs),
(584,698,l),
(467,698,l),
(467,264,ls),
(467,169,o),
(438,39,o),
(319,39,cs),
(199,39,o),
(170,168,o),
(170,264,cs),
(170,698,l)
);
}
);
width = 621;
}
);
leftKerningGroup = U;
rightKerningGroup = J;
unicode = 7908;
},
{
glyphname = Ugrave;
layers = (
{
anchors = (
{
name = t.uni030C.alt;
position = "{549, 700}";
}
);
hints = (
{
horizontal = 1;
place = (8,86);
type = Stem;
},
{
horizontal = 1;
place = (679,-20);
target = down;
type = TopGhost;
},
{
horizontal = 1;
place = (751,132);
type = Stem;
},
{
place = (37,145);
type = Stem;
},
{
place = (414,145);
type = Stem;
}
);
layerId = "DFBB8FEE-91F3-4D9C-B726-DCD68A66B18F";
shapes = (
{
closed = 1;
nodes = (
(275,821,l),
(351,821,l),
(332,927,l),
(223,927,l)
);
},
{
closed = 1;
nodes = (
(54,698,l),
(54,247,ls),
(54,89,o),
(162,-15,o),
(319,-15,cs),
(476,-15,o),
(584,89,o),
(584,247,cs),
(584,698,l),
(467,698,l),
(467,264,ls),
(467,169,o),
(438,39,o),
(319,39,cs),
(199,39,o),
(170,168,o),
(170,264,cs),
(170,698,l)
);
}
);
width = 621;
}
);
leftKerningGroup = U;
rightKerningGroup = J;
unicode = 217;
},
{
glyphname = uni1EE6;
layers = (
{
anchors = (
{
name = t.uni030C.alt;
position = "{549, 700}";
}
);
hints = (
{
horizontal = 1;
place = (8,86);
type = Stem;
},
{
horizontal = 1;
place = (679,-20);
target = down;
type = TopGhost;
},
{
horizontal = 1;
place = (742,33);
type = Stem;
},
{
horizontal = 1;
place = (713,-20);
target = down;
type = TopGhost;
},
{
horizontal = 1;
place = (844,66);
type = Stem;
},
{
horizontal = 1;
place = (874,36);
type = Stem;
},
{
place = (37,145);
type = Stem;
},
{
place = (182,89);
type = Stem;
},
{
place = (307,92);
type = Stem;
},
{
place = (414,145);
type = Stem;
}
);
layerId = "DFBB8FEE-91F3-4D9C-B726-DCD68A66B18F";
shapes = (
{
closed = 1;
nodes = (
(300,814,l),
(282,814,l),
(295,814,o),
(307,812,o),
(320,812,cs),
(365,812,o),
(415,833,o),
(415,885,cs),
(415,943,o),
(354,958,o),
(307,958,cs),
(284,958,o),
(229,953,o),
(222,926,c),
(283,926,l),
(286,940,o),
(295,959,o),
(312,959,cs),
(342,959,o),
(350,903,o),
(350,881,cs),
(350,855,o),
(342,806,o),
(308,806,c),
(310,805,l),
(294,812,l),
(281,812,l),
(299,812,l)
);
},
{
closed = 1;
nodes = (
(54,698,l),
(54,247,ls),
(54,89,o),
(162,-15,o),
(319,-15,cs),
(476,-15,o),
(584,89,o),
(584,247,cs),
(584,698,l),
(467,698,l),
(467,264,ls),
(467,169,o),
(438,39,o),
(319,39,cs),
(199,39,o),
(170,168,o),
(170,264,cs),
(170,698,l)
);
}
);
width = 621;
}
);
leftKerningGroup = U;
rightKerningGroup = J;
unicode = 7910;
},
{
glyphname = Uhorn;
layers = (
{
anchors = (
{
name = t.uni030C.alt;
position = "{549, 700}";
}
);
hints = (
{
horizontal = 1;
place = (8,86);
type = Stem;
},
{
horizontal = 1;
place = (679,-20);
target = down;
type = TopGhost;
},
{
place = (37,145);
type = Stem;
},
{
place = (414,145);
type = Stem;
},
{
place = (412,119);
type = Stem;
}
);
layerId = "DFBB8FEE-91F3-4D9C-B726-DCD68A66B18F";
shapes = (
{
closed = 1;
nodes = (
(54,698,l),
(54,247,ls),
(54,89,o),
(162,-15,o),
(319,-15,cs),
(476,-15,o),
(584,89,o),
(584,247,cs),
(584,686,ls),
(584,689,o),
(583,693,o),
(583,696,c),
(563,696,l),
(572,696,o),
(581,697,o),
(589,700,cs),
(654,722,o),
(685,765,o),
(685,834,c),
(596,834,l),
(593,789,l),
(613,789,l),
(593,789,l),
(590,765,o),
(586,740,o),
(570,721,c),
(584,721,l),
(572,721,l),
(559,709,o),
(542,702,o),
(525,699,c),
(529,699,l),
(527,699,l),
(532,698,l),
(467,698,l),
(467,264,ls),
(467,168,o),
(439,39,o),
(319,39,cs),
(199,39,o),
(170,168,o),
(170,264,cs),
(170,698,l)
);
}
);
width = 628;
}
);
leftKerningGroup = U;
unicode = 431;
},
{
glyphname = uni1EE8;
layers = (
{
anchors = (
{
name = t.uni030C.alt;
position = "{549, 700}";
}
);
hints = (
{
horizontal = 1;
place = (8,86);
type = Stem;
},
{
horizontal = 1;
place = (679,-20);
target = down;
type = TopGhost;
},
{
horizontal = 1;
place = (751,132);
type = Stem;
},
{
place = (37,145);
type = Stem;
},
{
place = (414,145);
type = Stem;
},
{
place = (412,119);
type = Stem;
}
);
layerId = "DFBB8FEE-91F3-4D9C-B726-DCD68A66B18F";
shapes = (
{
closed = 1;
nodes = (
(295,821,l),
(363,821,l),
(410,927,l),
(318,927,l)
);
},
{
closed = 1;
nodes = (
(54,698,l),
(54,247,ls),
(54,89,o),
(162,-15,o),
(319,-15,cs),
(476,-15,o),
(584,89,o),
(584,247,cs),
(584,686,ls),
(584,689,o),
(583,693,o),
(583,696,c),
(563,696,l),
(572,696,o),
(581,697,o),
(589,700,cs),
(654,722,o),
(685,765,o),
(685,834,c),
(596,834,l),
(593,789,l),
(613,789,l),
(593,789,l),
(590,765,o),
(586,740,o),
(570,721,c),
(584,721,l),
(572,721,l),
(559,709,o),
(542,702,o),
(525,699,c),
(529,699,l),
(527,699,l),
(532,698,l),
(467,698,l),
(467,264,ls),
(467,168,o),
(439,39,o),
(319,39,cs),
(199,39,o),
(170,168,o),
(170,264,cs),
(170,698,l)
);
}
);
width = 628;
}
);
leftKerningGroup = U;
rightKerningGroup = J;
unicode = 7912;
},
{
glyphname = uni1EF0;
layers = (
{
anchors = (
{
name = t.uni030C.alt;
position = "{549, 700}";
}
);
hints = (
{
horizontal = 1;
place = (-192,117);
type = Stem;
},
{
horizontal = 1;
place = (8,86);
type = Stem;
},
{
horizontal = 1;
place = (679,-20);
target = down;
type = TopGhost;
},
{
place = (37,145);
type = Stem;
},
{
place = (49,167);
type = Stem;
},
{
place = (414,145);
type = Stem;
},
{
place = (412,119);
type = Stem;
}
);
layerId = "DFBB8FEE-91F3-4D9C-B726-DCD68A66B18F";
shapes = (
{
closed = 1;
nodes = (
(249,-228,o),
(294,-239,o),
(320,-239,cs),
(346,-239,o),
(386,-228,o),
(386,-196,cs),
(386,-163,o),
(345,-150,o),
(318,-150,cs),
(292,-150,o),
(249,-163,o),
(249,-195,cs)
);
},
{
closed = 1;
nodes = (
(54,698,l),
(54,247,ls),
(54,89,o),
(162,-15,o),
(319,-15,cs),
(476,-15,o),
(584,89,o),
(584,247,cs),
(584,686,ls),
(584,689,o),
(583,693,o),
(583,696,c),
(563,696,l),
(572,696,o),
(581,697,o),
(589,700,cs),
(654,722,o),
(685,765,o),
(685,834,c),
(596,834,l),
(593,789,l),
(613,789,l),
(593,789,l),
(590,765,o),
(586,740,o),
(570,721,c),
(584,721,l),
(572,721,l),
(559,709,o),
(542,702,o),
(525,699,c),
(529,699,l),
(527,699,l),
(532,698,l),
(467,698,l),
(467,264,ls),
(467,168,o),
(439,39,o),
(319,39,cs),
(199,39,o),
(170,168,o),
(170,264,cs),
(170,698,l)
);
}
);
width = 628;
}
);
leftKerningGroup = U;
rightKerningGroup = J;
unicode = 7920;
},
{
glyphname = uni1EEA;
layers = (
{
anchors = (
{
name = t.uni030C.alt;
position = "{549, 700}";
}
);
hints = (
{
horizontal = 1;
place = (8,86);
type = Stem;
},
{
horizontal = 1;
place = (679,-20);
target = down;
type = TopGhost;
},
{
horizontal = 1;
place = (751,132);
type = Stem;
},
{
place = (37,145);
type = Stem;
},
{
place = (414,145);
type = Stem;
},
{
place = (412,119);
type = Stem;
}
);
layerId = "DFBB8FEE-91F3-4D9C-B726-DCD68A66B18F";
shapes = (
{
closed = 1;
nodes = (
(275,821,l),
(351,821,l),
(332,927,l),
(223,927,l)
);
},
{
closed = 1;
nodes = (
(54,698,l),
(54,247,ls),
(54,89,o),
(162,-15,o),
(319,-15,cs),
(476,-15,o),
(584,89,o),
(584,247,cs),
(584,686,ls),
(584,689,o),
(583,693,o),
(583,696,c),
(563,696,l),
(572,696,o),
(581,697,o),
(589,700,cs),
(654,722,o),
(685,765,o),
(685,834,c),
(596,834,l),
(593,789,l),
(613,789,l),
(593,789,l),
(590,765,o),
(586,740,o),
(570,721,c),
(584,721,l),
(572,721,l),
(559,709,o),
(542,702,o),
(525,699,c),
(529,699,l),
(527,699,l),
(532,698,l),
(467,698,l),
(467,264,ls),
(467,168,o),
(439,39,o),
(319,39,cs),
(199,39,o),
(170,168,o),
(170,264,cs),
(170,698,l)
);
}
);
width = 628;
}
);
leftKerningGroup = U;
rightKerningGroup = J;
unicode = 7914;
},
{
glyphname = uni1EEC;
layers = (
{
anchors = (
{
name = t.uni030C.alt;
position = "{549, 700}";
}
);
hints = (
{
horizontal = 1;
place = (8,86);
type = Stem;
},
{
horizontal = 1;
place = (679,-20);
target = down;
type = TopGhost;
},
{
horizontal = 1;
place = (742,33);
type = Stem;
},
{
horizontal = 1;
place = (713,-20);
target = down;
type = TopGhost;
},
{
horizontal = 1;
place = (844,66);
type = Stem;
},
{
horizontal = 1;
place = (874,36);
type = Stem;
},
{
place = (37,145);
type = Stem;
},
{
place = (182,89);
type = Stem;
},
{
place = (307,92);
type = Stem;
},
{
place = (414,145);
type = Stem;
},
{
place = (412,119);
type = Stem;
}
);
layerId = "DFBB8FEE-91F3-4D9C-B726-DCD68A66B18F";
shapes = (
{
closed = 1;
nodes = (
(300,814,l),
(282,814,l),
(295,814,o),
(307,812,o),
(320,812,cs),
(365,812,o),
(415,833,o),
(415,885,cs),
(415,943,o),
(354,958,o),
(307,958,cs),
(284,958,o),
(229,953,o),
(222,926,c),
(283,926,l),
(286,940,o),
(295,959,o),
(312,959,cs),
(342,959,o),
(350,903,o),
(350,881,cs),
(350,855,o),
(342,806,o),
(308,806,c),
(310,805,l),
(294,812,l),
(281,812,l),
(299,812,l)
);
},
{
closed = 1;
nodes = (
(54,698,l),
(54,247,ls),
(54,89,o),
(162,-15,o),
(319,-15,cs),
(476,-15,o),
(584,89,o),
(584,247,cs),
(584,686,ls),
(584,689,o),
(583,693,o),
(583,696,c),
(563,696,l),
(572,696,o),
(581,697,o),
(589,700,cs),
(654,722,o),
(685,765,o),
(685,834,c),
(596,834,l),
(593,789,l),
(613,789,l),
(593,789,l),
(590,765,o),
(586,740,o),
(570,721,c),
(584,721,l),
(572,721,l),
(559,709,o),
(542,702,o),
(525,699,c),
(529,699,l),
(527,699,l),
(532,698,l),
(467,698,l),
(467,264,ls),
(467,168,o),
(439,39,o),
(319,39,cs),
(199,39,o),
(170,168,o),
(170,264,cs),
(170,698,l)
);
}
);
width = 628;
}
);
leftKerningGroup = U;
rightKerningGroup = J;
unicode = 7916;
},
{
glyphname = uni1EEE;
layers = (
{
anchors = (
{
name = t.uni030C.alt;
position = "{549, 700}";
}
);
hints = (
{
horizontal = 1;
place = (8,86);
type = Stem;
},
{
horizontal = 1;
place = (679,-20);
target = down;
type = TopGhost;
},
{
horizontal = 1;
place = (742,50);
type = Stem;
},
{
horizontal = 1;
place = (742,101);
type = Stem;
},
{
horizontal = 1;
place = (806,48);
type = Stem;
},
{
place = (37,145);
type = Stem;
},
{
place = (45,64);
type = Stem;
},
{
place = (389,92);
type = Stem;
},
{
place = (414,145);
type = Stem;
},
{
place = (412,119);
type = Stem;
}
);
layerId = "DFBB8FEE-91F3-4D9C-B726-DCD68A66B18F";
shapes = (
{
closed = 1;
nodes = (
(201,827,l),
(206,851,o),
(223,884,o),
(251,884,cs),
(261,884,o),
(271,879,o),
(277,872,c),
(287,869,o),
(295,862,o),
(303,855,c),
(315,855,l),
(304,855,l),
(300,857,l),
(297,855,l),
(299,851,l),
(329,851,l),
(328,852,l),
(317,852,l),
(319,852,l),
(305,852,l),
(304,851,l),
(331,824,o),
(369,812,o),
(406,812,cs),
(450,812,o),
(501,832,o),
(503,883,c),
(436,883,l),
(436,877,o),
(435,872,o),
(432,867,c),
(452,867,l),
(434,867,l),
(429,855,o),
(412,825,o),
(397,825,cs),
(385,825,o),
(373,835,o),
(363,841,c),
(367,841,l),
(364,843,l),
(352,843,l),
(361,843,l),
(356,849,o),
(350,854,o),
(344,859,c),
(331,859,l),
(345,859,l),
(338,866,o),
(330,870,o),
(320,869,c),
(331,869,l),
(317,890,o),
(273,894,o),
(250,894,cs),
(207,894,o),
(143,878,o),
(137,827,c)
);
},
{
closed = 1;
nodes = (
(54,698,l),
(54,247,ls),
(54,89,o),
(162,-15,o),
(319,-15,cs),
(476,-15,o),
(584,89,o),
(584,247,cs),
(584,686,ls),
(584,689,o),
(583,693,o),
(583,696,c),
(563,696,l),
(572,696,o),
(581,697,o),
(589,700,cs),
(654,722,o),
(685,765,o),
(685,834,c),
(596,834,l),
(593,789,l),
(613,789,l),
(593,789,l),
(590,765,o),
(586,740,o),
(570,721,c),
(584,721,l),
(572,721,l),
(559,709,o),
(542,702,o),
(525,699,c),
(529,699,l),
(527,699,l),
(532,698,l),
(467,698,l),
(467,264,ls),
(467,168,o),
(439,39,o),
(319,39,cs),
(199,39,o),
(170,168,o),
(170,264,cs),
(170,698,l)
);
}
);
width = 628;
}
);
leftKerningGroup = U;
rightKerningGroup = J;
unicode = 7918;
},
{
glyphname = Uhungarumlaut;
layers = (
{
anchors = (
{
name = t.uni030C.alt;
position = "{549, 700}";
}
);
hints = (
{
horizontal = 1;
place = (8,86);
type = Stem;
},
{
horizontal = 1;
place = (679,-20);
target = down;
type = TopGhost;
},
{
horizontal = 1;
place = (751,132);
type = Stem;
},
{
place = (37,145);
type = Stem;
},
{
place = (414,145);
type = Stem;
}
);
layerId = "DFBB8FEE-91F3-4D9C-B726-DCD68A66B18F";
shapes = (
{
closed = 1;
nodes = (
(375,821,l),
(424,821,l),
(476,927,l),
(391,927,l)
);
},
{
closed = 1;
nodes = (
(215,821,l),
(266,821,l),
(315,927,l),
(231,927,l)
);
},
{
closed = 1;
nodes = (
(54,698,l),
(54,247,ls),
(54,89,o),
(162,-15,o),
(319,-15,cs),
(476,-15,o),
(584,89,o),
(584,247,cs),
(584,698,l),
(467,698,l),
(467,264,ls),
(467,169,o),
(438,39,o),
(319,39,cs),
(199,39,o),
(170,168,o),
(170,264,cs),
(170,698,l)
);
}
);
width = 621;
}
);
leftKerningGroup = U;
rightKerningGroup = J;
unicode = 368;
},
{
glyphname = Umacron;
layers = (
{
anchors = (
{
name = t.uni030C.alt;
position = "{549, 700}";
}
);
hints = (
{
horizontal = 1;
place = (8,86);
type = Stem;
},
{
horizontal = 1;
place = (679,-20);
target = down;
type = TopGhost;
},
{
horizontal = 1;
place = (783,48);
type = Stem;
},
{
place = (37,145);
type = Stem;
},
{
place = (153,14);
type = Stem;
},
{
place = (414,16);
type = Stem;
},
{
place = (414,145);
type = Stem;
}
);
layerId = "DFBB8FEE-91F3-4D9C-B726-DCD68A66B18F";
shapes = (
{
closed = 1;
nodes = (
(182,857,l),
(457,857,l),
(457,869,l),
(182,869,l)
);
},
{
closed = 1;
nodes = (
(54,698,l),
(54,247,ls),
(54,89,o),
(162,-15,o),
(319,-15,cs),
(476,-15,o),
(584,89,o),
(584,247,cs),
(584,698,l),
(467,698,l),
(467,264,ls),
(467,169,o),
(438,39,o),
(319,39,cs),
(199,39,o),
(170,168,o),
(170,264,cs),
(170,698,l)
);
}
);
width = 621;
}
);
leftKerningGroup = U;
rightKerningGroup = J;
unicode = 362;
},
{
glyphname = Uogonek;
layers = (
{
anchors = (
{
name = t.uni030C.alt;
position = "{549, 700}";
}
);
hints = (
{
horizontal = 1;
place = (-193,59);
type = Stem;
},
{
horizontal = 1;
place = (8,86);
type = Stem;
},
{
horizontal = 1;
place = (679,-20);
target = down;
type = TopGhost;
},
{
place = (37,145);
type = Stem;
},
{
place = (250,99);
type = Stem;
},
{
place = (414,145);
type = Stem;
}
);
layerId = "DFBB8FEE-91F3-4D9C-B726-DCD68A66B18F";
shapes = (
{
closed = 1;
nodes = (
(358,-15,l),
(356,-53,l),
(374,-53,l),
(358,-53,l),
(329,-86,o),
(288,-119,o),
(288,-167,cs),
(288,-224,o),
(347,-240,o),
(393,-240,cs),
(411,-240,o),
(429,-239,o),
(446,-233,c),
(442,-218,l),
(433,-218,l),
(443,-211,l),
(439,-211,l),
(436,-217,o),
(430,-217,o),
(424,-217,cs),
(375,-217,o),
(359,-166,o),
(359,-126,cs),
(359,-94,o),
(366,-59,o),
(391,-37,c),
(386,-37,l),
(386,-38,l),
(372,-38,l),
(392,-38,l),
(400,-31,l),
(397,-30,l),
(398,-30,l),
(461,18,l),
(462,20,l),
(432,20,l),
(432,19,l),
(447,18,l),
(445,18,l),
(453,18,l),
(537,55,o),
(584,159,o),
(584,247,cs),
(584,698,l),
(467,698,l),
(467,264,ls),
(467,169,o),
(438,39,o),
(319,39,cs),
(199,39,o),
(170,168,o),
(170,264,cs),
(170,698,l),
(54,698,l),
(54,247,ls),
(54,91,o),
(161,-15,o),
(317,-15,cs)
);
}
);
width = 621;
}
);
leftKerningGroup = U;
rightKerningGroup = J;
unicode = 370;
},
{
glyphname = Uring;
layers = (
{
anchors = (
{
name = t.uni030C.alt;
position = "{549, 700}";
}
);
hints = (
{
horizontal = 1;
place = (8,86);
type = Stem;
},
{
horizontal = 1;
place = (679,-20);
target = down;
type = TopGhost;
},
{
horizontal = 1;
place = (742,25);
type = Stem;
},
{
horizontal = 1;
place = (884,26);
type = Stem;
},
{
place = (37,145);
type = Stem;
},
{
place = (119,74);
type = Stem;
},
{
place = (319,76);
type = Stem;
},
{
place = (414,145);
type = Stem;
}
);
layerId = "DFBB8FEE-91F3-4D9C-B726-DCD68A66B18F";
shapes = (
{
closed = 1;
nodes = (
(226,837,o),
(278,812,o),
(320,812,cs),
(362,812,o),
(413,837,o),
(413,885,cs),
(413,933,o),
(362,958,o),
(320,958,cs),
(279,958,o),
(226,932,o),
(226,885,cs)
);
},
{
closed = 1;
nodes = (
(283,797,o),
(272,858,o),
(272,885,cs),
(272,912,o),
(284,971,o),
(319,971,cs),
(354,971,o),
(364,911,o),
(364,885,cs),
(364,859,o),
(354,797,o),
(319,797,cs)
);
},
{
closed = 1;
nodes = (
(54,698,l),
(54,247,ls),
(54,89,o),
(162,-15,o),
(319,-15,cs),
(476,-15,o),
(584,89,o),
(584,247,cs),
(584,698,l),
(467,698,l),
(467,264,ls),
(467,169,o),
(438,39,o),
(319,39,cs),
(199,39,o),
(170,168,o),
(170,264,cs),
(170,698,l)
);
}
);
width = 621;
}
);
leftKerningGroup = U;
rightKerningGroup = J;
unicode = 366;
},
{
glyphname = Utilde;
layers = (
{
anchors = (
{
name = t.uni030C.alt;
position = "{549, 700}";
}
);
hints = (
{
horizontal = 1;
place = (8,86);
type = Stem;
},
{
horizontal = 1;
place = (679,-20);
target = down;
type = TopGhost;
},
{
horizontal = 1;
place = (742,50);
type = Stem;
},
{
horizontal = 1;
place = (742,101);
type = Stem;
},
{
horizontal = 1;
place = (806,48);
type = Stem;
},
{
place = (37,145);
type = Stem;
},
{
place = (45,64);
type = Stem;
},
{
place = (389,92);
type = Stem;
},
{
place = (414,145);
type = Stem;
}
);
layerId = "DFBB8FEE-91F3-4D9C-B726-DCD68A66B18F";
shapes = (
{
closed = 1;
nodes = (
(201,827,l),
(206,851,o),
(223,884,o),
(251,884,cs),
(261,884,o),
(271,879,o),
(277,872,c),
(287,869,o),
(295,862,o),
(303,855,c),
(315,855,l),
(304,855,l),
(300,857,l),
(297,855,l),
(299,851,l),
(329,851,l),
(328,852,l),
(317,852,l),
(319,852,l),
(305,852,l),
(304,851,l),
(331,824,o),
(369,812,o),
(406,812,cs),
(450,812,o),
(501,832,o),
(503,883,c),
(436,883,l),
(436,877,o),
(435,872,o),
(432,867,c),
(452,867,l),
(434,867,l),
(429,855,o),
(412,825,o),
(397,825,cs),
(385,825,o),
(373,835,o),
(363,841,c),
(367,841,l),
(364,843,l),
(352,843,l),
(361,843,l),
(356,849,o),
(350,854,o),
(344,859,c),
(331,859,l),
(345,859,l),
(338,866,o),
(330,870,o),
(320,869,c),
(331,869,l),
(317,890,o),
(273,894,o),
(250,894,cs),
(207,894,o),
(143,878,o),
(137,827,c)
);
},
{
closed = 1;
nodes = (
(54,698,l),
(54,247,ls),
(54,89,o),
(162,-15,o),
(319,-15,cs),
(476,-15,o),
(584,89,o),
(584,247,cs),
(584,698,l),
(467,698,l),
(467,264,ls),
(467,169,o),
(438,39,o),
(319,39,cs),
(199,39,o),
(170,168,o),
(170,264,cs),
(170,698,l)
);
}
);
width = 621;
}
);
leftKerningGroup = U;
rightKerningGroup = J;
unicode = 360;
},
{
glyphname = V;
layers = (
{
hints = (
{
horizontal = 1;
place = (21,-20);
target = down;
type = TopGhost;
},
{
horizontal = 1;
place = (679,-20);
target = down;
type = TopGhost;
},
{
place = (-26,696);
type = Stem;
}
);
layerId = "DFBB8FEE-91F3-4D9C-B726-DCD68A66B18F";
shapes = (
{
closed = 1;
nodes = (
(257,0,l),
(383,0,l),
(621,698,l),
(506,698,l),
(447,511,o),
(381,325,o),
(335,134,c),
(351,134,l),
(335,134,l),
(318,39,l),
(308,39,l),
(323,39,l),
(313,91,o),
(304,143,o),
(291,194,cs),
(249,365,o),
(188,530,o),
(135,698,c),
(16,698,l)
);
}
);
width = 617;
}
);
unicode = 86;
},
{
glyphname = W;
layers = (
{
hints = (
{
horizontal = 1;
place = (21,142);
type = Stem;
},
{
horizontal = 1;
place = (21,-20);
target = down;
type = TopGhost;
},
{
horizontal = 1;
place = (679,-20);
target = down;
type = TopGhost;
},
{
place = (-16,1067);
type = Stem;
}
);
layerId = "DFBB8FEE-91F3-4D9C-B726-DCD68A66B18F";
shapes = (
{
closed = 1;
nodes = (
(224,0,l),
(340,0,l),
(469,415,ls),
(494,494,o),
(500,578,o),
(515,659,c),
(524,659,l),
(507,659,l),
(520,577,o),
(526,493,o),
(556,415,c),
(555,415,l),
(683,0,l),
(799,0,l),
(1003,698,l),
(881,698,l),
(779,286,ls),
(768,242,o),
(758,197,o),
(753,152,c),
(782,152,l),
(779,155,l),
(767,155,l),
(770,155,l),
(755,155,l),
(738,17,l),
(753,17,l),
(744,17,l),
(726,155,ls),
(720,198,o),
(709,240,o),
(696,282,cs),
(569,698,l),
(454,698,l),
(328,282,ls),
(315,239,o),
(303,196,o),
(299,152,c),
(323,152,l),
(321,155,l),
(312,155,l),
(314,155,l),
(299,155,l),
(283,17,l),
(299,17,l),
(291,17,l),
(271,155,ls),
(265,199,o),
(255,242,o),
(244,285,cs),
(143,698,l),
(21,698,l)
);
}
);
width = 992;
}
);
leftKerningGroup = W2;
rightKerningGroup = W;
unicode = 87;
},
{
glyphname = Wacute;
layers = (
{
hints = (
{
horizontal = 1;
place = (21,142);
type = Stem;
},
{
horizontal = 1;
place = (21,-20);
target = down;
type = TopGhost;
},
{
horizontal = 1;
place = (679,-20);
target = down;
type = TopGhost;
},
{
horizontal = 1;
place = (767,132);
type = Stem;
},
{
place = (-1080,1067);
type = Stem;
}
);
layerId = "DFBB8FEE-91F3-4D9C-B726-DCD68A66B18F";
shapes = (
{
closed = 1;
nodes = (
(488,839,l),
(559,839,l),
(604,946,l),
(510,946,l)
);
},
{
closed = 1;
nodes = (
(220,0,l),
(341,0,l),
(468,415,ls),
(483,465,o),
(496,516,o),
(501,568,cs),
(504,599,o),
(508,629,o),
(514,659,c),
(519,659,l),
(499,659,l),
(512,577,o),
(519,494,o),
(547,415,c),
(550,415,l),
(546,415,l),
(673,0,l),
(794,0,l),
(995,698,l),
(869,698,l),
(767,286,ls),
(756,242,o),
(744,198,o),
(742,152,c),
(775,152,l),
(773,155,l),
(759,155,l),
(762,155,l),
(743,155,l),
(727,17,l),
(746,17,l),
(740,17,l),
(722,155,ls),
(716,198,o),
(705,240,o),
(692,282,cs),
(567,698,l),
(447,698,l),
(322,282,ls),
(309,239,o),
(298,196,o),
(293,152,c),
(324,152,l),
(321,155,l),
(309,155,l),
(312,155,l),
(294,155,l),
(278,17,l),
(297,17,l),
(293,17,l),
(273,155,ls),
(267,199,o),
(256,242,o),
(246,285,cs),
(146,698,l),
(20,698,l)
);
}
);
width = 985;
}
);
leftKerningGroup = W2;
rightKerningGroup = W;
unicode = 7810;
},
{
glyphname = Wcircumflex;
layers = (
{
hints = (
{
horizontal = 1;
place = (21,142);
type = Stem;
},
{
horizontal = 1;
place = (21,-20);
target = down;
type = TopGhost;
},
{
horizontal = 1;
place = (679,-20);
target = down;
type = TopGhost;
},
{
horizontal = 1;
place = (767,132);
type = Stem;
},
{
place = (-1080,1067);
type = Stem;
}
);
layerId = "DFBB8FEE-91F3-4D9C-B726-DCD68A66B18F";
shapes = (
{
closed = 1;
nodes = (
(405,839,l),
(478,839,l),
(519,943,l),
(524,943,l),
(507,943,l),
(547,839,l),
(618,839,l),
(567,946,l),
(459,946,l)
);
},
{
closed = 1;
nodes = (
(220,0,l),
(341,0,l),
(468,415,ls),
(483,465,o),
(496,516,o),
(501,568,cs),
(504,599,o),
(508,629,o),
(514,659,c),
(519,659,l),
(499,659,l),
(512,577,o),
(519,494,o),
(547,415,c),
(550,415,l),
(546,415,l),
(673,0,l),
(794,0,l),
(995,698,l),
(869,698,l),
(767,286,ls),
(756,242,o),
(744,198,o),
(742,152,c),
(775,152,l),
(773,155,l),
(759,155,l),
(762,155,l),
(743,155,l),
(727,17,l),
(746,17,l),
(740,17,l),
(722,155,ls),
(716,198,o),
(705,240,o),
(692,282,cs),
(567,698,l),
(447,698,l),
(322,282,ls),
(309,239,o),
(298,196,o),
(293,152,c),
(324,152,l),
(321,155,l),
(309,155,l),
(312,155,l),
(294,155,l),
(278,17,l),
(297,17,l),
(293,17,l),
(273,155,ls),
(267,199,o),
(256,242,o),
(246,285,cs),
(146,698,l),
(20,698,l)
);
}
);
width = 985;
}
);
leftKerningGroup = W2;
rightKerningGroup = W;
unicode = 372;
},
{
glyphname = Wdieresis;
layers = (
{
hints = (
{
horizontal = 1;
place = (21,142);
type = Stem;
},
{
horizontal = 1;
place = (21,-20);
target = down;
type = TopGhost;
},
{
horizontal = 1;
place = (679,-20);
target = down;
type = TopGhost;
},
{
horizontal = 1;
place = (764,117);
type = Stem;
},
{
place = (297,167);
type = Stem;
},
{
place = (318,167);
type = Stem;
}
);
layerId = "DFBB8FEE-91F3-4D9C-B726-DCD68A66B18F";
shapes = (
{
closed = 1;
nodes = (
(548,849,o),
(590,836,o),
(617,836,cs),
(643,836,o),
(683,848,o),
(683,880,cs),
(683,912,o),
(642,925,o),
(616,925,cs),
(591,925,o),
(548,913,o),
(548,882,cs)
);
},
{
closed = 1;
nodes = (
(342,849,o),
(385,836,o),
(411,836,cs),
(437,836,o),
(477,848,o),
(477,880,cs),
(477,912,o),
(435,925,o),
(409,925,cs),
(383,925,o),
(342,913,o),
(342,881,cs)
);
},
{
closed = 1;
nodes = (
(220,0,l),
(341,0,l),
(468,415,ls),
(483,465,o),
(496,516,o),
(501,568,cs),
(504,599,o),
(508,629,o),
(514,659,c),
(519,659,l),
(499,659,l),
(512,577,o),
(519,494,o),
(547,415,c),
(550,415,l),
(546,415,l),
(673,0,l),
(794,0,l),
(995,698,l),
(869,698,l),
(767,286,ls),
(756,242,o),
(744,198,o),
(742,152,c),
(775,152,l),
(773,155,l),
(759,155,l),
(762,155,l),
(743,155,l),
(727,17,l),
(746,17,l),
(740,17,l),
(722,155,ls),
(716,198,o),
(705,240,o),
(692,282,cs),
(567,698,l),
(447,698,l),
(322,282,ls),
(309,239,o),
(298,196,o),
(293,152,c),
(324,152,l),
(321,155,l),
(309,155,l),
(312,155,l),
(294,155,l),
(278,17,l),
(297,17,l),
(293,17,l),
(273,155,ls),
(267,199,o),
(256,242,o),
(246,285,cs),
(146,698,l),
(20,698,l)
);
}
);
width = 985;
}
);
leftKerningGroup = W2;
rightKerningGroup = W;
unicode = 7812;
},
